<svg version="1" xmlns="http://www.w3.org/2000/svg" width="933.333" height="933.333" viewBox="0 0 700.000000 700.000000"><path d="M367.5 33.9c-.3.5-.2 1.2.3 1.5.5.3.9-.1.9-.9 0-1.7-.3-1.9-1.2-.6zM463.5 33.9c-.3.5-.2 1.2.3 1.5.5.3.9-.1.9-.9 0-1.7-.3-1.9-1.2-.6zM559.5 33.9c-.3.5-.2 1.2.3 1.5.5.3.9-.1.9-.9 0-1.7-.3-1.9-1.2-.6z"/><path d="M322.5 36.7c1.4 2.9 1.4 3.2 0 2.7-.8-.4-1.5-.2-1.5.3s-.7 1-1.5 1-1.2-.4-.9-.9c.3-.4.1-.8-.5-.8-.5 0-1.2.6-1.4 1.2-.4.9-.6 1-.6.1-.1-.7-1.2-1-2.8-.7-2.1.3-2.4.2-1.3-.6 1.2-.8 1.2-1 .1-1-.8 0-1.9.7-2.6 1.6-.6 1-2.4 1.8-4 2-2.5.3-2.6.2-.9-1.1 1.1-.7 2.1-.9 2.2-.4.5 1.2 2.2.1 2.2-1.3 0-.6-.3-.8-.7-.4-.4.3-1.3-.4-2-1.6l-1.4-2.3.7 2.4c.4 1.7.3 2.1-.6 1.6-.9-.5-1.1-.4-.6.3.4.7.3 1.2-.3 1.2-.5 0-1.3-.5-1.6-1-.5-.8-1.1-.8-1.9-.1-.7.6-1.6.8-2 .4-.4-.4-.4.1 0 1.1.7 1.7.8 1.8 1.9.2 1.1-1.4 1.3-1.3 1.3 1 0 1.4-.3 2.2-.7 1.7-.8-1.1-2.1-1-4.9.5-1.2.7-1.9 1.8-1.6 2.4.4.7.2.8-.5.4-.9-.6-.9-1.1 0-2.2.7-.8.7-1.4.1-1.4-.5 0-1.5.7-2.2 1.5-.7.8-1.8 1.5-2.4 1.5-.6 0-.4-.5.4-1 1.3-.8 1.3-1.1.1-2.2-1.1-1.1-1.3-1.1-.6.1.6 1.1.4 1.3-.9.8-1-.4-1.5-.3-1.1.3.4.6-.6 1-2.2 1-1.5 0-2.3.4-1.7.8.6.4 1.6 1.8 2.3 3.2 1.1 2.2 1 2.3-.2.8-.8-1-1.8-1.4-2.2-1-.5.4-.5.2-.2-.4.4-.7 0-1.4-.8-1.8-1.8-.7-2 1.5-.3 3.2.9.9.9 1.2 0 1.2-.7 0-1.2-.5-1.2-1.1 0-.5-.5-.7-1.2-.3-.7.5-.8.2-.3-.7.6-1.1.5-1.2-.5-.2-1 .9-1 1.6-.2 2.6.9 1.1.8 1.4-.3 1.4-.8 0-1.2-.4-.9-.9.3-.5-.8-.7-2.4-.6-2.8.2-2.9.4-2.1 2.8l.9 2.5-1.9-2.5c-1.1-1.3-1.7-2.9-1.4-3.4.3-.5.1-.6-.6-.2-.8.5-.9 1.2-.2 2 .6.6.9 2.8.8 4.7-.1 2.7-.6 3.5-1.8 3.2-2.1-.6-5.8 2.7-6.4 5.6-.6 3.1-.7 3.2-2.8 1.6-1.2-.8-1.4-1.5-.8-2 .6-.3 1.1-.1 1.1.4 0 .6.5 1.1 1.2 1.1.6 0 .8-.3.5-.6-.3-.4-.2-1.5.4-2.5.7-1.3.6-2.5-.1-3.7-.8-1.3-1-1.3-.9-.2.4 4.7-1.1 6.2-3.4 3.5-.5-.6-.7-.3-.3.7.3 1 0 1.8-.6 1.8s-.1.9 1.2 2 1.8 2 1.2 2c-.7 0-1.1.3-1.1.7.3 2.1-.3 2.2-2.8.6-2.7-1.7-2.7-1.7-1.4 0 1.2 1.5 1.2 2 .1 3-1 .9-1.1.9-.6 0 .5-.9.2-1.1-1-.6-1.5.6-1.5.7 0 1.5 1.2.7 2.2.5 3.3-.4 1.2-.9 1.5-.9.9-.1-.4.7-1.6 1.8-2.8 2.4-1.1.6-1.8.7-1.5.2.4-.5 0-1-.8-1s-1.2.4-.9.9c.7 1-1.2 4.4-2.3 4-.4-.1-.8.6-.8 1.5 0 2-1.7 4.3-2.7 3.7-.4-.3-.5.7-.2 2.1.2 1.5 0 2.5-.7 2.5-.6 0-.1.8 1.1 1.8 2.1 1.7 2.1 1.9.6 2.5-1.1.5-1.5.3-1-.4.5-.8.2-.9-1.1-.1-1 .5-1.9 1.9-2 3.1-.1 1.1 0 1.9.3 1.6.2-.2.9.1 1.6.8 1.4 1.5 1.7 6.7.4 6.7-.6 0-.4.8.3 1.7.8 1 .9 1.4.2 1-.8-.5-1.1 0-1 1.3.1 1.1.7 2 1.4 2 .6 0 1.5.4 1.8 1 .4.7-.2.7-1.9.1-1.8-.7-2.8-.6-3.6.4-.7.8-1.7 1.2-2.3.8-.6-.3-.7-.1-.3.6.5.8 1.2.9 2 .2 1.3-1.1 4.1-.9 5.3.4.4.4.3.5-.4.1-.6-.3-1.4-.2-1.8.4-.4.6-1 .8-1.5.5-.4-.3-1.4.3-2.1 1.3-1.3 1.5-1.2 1.6.3.4 1.5-1.2 1.7-1.1 1.5.7-.1 1.5-.6 2-1.7 1.6-.8-.3-.4.4 1 1.5s2.8 2 3.2 2c.4 0 .6 1.2.4 2.7-.1 1.6.2 3.7.7 4.8.9 1.7.8 1.8-.5.7-1.3-1-1.8-1-2.4-.1-.4.7-.3.9.3.6.5-.3 2.2.5 3.9 1.9 1.6 1.4 2.4 2.3 1.8 2-.7-.3-1.1.4-1.1 1.9 0 1.4.2 2.3.6 2.1.3-.1 1.4.5 2.3 1.6 1 1 1.3 1.8.7 1.8-.5 0-.7.5-.4 1 .4.6 1 .8 1.4.6.4-.3.8.1.8.9 0 1.1-.4 1.2-1.4.4-.8-.7-1.3-.8-1.3-.1 0 1.9 2.6 3.2 3.8 2 .9-.9 1.2-.9 1.2-.1 0 1.6-2.2 2.2-4.1 1.2-1-.5-1.6-.3-1.6.6 0 .7.6 1.1 1.2.9.8-.3 1.1.7 1 3 0 1.9.3 3.2.7 3 .4-.3.8-1.2.8-1.9 0-1.9 4.7-1.6 5.5.2.3 1 0 1.1-1.5.3-1.2-.7-2.1-.7-2.5 0-1.6 2.6 2 3.6 5.5 1.6 1.2-.7 1.3-.6.3.4-.9 1-.8 1.6.3 2.7.8.8 1.2 2.3.9 3.3-.4 1.3 0 1.7 1.7 1.7 4.2.1 4.7.3 4.5 2.2 0 1.1-.5 1.7-.9 1.5-.5-.3-.5-1-.2-1.6.5-.7.2-.8-.6-.3-.9.5-1.1.4-.6-.3 1.1-1.8 0-1.4-1.5.5-.7 1-1 1.5-.5 1.1.4-.4 2 .4 3.4 1.8 1.5 1.3 3.1 2.4 3.6 2.4.6 0 .1-.7-1-1.5-1-.8-1.4-1.5-.8-1.5.6 0 1.7.6 2.3 1.4 1 1.1.9 1.6-.5 2.4-1.1.6-1.3 1.1-.5 1.6.6.4 1.1.2 1.1-.3 0-.6.7-1.1 1.6-1.1.8 0 1.3-.4 1-.9-.7-1.1 2.1-.8 3.1.4.4.4.2.5-.4.1-.7-.4-1.3-.3-1.3.2 0 1.7 1.3 2.2 2.9.9 1.4-1.1 1.4-1 .2.5-.7 1-1.7 1.5-2.2 1.2-.5-.3-.9 0-.9.6 0 .8.7.9 1.8.5 3.6-1.4 6.2-1.6 6-.3-.2.7.2 1.2.8 1.1 1.4-.3 1.4 2.8 0 4.6-.9 1.2-.8 1.2 1 .1 1.4-.9 2-2 1.7-3.4-.3-1.2.6-.2 1.8 2.2 1.6 2.9 2.5 3.8 3.1 3 .4-.7.8-.9.8-.5s1 .2 2.3-.4c2.2-1.2 2.2-1.2.4.9-1.4 1.5-1.5 2.2-.6 2.8.8.4 1 .3.5-.4-.8-1.3-.6-1.3 3.6-1.6 1.4 0 2.9-.4 3.3-.8.4-.4 1.4 0 2.2.8 1.2 1.2 1.8 1.2 3 .2 1.8-1.5 4.5-2 3.7-.7-.3.5-1 .7-1.5.4-.5-.4-1.2.1-1.6 1-.3 1 0 2.1.8 2.5 1.5 1 3.2.3 2.4-1-.3-.4.3-1.4 1.3-2.1 1.5-1.2 1.6-1.2.6.1-.8 1.1-.7 2.2.3 4l1.4 2.5-.3-2.9c-.3-2.4.1-2.9 2.1-3.1 2.1-.2 2.2 0 .7 1-2.1 1.6-2.1 2.6.2 1.8 1.4-.6 1.5-.4.5.8-1 1.3-.8 1.5 1.2 1.5 1.4 0 2.1-.4 1.7-1.1-1.1-1.8-1.2-4.5-.1-4.5.5 0 .7.4.4 1-.3.5-.1 1 .4 1 .6 0 1.1-.6 1.1-1.3 0-.7.3-.8.8-.2 1 1.4 4.2 1.8 4.2.5 0-.5.4-1 .8-1 .5 0 .9.7.9 1.5s-.4 1.2-.9.9c-.4-.3-.8 0-.8.6 0 .7.7.9 1.6.6.9-.3 1.8-.6 2-.6.3 0 .2-.5-.2-1.2-.4-.6-.3-.8.4-.4.6.3 1.3.2 1.7-.4.9-1.4 2.8-1.2 2.2.2-.2.7-1.1 1.2-1.8 1-1.1-.3-1.1-.1-.2.9 1 1 1.6.9 2.9-.2 1.5-1.2 1.6-1.1 1 1.1-.6 2.3-.6 2.4.6.5.7-1.1 1.3-2.3 1.3-2.8 0-.4.3-.7.8-.7h1.3c.4 0 0 .7-.7 1.7-1.2 1.4-1.2 1.5.1 1.1.8-.3 2.4.2 3.4 1.1 1.9 1.6 1.9 1.5.3-.9-1.5-2.4-1.5-2.5.8-2.5 1.9 0 2.1.3 1.2 1.4-1 1.2-.9 1.4.4.9.9-.4 2.2-.1 2.9.5 1 1 1 .8.2-.9-1.4-2.6-.4-3.8 1.5-2.2 1.1.9 1.6.9 2.3-.1.6-1 .9-.9 1.4.7.4 1.1 1.4 2.3 2.2 2.6.9.3 1.2 1.1.8 1.8-.6 1-.5 1.1.8.1.8-.7 1.9-.9 2.4-.5.4.4.3 0-.4-.9-.6-.9-1-1.8-.7-2.1.3-.2-.2-.5-1-.5s-1.1.5-.8 1c.3.6.1.7-.6.3-.6-.4-.9-1.1-.6-1.6.3-.4-.1-1.1-.7-1.4-.7-.2-.4-.4.7-.3 1.1.2 2.5.6 3.2 1 .6.4 1.4.1 1.6-.5.4-1 .6-1 .6-.1.1.7.8 1.3 1.7 1.3 1.4 0 1.4-.3.4-1.5-.9-1-.9-1.5-.1-1.5.6 0 1.1.3 1.1.7 0 1.7 4.8 6.4 5.5 5.4.4-.7 1.5-.5 3.1.5 2.2 1.5 2.4 1.5 1.8 0-.3-.9-1-1.4-1.4-1.1-.5.3-1.1.1-1.5-.5-.4-.6-1.1-.8-1.6-.5-1.4.9-2.9-.4-2.3-2 .5-1.3.8-1.2 2.1 0 .8.9 1.9 1.3 2.4 1 1.1-.8 4.8 5.2 4.4 7.3-.1 1 .3 2 .8 2.4.7.4.7 1.1-.2 2.1-.8 1-.9 1.7-.1 2.2.5.3 1 .1 1-.4 0-.6.5-1.1 1.1-1.1.6 0 .4.9-.5 2.2-1.1 1.6-1.3 2.5-.4 3.5.6.7.6 1.3.1 1.3s-1 .6-1.1 1.2c-.1.7-.3 2.3-.4 3.6-.2 1.2-1 2.7-1.8 3.2-.9.6-1.1 1.3-.5 1.7 1.6 1.3 1.6 3.3-.1 3.3-.9 0-1.2-.5-.8-1.2.4-.7.3-.8-.5-.4-1.4.9-.5 2.6 1.5 2.6 1.6 0 1.9 1.6.4 2.5-.6.4-.8 1.1-.5 1.6.4.5-.1 1.2-.9 1.5-.9.3-1.3 1-1 1.6.3.5 1.2.1 2-.9 1.1-1.5 1.3-1.5 1.4-.2 0 .8-.5 2-1.2 2.7-.9.9-.9 1.2 0 1.2.7 0 1.2-.5 1.2-1.2 0-.6.3-.8.6-.5.4.4.1 1.4-.7 2.4-1.2 1.4-1.2 1.6 0 .8 1.1-.6 1.3-.3.9 1.3-.4 1.2-.2 2.5.3 2.8.5.3.9.1.9-.4s.7-.9 1.6-.9c1.5 0 1.5.1 0 1.2-.8.7-1.2 1.6-.8 2.1.4.4-.1.2-1-.5-1.3-1-1.8-1-1.8-.2 0 .7-.5.9-1.2.5s-1-.4-.6.1c.4.4.3 1.4-.3 2.1-.7.8-.6 1.4.2 2 .8.4.9.3.5-.4s-.2-1.2.3-1.2c1.4 0 1.4 3.7.1 4.5-1.4.9-1.2 2.8.3 2.2.6-.2 1.1-1 .9-1.6-.1-.6.2-1.1.8-1.1 1.3 0 1.3 1.7 0 2.5-.6.4-.8 1.1-.4 1.6.3.6 1.1.3 1.8-.6 1-1.5 1.2-1.4 1.2.4 0 1.1-.4 1.7-.8 1.5-.4-.3-.8.1-.8.8 0 1-.2 1-.9-.1-.5-.8-1.7-1.6-2.5-1.7-.9-.1-1.4.2-1 .7.3.5 1 .7 1.5.4 1.3-.9 1.1 1.9-.3 3.3-.7.7-.8 1.2-.3 1.2.6 0 .3.5-.5 1-1.2.8-1.2 1 .5 1s1.7.2.5 1c-.8.5-1 1-.5 1 .6 0 1.1.9 1.2 2 .1 1.3-.2 1.8-.9 1.4-.7-.4-.8-.2-.4.4.4.7.1 1.2-.6 1.2-1 0-1 .2 0 .9.8.4 1.3 1.1 1.3 1.5-.1.3.1.6.4.6h1.1c.4 0 .1-.6-.5-1.4-.8-.9-.8-1.6-.2-2 1-.7.8-6.6-.3-8.4-.3-.6-.1-1.4.5-1.8.7-.4.9-.3.5.4-.3.6-.2 1.3.3 1.6 1 .7.9 6.6-.2 8.3-.4.6-.3 1.4.3 1.8.5.3 1 .1 1-.4 0-.6.5-1.1 1.1-1.1.6 0 .4.9-.5 2.2-1.1 1.6-1.3 2.5-.4 3.5.6.7.6 1.3.1 1.3s-1 .6-1.1 1.2c-.1.7-.3 2.3-.4 3.6-.2 1.2-1 2.7-1.8 3.2-.9.6-1.1 1.3-.5 1.7 1.6 1.3 1.6 3.3-.1 3.3-.9 0-1.2-.5-.8-1.2.4-.7.3-.8-.5-.4-1.4.9-.5 2.6 1.5 2.6.8 0 1.4.5 1.4 1.1 0 .5-.5.7-1.2.3-.7-.5-.8-.3-.2.7 1.4 2.3 1.4 4.1-.1 3.5-1.1-.4-1 .3.3 2.8 1.1 2.1 2 2.9 2.4 2.2.6-.8.8-.8.8.1 0 .6-.5 1.5-1 1.8-.6.4-.8 1.1-.5 1.6.3.5 0 .6-.8.3s-1.8-.1-2.2.5c-.3.6-1.1 1.1-1.6 1.1-.6 0-.7-.5-.3-1.2.5-.7.3-.8-.5-.4-.7.5-1 1.4-.7 2.2.3.8.1 1.4-.4 1.4-.6 0-1-.4-1-1 0-.5-.8-1.4-1.9-1.9-1.6-.9-1.7-.7-1.3 1.4.2 1.4 0 2.5-.7 2.5-.6 0-.8-.8-.4-1.8.6-1.5.4-1.5-1.5.2-1.2 1.1-2.5 1.6-2.9 1.3-.3-.4-.1-.7.6-.7s.9-.5.5-1.2c-.5-.7-.2-.8.7-.3 1.2.7 1.2.5.1-.6-.9-1-1.5-1.1-2-.3-.4.6-1.6.9-2.7.7-1.1-.3-2.8-.4-3.8-.4-.9 0-1.5-.4-1.2-1 1-1.5-.2-1-1.6.8-1.1 1.3-1.1 1.5-.1.9 1.1-.7 1.1-.4 0 1.3-1.1 1.7-1.4 1.8-2.1.5-.5-.9-.4-2.1.3-3 .9-1 .9-1.4.1-1.4-.6 0-1.1.5-1.1 1.1 0 .6-.7.8-1.6.5-1.5-.6-1.4-.3.1 2.1 1.8 2.7 1.8 2.8-.1 1.3-1-.8-2.5-2-3.1-2.7-.7-.6-2.7-1-4.3-.8-2 .3-2.8 0-2.4-.6.4-.6-.5-.3-1.9.6-1.4.9-2.9 1.6-3.2 1.5-.4-.1-.9.1-1.2.4-.7.7 3.4-.1 4.6-.9.5-.3 1.2-.1 1.6.5.3.5 1.1 1 1.6 1 .6 0 .7-.5.4-1-.3-.6-.1-1 .4-1 1.5 0 1.4 1.5-.3 2.9-1.1.9-1.5.8-2-.4-.3-.9-1-1.3-1.6-1-2.2 1.4-4.9 1.3-6.2-.3-.7-.9-.8-1.3-.2-.9.7.4 1.5 0 1.8-.9.3-.9.2-1.2-.5-.9-.5.4-1.7.1-2.6-.7-1.4-1.1-1.6-1.1-.8.2 1.3 2.1 1.5 5.9.4 6.5-.5.3-.6-.2-.2-1.1.4-1.2.3-1.5-.6-1-.8.5-1.4.1-1.8-1.2-.3-1.1-1.2-2.3-2.1-2.7-.9-.3-1.3-.3-.9.1s.2 1.3-.4 2.1c-.8.8-.8 1.3-.1 1.3.6 0 1.3-.5 1.5-1 .3-.6.4-.5.3.2-.2.7.4 2.1 1.3 3.2 1.2 1.4.7 1.3-2.1-.5-2.2-1.5-3.3-2.8-2.7-3.3.5-.6.9-1.5.9-2 0-.6-.5-.3-1.1.7-.7 1.2-1.5 1.5-2.7.8-.9-.4-2.3-.6-3.1-.3-1 .3-1.1 0-.5-.9.6-1.1.5-1.2-.7-.2-1.5 1.2-5.7 1.1-8-.2-.8-.5-1.1-.5-.7 0 .4.4 0 1.4-1 2.2-1.5 1.3-1.5 1.3.6.3 1.7-.8 2.7-.8 3.7 0 .7.6 1.5.7 1.7.3.3-.4.3-.2.2.4-.5 1.9 1.3 1.6 2.4-.3.8-1.4 1-1.4 1.4.3.4 1.5 0 1.9-1.8 1.8-1.3 0-2.8-.5-3.4-1.1-1.4-1.4-5-.7-5 1 0 .6-.5.3-1.1-.7-.8-1.3-.7-2.2.1-3.3.9-1 .9-1.4.1-1.4-.6 0-1.1.5-1.1 1.1 0 .6-.7.8-1.6.5-1.5-.6-1.4-.3.1 2.1 1.8 2.7 1.8 2.8-.1 1.3-1-.8-2.5-2-3.1-2.7-.7-.6-2.7-1-4.3-.8-1.7.2-2.8.1-2.6-.4.3-.4-.5-.7-1.7-.6-1.2.1-2.9-.3-3.7-.9-1.3-.9-1.3-.9-.3.5.9 1 .9 1.9.2 2.6-.6.6-.5 1 .5 1 .8 0 1.3-.4 1-.8-.2-.4 0-1 .6-1.4.5-.3 1-.1 1 .5s.4.9.9.5c.5-.3 1.2-.1 1.6.5.3.5 1.1 1 1.6 1 .6 0 .7-.5.4-1-.3-.5-.1-1 .4-1 1.5 0 1.4 1.5-.3 2.9-1.1.9-1.5.8-2-.4-.4-1.1-1.1-1.3-2.3-.7-2.8 1.3-4.8.8-4.7-1.1.1-.9-.2-1.7-.7-1.7-.9 0-1.3 1.4-1 3.7.1.6-.3 1.4-.9 1.8-.6.4-.7-.1-.3-1.1.4-1.1.3-1.5-.5-1-.6.3-1.4.1-1.8-.5-.4-.7-.3-.9.4-.5.6.3 1.3.3 1.6-.2.5-.8-.8-1.2-4.7-1.3-1.1 0-1.5-.5-1-1.2.4-.7 0-.6-1 .2-.9.7-1.7.9-1.7.4 0-1.3-3.2-1.3-4.7 0-.7.5-1.3.6-1.3.2 0-.4-.6-.3-1.3.3-.7.6-1.8.7-2.6.2-.8-.4-2.1-.6-2.9-.2-1 .3-1.3.1-.8-.6 1.1-1.8 0-1.4-1.5.5-1.1 1.3-1.1 1.5-.1.9 1.1-.7 1.1-.4 0 1.3-1.1 1.7-1.4 1.8-2.1.5-.5-.9-.4-2.1.3-3 .9-1 .9-1.4.1-1.4-.6 0-1.1.5-1.1 1.1 0 .6-.7.8-1.6.5-1.5-.6-1.4-.3.1 2.1 1.8 2.7 1.8 2.8-.1 1.3-1-.8-2.5-2-3.1-2.7-.7-.6-2.7-1-4.3-.8-2.1.3-2.8.1-2.4-.7.4-.7.3-.8-.5-.4-.9.6-.9 1.1 0 2.2 1.3 1.6 3.3 1.9 2.4.4-.3-.6-.1-1 .4-1 1.5 0 1.4 1.5-.3 2.9-1 .9-1.5.8-2-.4-.3-.8-1.3-1.5-2.1-1.5-.9 0-1.3-.5-1-1 .3-.6.1-1-.4-1-1.8 0-1.2 1.8 1.1 3.4 1.2.9 1.7 1.6 1.1 1.6-.7 0-1.5-.5-1.9-1.1-.4-.8-.9-.7-1.6.2-.8 1.1-.9 1-.5-.3.9-2.6-1.7-4.2-3.7-2.3-.9.9-1.4 2-1.2 2.4.3.4-.1.8-.9.8s-1.5-.5-1.5-1.1c0-.6-.5-.4-1.1.4-.8 1.2-.9 1-.4-.8.4-1.3.2-2.3-.4-2.3-.6-.1-1.6-.2-2.1-.3-.6 0-1.5-.8-2.1-1.6-.9-1.3-1-1.3-.6.2.3.9 0 1.9-.7 2.1-1.4.6-1.5-2-.1-4.3.4-.8.5-1.2 0-.8-.4.4-1.4.3-2.2-.3-.9-.9-1.7-.8-2.7 0-1 .8-1.6.9-2.1.1-.4-.6-.1-.9.6-.8.6.2 1.4-.3 1.6-1 .3-.6-.3-1.2-1.4-1.3-1.1 0-1.3-.3-.5-.6.7-.3 1.9.1 2.8.7 1.2 1.1 1.3 1 .8-.5-.5-1.3-.4-1.6.5-1.1.7.5.1-1.5-1.4-4.3-1.4-2.9-2.3-5.6-2-6.2 1.1-1.6 2.6.2 1.9 2.3-.4 1.4-.2 1.8.5 1.4.7-.4.9-.1.5.7-.3.8-.1 1.8.5 2.2.7.3.8 0 .5-.9-.4-1-.1-1.6.7-1.6 1.2 0 1.2-.2 0-.9-.8-.5-1.1-1.6-.8-2.6.5-1.1.3-1.4-.5-.9-.8.5-.9.2-.5-.9.6-1.6-.8-3.4-1.6-2-.2.5-.2.2 0-.6s-.1-1.7-.7-2.1c-.8-.5-.7-1.5.1-3.4 1-2.2 1-2.9 0-3.5-1-.6-.9-1 .4-1.4.9-.4 1.4-.3 1.1.2-.4.5.4.6 1.6.3 1.9-.5 2-.7.6-1-1.5-.3-1.6-.7-.7-2.5 1.2-2.2 1.2-2.2-1.3.1-1.8 1.6-2.5 1.8-2.5.8 0-.8.4-1.3.8-1 .4.2 1-.5 1.4-1.5.4-1.3 1.2-1.8 2.3-1.5 1.3.5 1.4.4.3-.4-.8-.6-1.1-1.7-.8-2.7.5-1 .3-1.4-.4-.9-.7.4-1 .1-.7-.7.3-.8 1-1.3 1.5-1.2.5.1 1-.5 1-1.3 0-1.1-.4-1.1-1.9.3-1 .9-1.8 1.1-1.8.6 0-.6.7-1.6 1.5-2.3.8-.7 1.2-1.6.9-2.1-.3-.5.1-.9.8-.9 1 0 .9-.3-.1-.9-1.2-.8-1.3-1.4-.3-3.6.9-1.9.9-2.4.1-1.9-.7.4-1 .1-.7-.7.3-.8 1.2-1.3 1.9-1.1.9.2.7-.4-.5-1.7-1.1-1.2-1.4-2.1-.8-2.1 1.3 0 1-1.9-.8-4.7-.8-1.2-2-1.9-2.9-1.5-.9.3-.4-.5 1.2-1.7 1.5-1.3 2.5-2.7 2.2-3.2-.4-.5 0-.9.7-.9.9 0 .9-.3.2-.8-1.6-1-1.3-4.5.4-5.8 1.3-.9 1.2-1.1-.2-1.1-.9 0-1.6.4-1.6.9s-.3.7-.8.4c-.9-.5-1 5.5 0 6.9.4.6-.3 1.7-1.5 2.5-2 1.2-2.1 1.2-.8-.4.9-1.1 1.1-2 .5-2.4-1.1-.8-1.2-2.7-.1-3.8 1.2-1.3.8-2.4-1-2.5-1.4 0-1.5-.2-.3-.6 2.4-.9 5-3.5 4.4-4.4-.3-.5 0-.9.5-.9.6 0 1.1-.5 1.1-1.1 0-.8-.5-.8-1.5.1-.8.7-1.3 1.5-1.1 1.9.3.4-.4 1.2-1.4 1.9-1.3.7-2.1.8-2.5.2-.4-.6-.1-.9.6-.8.6.2 1.4-.3 1.7-1.1.3-.9 0-1.1-.8-.6-.9.5-1.1.4-.6-.4.4-.6 1.2-.9 1.7-.6.8.6 1.3-.8 1-2.8 0-.4.4-.7 1-.7.8 0 .7-.6-.2-1.7-.8-.9-1.3-1.8-1.1-2 .7-1.1 0-2.3-1-1.6-1.9 1.1-3.9 1.3-3.2.2.3-.5.9-.7 1.4-.4.5.3 1.2.1 1.5-.5.5-.8 1.1-.7 2.1.1 1.2 1 1.3.9.8-.5-.4-1-1.4-1.6-2.4-1.3-.9.2-1.7-.1-1.7-.8 0-1.4 2.7-1.6 4.5-.2.8.6 1.2.6 1.2-.2 0-.6-.4-1.1-.9-1.1-1.4 0-.7-4 .9-5.1 1.1-.7.8-.8-1.2-.5-2.1.4-2.6.1-2.1-1.1.4-1 .2-1.4-.5-.9-.6.3-1.3.2-1.7-.4-.4-.6-1.1-.7-1.7-.4-.7.5-.8.2-.4-.5.5-.7 1.1-1 1.4-.7.7.7 3.2-1.3 3.2-2.6 0-.5-.3-.7-.8-.5-.4.3-.7-.8-.7-2.4-.1-1.6.3-2.9.8-2.9s.6.7.3 1.6c-.4 1-.2 1.3.6.8s.9-.2.4 1.1c-.5 1.4-.4 1.6.7.7.8-.7 1.6-1.1 1.8-.9.2.1-.1-.3-.8-.9-1.6-1.4-1.7-3.1 0-3.8.6-.3.2-.3-1 0-1.8.4-2.2.2-1.7-1 .3-.9 1-1.4 1.4-1.1.4.3 1.4-.3 2.1-1.3 1.3-1.5 1.2-1.6-.3-.3-2.1 1.5-2.3.9-.7-2.2.9-2 .9-2.1-.4-.4-.9 1-1.8 1.4-2.1.9-.3-.5.1-1.5.9-2.2.8-.7 1.2-1.6.9-2.1-.3-.5.1-.9.8-.9 1 0 .9-.3-.1-.9-1.2-.8-1.3-1.4-.3-3.6.9-1.9.9-2.4.1-1.9-.7.4-1 .1-.7-.7.3-.8 1.1-1.3 1.8-1.1 1.1.3 1.1 0 0-1.2-1-1.3-1-1.9.1-3.4 1.3-1.5 1.2-1.6-.2-.4-1.4 1-1.8 1-2.2-.2-.3-.8-.1-1.7.6-2 .7-.2.4-.5-.5-.5-1-.1-1.8.4-1.8 1.1 0 .6-.3.9-.6.6-.6-.7 2.4-5.8 4.1-7 .6-.5.6-.8-.2-.8-.6 0-1.9 1-2.8 2.2-1.7 2.3-1.7 2.3-1.1.1.4-1.3.2-2.3-.6-2.6-.7-.2-.5-.3.5-.2.9.2 1.7-.1 1.7-.7 0-.5.4-.6 1-.3s.7-.1.4-1c-.5-1.1-.2-1.4 1.2-.9 1.4.4 1.6.3.5-.4-.8-.6-1-1.5-.6-2.2.5-.9.4-1.1-.3-.6-.7.4-1.2.2-1.2-.3 0-.6-.5-1.1-1.1-1.1-.8 0-.8.4 0 1.4 2.3 2.7-1.2 5.8-3.6 3.1-.4-.4-.3-.6.2-.2.6.3 1.7.2 2.4-.2 1-.6.9-1.2-.4-2.5-.9-.9-1.2-1.6-.6-1.6s1.1-.5 1.1-1.1c0-.5-.6-.7-1.2-.3-1 .6-1 .4 0-.7.6-.7 1.2-1.6 1.2-2.1 0-.4-.6-.6-1.2-.4-.7.1-1 .1-.5-.1.4-.3.5-.8.2-1.3-.7-1.1 2.2-.7 3.2.5.4.4.3.5-.3.2-.6-.4-1 .3-.9 1.6.2 2.9 2 2.4 1.9-.6 0-1.2.5-2.6 1-3 .7-.5.3-.6-.8-.3-1.5.5-1.7.2-1.3-1.5.4-1.6.2-1.9-1-1.5-1.4.6-1.4.4-.2-1 .8-1 1.3-1.9 1.2-2.1-.2-.1-.3-.6-.2-1.1 0-.4.4.2.9 1.3.7 1.6.9 1.7.9.3.1-.9-.4-2-.9-2.3-.6-.4-.8-1-.6-1.4.3-.4-.5-.8-1.6-.8-1.8-.2-1.9-.1-.4 1 1.4 1.1 1.4 1.2-.7 1.2-2.4 0-3.3-3-1-3.3.7-.1 1.9-.3 2.7-.4.8-.1 1.2-.8.9-1.6-.3-.7-.9-.9-1.2-.4-.8 1.2-4.1 1.1-4.1-.1 0-.5.7-.7 1.4-.4 1 .4 1.3.1.9-.9s0-1.3 1.3-.8c1.8.5 1.8.5 0-.6-1.5-1-1.6-1.4-.5-2.2 1.1-.8 1.1-.9-.1-.5-.8.2-1.4 1-1.2 1.6.1.7-.2 1-.8.6-.5-.3-1-.1-1 .4 0 .6-.5 1.1-1.1 1.1-.8 0-.8-.4.1-1.5.6-.8.9-1.9.6-2.4-.4-.5-.1-1.3.5-1.7.8-.4.9-.3.5.4-.5.8-.1 1 1 .5 1.5-.6 1.5-.7 0-1.5-1.1-.6-2.3-.5-3.4.3-1.4 1.1-1.5 1.1-.4-.1 1.7-2 1.5-3-.5-2.4-1.4.5-1.5.4-.4-.4 1-.7 2.2-.6 4 .5l2.6 1.5-2.2-1.8c-2.3-2-4.6-6.6-4.7-9.7-.1-1-.7-2.1-1.4-2.6-.7-.4-1-1.6-.6-2.7.4-1.4.3-1.5-.4-.6-.7 1.1-1 1.1-1.5-.2-.4-.9-1.1-1.6-1.7-1.6-.7 0-.5.7.4 1.5.8.9 1.2 2.3.9 3.2-.4.9-.2 1.4.3 1 .6-.3 1.6-.2 2.4.4 1.3.7 1.3.9 0 .9s-1.3.1 0 1c1.2.7 1 .9-.7.7-1.2 0-2-.3-1.8-.6.3-.2 0-1-.5-1.7-.6-.6-.9-1.8-.8-2.5.2-.8-.2-1.3-.9-1.2-.7.2-1-.6-.8-1.7.5-2.5-3.4-5.3-6.1-4.5-1.2.4-1 .1.5-.8 1.6-.9 2-1.6 1.1-1.9-.7-.2-1.4-1.2-1.6-2.1-.1-.9.2-1.5.7-1.1.5.3.7 1 .4 1.5-.4.5-.2.9.4.9.5 0 1.3-.5 1.6-1 .3-.6.1-1-.5-1s-.8-.5-.4-1.2c.4-.6.3-.8-.2-.5-.6.3-1.6.1-2.4-.4-1.2-.8-1.2-1.2-.2-1.6 1-.4.9-.8-.5-1.8-2.2-1.6-3.8-.8-2.2 1.1 1 1.2.9 1.7 0 2.7-1 .9-1.1.8-.6-.6.4-1 .2-1.7-.4-1.7-1.9 0-1.2-2.7 1.2-4.4 2-1.5 2-1.6.1-.7-2.3 1.1-3.4.6-3-1.2.2-.7.1-.9-.1-.5-.3.5-.9.8-1.4.8-.6 0-.7-.6-.3-1.3.4-.6.4-.9 0-.5-.5.4-1.8.3-3.1-.2s-2.7-.5-3.4.1c-.6.5-.9.6-.6.2.3-.3-.2-1.5-1.1-2.5-1.4-1.5-2-1.6-3.2-.5-1.3 1-1.4.9-.8-.1.4-.7.2-1.9-.4-2.7-.7-.8-1-2.1-.6-3 .3-.8 0-1.4-.7-1.2-.7.1-1.1-.4-.9-1.1.1-.8-.2-1.1-.8-.7-.6.3-.8 1-.5 1.5.3.4-.1 1-.9 1.3-.8.3-1.7-.1-2-.9-.3-.9-1.1-1.2-1.6-.9-.6.4-1.7.1-2.5-.5-1.7-1.4-3.8-.4-2.9 1.3.4.7.3.8-.1.4-1.9-1.7-1.3-3.5 1.1-3.2 1.3.1 2.1-.2 1.8-.6-.5-.9 1.1-1.3 3.1-.9.6.1.7-.2.2-.6-1-1.1-4.7-1.3-4.1-.2.3.4-1.1.8-3 .8-2 0-3.6-.4-3.6-.9s1.2-.8 2.8-.5c1.9.3 2.3.2 1.2-.5-.8-.5-1.8-.7-2.2-.5-.4.3-.8-.1-.8-.8 0-.9-.3-.9-1 .2-.9 1.3-1 1.3-1.1 0-.1-.8-.1-1.9 0-2.3.1-.5-.3-.6-.9-.2-.6.3-.8 1.1-.5 1.6.4.5.2.9-.4.9-.5 0-1.3-.5-1.6-1-.4-.6-1.5-.8-2.5-.5-1.1.4-2.3-.1-3.2-1.3-1.2-1.7-1.4-1.7-3 0-1 1-1.8 2.1-1.9 2.5 0 .5-.3 1-.6 1.3-.2.3-.3 0-.2-.5.2-.6 0-2-.5-3.3-.6-1.7-1.3-2.1-3.3-1.8-2 .4-2.4.2-1.9-1.2.5-1.5.4-1.5-.7-.2-1.7 2.1-3.6 2.3-4.3.5-.6-1.4-.8-1.3-2 .2-1.2 1.7-1.4 1.7-2.9-.2-1.6-2-1.6-2-.5.2.6 1.3 1.4 2.3 1.8 2.4.4 0 1.5.2 2.5.4.9.2 1.5 0 1.2-.4-.2-.4.2-.8.9-.8s1.3.6 1.3 1.3c0 .7-.9 1.1-1.9.9-1-.2-1.8.2-1.8.8 0 .7-.4.6-1-.3-.5-.8-1-1.1-1-.5 0 .5-.4.4-.9-.4-.7-1.1-1.3-1.2-2.3-.3-1.1.8-1.7.7-2.6-.9-.7-1.1-.8-1.9-.2-1.9.5 0 1-.5 1-1.1 0-.8-.5-.8-1.5.1-.8.7-1.2 1.6-.9 2.1.3.5-.2.9-1.1.9-1 0-1.3-.5-.9-1.2.5-.7.3-.8-.5-.3-.7.4-1.1 1.8-.8 3 .3 1.9 0 2.3-1.6 1.9-1.1-.2-2.2-.6-2.6-1-.3-.4.2-.4 1.2-.1 1.3.5 1.7.3 1.4-.5-.2-.7 0-2.2.6-3.3.5-1.1-.8-.2-3 2.1l-4 4.1-1.6-2.6c-1.4-2.1-1.6-2.2-1.4-.6.1 1.1.6 2.7 1.1 3.5.4.8-.2.5-1.3-.8s-1.8-2.9-1.5-3.6c.3-.8 0-1.7-.7-2.2-.8-.5-1-.3-.5.5.5.7 0 2.1-1.1 3.3-1 1.2-1.3 1.8-.7 1.5.7-.4 1.8.1 2.5 1.1 1.3 1.6 1.3 1.6-.5.2-1.8-1.4-1.9-1.3-1.3.2.3 1 .3 2-.2 2.2-.7.5-.9-.1-1.3-4.3-.1-1.1-.6-1.7-1.1-1.4-.4.2-.7 1.4-.5 2.6.2 1.8-.2 2.2-2.5 2.1-2.2-.1-2.7.2-2.2 1.5s.4 1.4-.6.3c-1.5-1.4-3.3-1.6-2.4-.3.3.5.1 1.2-.5 1.6-.6.4-.8 1.1-.5 1.6.4.5.1.9-.4.9-1.4 0-1.4-1.3 0-2.7.7-.7.2-1.4-2.1-2.1-1.8-.7-2.8-.7-2.5-.2.4.6 1.4 1 2.3 1.1 1.1 0 1.2.2.4.6-.6.2-1 .8-.8 1.2.3.4-.4.7-1.4.8-1.3.1-1.7-.3-1.4-1.5.3-1 0-.9-.8.4-.7 1.2-2.1 2-3.1 1.8-1-.1-2.1.4-2.4 1.3-.4 1-.8 1.1-1.3.3s-.9-.7-1.3.5c-.5 1.1-.3 1.4.5.9.8-.5.9-.2.5 1-.4.9-.3 1.4.2 1.1.5-.3 1.3 0 1.7.6.4.7.3.9-.4.5-.6-.3-1.7.1-2.5.9-2 1.9-3.3 2-1.7 0 1.4-1.7.5-3.5-1.8-3.4-1.5.1-1.5.2 0 .6 1 .2 1.8.8 1.8 1.3 0 1.4-2.7 1.9-4.1.7-.7-.7-.5-.2.6 1.1 2.5 3 2.9 5.5.7 4.3-2-1-4.5-.3-3.7 1 .4.5-.1.6-.9.3-.9-.3-1.3-1.1-.9-1.7.3-.6.1-.7-.6-.3-.6.4-.9 1.1-.6 1.6.5.8-2.7 3.2-3.6 2.7-.3-.1-.1.2.3.7.4.6 1.5.2 2.6-.7 1.5-1.4 1.9-1.4 1.9-.3 0 .8-.3 1.5-.6 1.4-1.9-.2-2.4.4-1.1 1.2 1.3.8 1.2 1-.3 1-1.1 0-1.5.4-1.1 1.2.4.7.3.8-.5.4-.6-.4-.9-1.2-.6-1.7.3-.5-.2-.6-1.1-.2-1.3.5-1.5.3-.9-.7.5-.8.4-1.1-.3-.6-.7.4-.8 1.7-.2 3.6.6 1.9.5 3.2-.2 3.6-.6.4-.8.2-.5-.3.4-.6-.1-1.4-1-1.7-1-.4-1.4-.4-1.1 0 .8.8-1.4 3.4-2.4 2.7-.5-.2-.8.1-.8.6 0 1.5 1.3 1.4 2.9-.2.9-.8 1.2-.8.7 0-.3.6-.3 1.3.1 1.6.5.2.3.2-.4.1-.7-.2-1.5.1-1.9.7-.4.6-1.1.6-2-.2-1.2-1-1.5-1-1.2.2.2.8-.2 1.3-.8 1.2-.6-.1-1.1.4-1.1 1.2 0 .8.5 1.1 1 .8.6-.4.8 0 .4.9-.6 1.7.8 1.8 3.3.4 1.2-.7 1.3-.6.3.4-1.6 1.8-5.3 2.3-5.3.8 0-.6-.3-.8-.6-.5-.4.4-.2 1.2.4 2 .6.7.7 1.8.2 2.7-.7 1.1-1.1 1.1-2.4.1-1.1-.9-1.6-1-1.6-.2 0 .6.5 1.1 1.1 1.1.5 0 .8.4.4 1-.3.5-1.1.8-1.8.6-.7-.1-.8-.1-.3.2.5.3-.2 1.3-1.5 2.3-1.5 1.2-1.8 1.7-.6 1.3 1.3-.5 1.6-.2 1.1 1-.3.9-1.1 1.6-1.7 1.6-.6 0-.2.7.9 1.6 1 .8 1.3 1.3.7.9-.8-.4-1.3 0-1.3 1s-.5 1.3-1.2.9-.8-.3-.4.5c.6.9 1.1.9 2.4-.1 1.4-1.2 1.4-1 .3 1-.7 1.2-1.7 2-2.3 1.6-.7-.4-.8-.3-.4.4s.2 1.2-.5 1.2-.9.3-.6.6c.4.4 1.3.2 2-.5 1.1-.8 1.8-.6 3.3 1.2l1.9 2.2-2.2-1.8c-1.4-1.2-2.3-1.5-2.8-.8-.3.6 0 1.1.7 1.1.9 0 .9.3-.2 1-1.3.9-1.3 1 0 1 1.2.1 1.1.3-.3 1.1-1.5.9-1.6 1.3-.5 2.7.7.9.8 1.3.2.9-1.6-.9-2.5 2.8-1 4.4.8.9.8 1 0 .6-1.9-1.1-2.4 5.2-.5 6.3 1 .6 1.1 1 .4 1-.7 0-1.3.9-1.3 2.1 0 1.1.4 1.8.8 1.5.5-.3.9.1.9.9s-.5 1.5-1 1.5-.7.7-.3 1.5c.4 1.3.2 1.3-1.4.5-2.9-1.5-3.7-1.2-1.2.6 1.2.8 2.2 2.1 2.2 2.9 0 .8.6 1.2 1.4.9 1.8-.7 3 1.2 1.5 2.2-.8.4-.9.3-.5-.4.9-1.5-.6-1.6-2.1-.1-.8.8-1.3.7-1.8-.2-.6-.8-.4-1 .4-.4 1 .6 1.1.3.2-1.4-1.5-2.7-1.8-2.7-1.6.1.1 1.3-.3 2.7-.9 3.1-.7.6-.4.7.7.3 1.2-.4 1.7 0 1.7 1.6 0 1.8-.2 1.9-1.7.7-1.6-1.3-1.7-1.2-.4.4 1 1.2 1.7 1.5 2.5.7 1.3-1.3 2.6-1.3 2.6.1 0 .5-.4.7-1 .4-.5-.3-1-.2-1 .4 0 .5.6 1.2 1.3 1.4.9.4.9.6-.1.6-.7.1-1.1.5-.7 1 .3.5.1 1.2-.4 1.6-.6.3-.8-.3-.6-1.4.4-2.2-1.8-2.3-3.8-.1-1 1.2-.9 1.2.5.2 1.1-.9 1.8-1 2.3-.2.3.5 0 1-.7 1-.8 0-.9.3-.3.8.6.4 1.1 1.4 1.1 2.2.1.8.5 2.4.9 3.5.7 1.6.6 1.8-.6.7-.7-.6-1.8-1.2-2.3-1.2-.6 0-.3.5.7 1.1.9.6 1.5 1.4 1.2 2-.4.5-.2.9.4.9.5 0 1.3-.5 1.6-1 .3-.6 1.2-1 1.8-1 .7 0 .6.4-.3 1-1.4.9-.7 1.4 1.3 1.1.5-.1.6.3.3.8-.4.5-2 .8-3.6.6-1.6-.2-3.2 0-3.5.5-.4.6.1.7 1.1.3 1.2-.5 1.5-.3.9.6-.6 1-.2 1.1 1.6.6 1.7-.4 2-.3 1 .3-.7.5-1 1.5-.6 2.2.6.9.3.9-1.3.1-3.1-1.6-4-1.3-1.4.5 1.2.8 2.2 2.1 2.2 2.9 0 .8.6 1.2 1.4.9 1.8-.7 3 1.2 1.5 2.2-.8.4-.9.3-.5-.4.9-1.5-.6-1.6-2.1-.1-.8.8-1.3.7-1.8-.2-.6-.8-.4-1 .4-.4 1 .6 1.1.3.2-1.4-1.5-2.7-1.8-2.7-1.6.1.1 1.3-.3 2.7-.9 3.1-.7.6-.4.7.7.3 1.2-.4 1.7 0 1.7 1.6 0 1.8-.2 1.9-1.7.7-1.6-1.3-1.7-1.2-.4.4 1 1.2 1.7 1.5 2.5.7 1.3-1.3 2.6-1.3 2.6.1 0 .5-.4.7-1 .4-.5-.3-1 0-1 .9 0 .8.3 1.6.8 1.9.4.2.1.2-.6.1-1.1-.3-1.7.9-1.3 3 .1.5-.4.6-1.2.3-.7-.3-1.4.1-1.4.8 0 .8.7 1.1 1.6.7 1.3-.5 1.4-.3.4.9-.9 1.1-.8 1.8.2 3.2.8 1.2 1.5 1.4 2 .8.3-.6-.1-1.4-1-1.7-1-.4-1.2-1-.7-1.8.5-.6.8-1.8.7-2.7-.3-1.6 2.8-2 4.2-.4.5.4.2.4-.6 0-1.1-.6-1.3-.4-.8.9.4.9.3 1.4-.2 1.1-1.3-.8-2.4 1.2-1.4 2.7 1.1 1.9 1.3 3.9.2 3.2-1.3-.8-1.1 1 .4 2.5 1 1.1 1 1.3-.1.7-.6-.4-1.2-.2-1.2.3 0 1 1.4 1.5 3.3 1.2.5-.1.6.3.2.9-.4.6-1.7.4-3.7-.6-2.2-1.1-2.8-1.2-2.2-.2 1.1 1.8 1.4 3.8.5 3.8-.4 0-1.3-.6-2.1-1.3-1.2-1-1.2-.9-.2.4.6.9 1 1.8.7 2-.2.3.4.5 1.5.6 1.3.1 1.8-.4 1.5-1.7-.3-1.3.1-1.7 1.2-1.3 1.1.4 1.2.8.2 1.3-.8.6-.6.9.7 1.3 1.6.4 1.7.5.2.6-1 0-1.8.6-1.8 1.2 0 .5.6.7 1.3.3.9-.6.9-.5 0 .7-1 1.2-1 1.8 0 2.9.7.8.8 1.1.1.7-.7-.4-1.8.1-2.5 1-1.2 1.4-1.2 1.6.2 1.1.9-.3 2.2-.2 3 .3 1.1.7 1.1.9.1.9-.7 0-1 .5-.7 1 .4.6 1.1.7 1.7.4.7-.4.8-.2.4.5-.4.6-1.1.9-1.6.6-1.5-.9-2.2 1.5-1 3 .7.8.9 1.5.6 1.5-.4 0-.1 1 .5 2.2 1.1 2.1 1.1 2.2-.5.9-.9-.8-1.5-2-1.2-2.7.3-.8-.3-1.8-1.2-2.4-1.4-.8-1.5-1.1-.3-1.9 1.6-1 2.5-4.5 1-3.5-.5.3-.7 1-.4 1.5.4.5.2.9-.3.9s-1.8 1.2-2.8 2.7c-1.5 2.4-1.5 2.6-.1 1.4 1.4-1.1 1.8-1.1 2.3.4.4 1 .1 2.1-.7 2.7-1.1.8-1 .9.4.4 1.2-.4 1.7 0 1.7 1.4 0 1 .5 2.2 1 2.5.6.4.8 1.1.4 1.6-.3.5-1 .7-1.5.4-.8-.6-1-.1-1.3 3.3-.1.7-.8 1.7-1.6 2.2-.9.6-1 1-.3 1 1.2 0 2.8-1.9 2.8-3.4 0-.5.7-1.1 1.5-1.3 1.3-.4 1.3-.3 0 .6-1 .7-1.1 1.1-.2 1.1.6 0 1.2.5 1.2 1.1 0 .5-.5.7-1.1.3-.8-.5-1 .1-.7 2 .5 2.6-.6 3.7-1.5 1.3-.4-.7-.6-.6-.6.5-.1.9-.7 1.9-1.3 2.1-.7.3-.2.4 1.2.3 1.4-.1 3.1-.5 3.7-.9.6-.4 1.5-.3 1.8.3.4.6.1.9-.7.8-.8-.2-1.3.6-1.2 2 .1 1.8-.1 2-1.2 1.1-1.7-1.4-1.8-2.3-.2-1.3.7.4.8.3.4-.5-.6-.9-1.1-.9-2.2 0-1.7 1.4-1.9 2.3-.3 1.3.8-.4.9 0 .4 1.5-.4 1.3-.2 2.1.5 2.1.6 0 .8-.4.5-1-.3-.6.1-.7 1-.3 1.2.4 1.3.8.5 1.3-.7.4-.9 1.3-.5 2 .6.9.3.9-1.3.1-3.1-1.6-4-1.3-1.4.5 1.2.8 2.2 2.1 2.2 2.9 0 .8.6 1.2 1.4.9 1.8-.7 3 1.2 1.5 2.2-.8.4-.9.3-.5-.4.9-1.5-.6-1.6-2.1-.1-.8.8-1.3.7-1.8-.2-.6-.8-.4-1 .4-.4 1 .6 1.1.3.2-1.4-1.5-2.7-1.8-2.7-1.6.1.1 1.3-.3 2.7-.9 3.1-.7.6-.4.7.7.3 1.2-.4 1.7 0 1.7 1.6 0 1.8-.2 1.9-1.7.7-1.6-1.3-1.7-1.2-.4.4 1 1.2 1.7 1.5 2.5.7 1.3-1.3 2.6-1.3 2.6.1 0 .5-.5.7-1.1.3-1.4-.8-.8 3.8.6 4.9.6.5.3.7-.7.3-1-.3-2-.1-2.3.4-.6.9.9 1.5 2.9 1.1.5-.1.4.4-.3 1.2-.6.8-1 2.1-.9 2.8.2.7-.3 1.3-1.1 1.4-.8 0-1.6.7-1.8 1.5-.4 1.3-.3 1.3.6 0 .8-1.2 1.1-1.2 1.1-.1 0 1.1.3 1.1 1.7 0 .9-.8 1.4-.9 1-.2-.4.6-.1 1.4.5 1.6 1 .4 1 .6 0 .6-.7.1-1 .6-.6 1.3.4.7.3.8-.4.4s-1.2-.3-1.2.3c0 .5.3 1.1.8 1.4.4.2.1.2-.5.1-1.2-.3-1.8.9-1.4 3 .1.5-.4.6-1.2.3-.7-.3-1.4.1-1.4.8 0 .8.7 1.1 1.6.7 1.3-.5 1.4-.3.4.9-.9 1.1-.8 1.8.2 3.2.8 1.2 1.5 1.4 2 .8.3-.6-.1-1.4-1-1.7-1-.4-1.2-1-.7-1.8.5-.6.8-1.8.7-2.7-.3-1.6 2.8-2 4.2-.4.5.4.2.4-.6 0-1.1-.6-1.3-.4-.8.9.4.9.3 1.4-.2 1.1-1.3-.8-2.4 1.2-1.4 2.7 1.1 1.9 1.3 3.9.2 3.2-1.3-.8-1.1 1 .4 2.5.9 1.1.9 1.3 0 .7-.7-.4-1.3-.2-1.3.3 0 1 1.4 1.5 3.3 1.2.5-.1.6.3.2.9-.4.6-1.7.4-3.7-.6-2.2-1.1-2.8-1.2-2.2-.2 2.1 3.3 1 4.9-1.6 2.5-1.2-1-1.2-.9-.2.4.6.9 1 1.8.7 2-.2.3.4.5 1.5.6 1.3.1 1.8-.4 1.5-1.7-.3-1.3.1-1.7 1.2-1.3 1.1.4 1.2.8.2 1.3-.8.6-.6.9.7 1.3 1.6.4 1.7.5.2.6-1 0-1.8.6-1.8 1.2 0 .5.6.7 1.3.3.9-.6.9-.5 0 .7-1 1.2-1 1.8 0 2.9.7.8.8 1.1.1.7-.7-.4-1.8.1-2.5 1-1.2 1.4-1.2 1.6.2 1.1.9-.3 2.2-.2 3 .4 1.1.8 1.1.9-.3.5-2-.7-4.3 1.7-3.2 3.4.5.8.2 1-.8.7-.8-.4-1.5 0-1.5.7 0 1 .5 1.1 1.9.4 1-.5 1.7-1.5 1.5-2.1-.1-.6.5-1.3 1.3-1.5 1.3-.4 1.3-.3 0 .6-1 .7-1.1 1.1-.2 1.1.6 0 1.2.5 1.2 1.1 0 .5-.4.7-1 .4-.5-.3-1-.2-1 .4 0 .5.6 1.2 1.3 1.4.9.4.9.6-.1.6-.7.1-1 .6-.7 1.1.3.6.1 1-.5 1-.7 0-1-.7-.7-1.4.4-1 .1-1.3-.8-1-2.6 1-.2 4 2.8 3.5.5-.1.6.3.2.9-.3.6-1.2.7-1.8.3-.7-.3-.3.4.8 1.8 1.2 1.4 1.4 1.9.4 1.1-1.4-1-1.8-1-2.3.4-.8 2.1-.8 2.4.5 2.4.5 0 .7-.4.4-1-.3-.6.1-.7 1-.3 1.2.4 1.3.8.5 1.3-.7.4-.9 1.3-.5 2 .6.9.3.9-1.3.1-3.1-1.6-4-1.3-1.4.5 1.2.8 2.2 2.1 2.2 2.9 0 .8.6 1.2 1.4.9 1.8-.7 3 1.2 1.5 2.2-.8.4-.9.3-.5-.4.9-1.5-.6-1.6-2.1-.1-.8.8-1.3.7-1.8-.2-.6-.8-.4-1 .4-.4 1 .6 1.1.3.2-1.4-1.5-2.7-1.8-2.7-1.6.1.1 1.3-.3 2.7-.9 3.1-.7.6-.4.7.7.3 1.2-.4 1.7 0 1.7 1.6 0 1.8-.2 1.9-1.7.7-1.6-1.3-1.7-1.2-.4.4 1 1.2 1.7 1.5 2.5.7 1.3-1.3 2.6-1.3 2.6.1 0 .5-.4.7-1 .4-.5-.3-1-.2-1 .4 0 .5.6 1.2 1.3 1.4.9.4.9.6-.1.6-.7.1-1.1.5-.7 1 .3.5.1 1.2-.4 1.6-.6.3-.8-.3-.6-1.4.4-2.2-1.8-2.3-3.8-.1-1 1.2-.9 1.2.5.2 1.1-.9 1.8-1 2.3-.2.3.5 0 1-.7 1-.8 0-.9.3-.3.8.6.4 1.1 1.4 1.1 2.2.1.8.5 2.4.9 3.5.7 1.6.6 1.8-.6.7-.7-.6-1.8-1.2-2.3-1.2-.6 0-.3.5.7 1.1.9.6 1.5 1.4 1.2 2-.4.5-.2.9.4.9.5 0 1.3-.5 1.6-1 .3-.6 1.2-1 1.8-1 .7 0 .6.4-.3 1-1.4.9-.7 1.4 1.3 1.1.5-.1.6.3.3.8-.4.5-2 .8-3.6.6-1.6-.2-3.2 0-3.5.5-.4.6.1.7 1.1.3 1.2-.5 1.5-.3.9.6-.6 1-.2 1.1 1.6.6 1.7-.4 2-.3 1 .3-.7.5-1 1.5-.6 2.2.6.9.3.9-1.3.1-3.1-1.6-4-1.3-1.4.5 1.2.8 2.2 2.1 2.2 2.9 0 .8.6 1.2 1.4.9 1.8-.7 3 1.2 1.5 2.2-.8.4-.9.3-.5-.4.9-1.5-.6-1.6-2.1-.1-.8.8-1.3.7-1.8-.2-.6-.8-.4-1 .4-.4 1 .6 1.1.3.2-1.4-1.5-2.7-1.8-2.7-1.6.1.1 1.3-.3 2.7-.9 3.1-.7.6-.4.7.6.3 1.3-.4 1.8 0 1.8 1.6 0 1.8-.2 1.9-1.8.7-1.5-1.3-1.6-1.2-.3.4 1 1.2 1.7 1.5 2.5.7 1.3-1.3 2.6-1.3 2.6.1 0 .5-.4.7-1 .4-.5-.3-1 .1-1 .9s.9 1.8 2.1 2.1c1.1.4 1.8.9 1.6 1.2-.3.2-1.9-.3-3.6-1.2-3.1-1.5-3.1-1.5-1.9.4.6 1.1 1.5 1.8 1.9 1.5.4-.2 1.1.1 1.5.7.4.8.3.9-.4.5s-1.2-.3-1.2.3c0 .5.6 1.2 1.3 1.4.9.4.9.6 0 .6-1.7.1-1.7 3.3-.1 5 .8.8.8 1.1.2.8-.7-.4-1.8 0-2.5.9-1.1 1.3-1.1 1.5.2 1.4 2.5-.4 3.9 0 3.9.9 0 .5-1.2.8-2.7.5l-2.8-.4 2.5 1.5c2.9 1.7.9 2-2.3.4-1.2-.7-1.9-.8-1.5-.4.4.5.2 1.5-.5 2.4-1.1 1.4-1 1.4.6.2.9-.8 2.1-1.1 2.4-.7.4.4.1 1.1-.7 1.6-1 .6-1.1 1-.3 1 .7 0 1 .7.7 1.7-.5 1.5-.4 1.5.4.3.6-.8.9-1.7.6-2.1-.2-.4.1-1.1.7-1.5.7-.4.9-.3.5.4-.3.6-.2 1.3.4 1.7.5.3 1 1.2 1 1.8 0 .7-.4.6-1-.3-.8-1.2-1-1.1-1 .7 0 1.7-.4 2.1-1.7 1.7-1.6-.5-1.6-.4 0 .6 1.5 1 1.6 1.4.5 2.8-1 1.2-1 1.4-.1.8.7-.4 1.3-.2 1.3.4 0 .8.6.8 2.3 0 2.1-1.1 2.1-1 .3.4-1 .9-2.2 1.3-2.7 1.1-.4-.3-1.1 0-1.5.6-.4.8-.3.9.4.5 1.2-.7 1.6.5 1.3 3.1-.1.7.3 1.3.9 1.3.6 0 .8-.5.4-1.2s-.3-.8.5-.4c.6.4.9 1.1.6 1.6-.3.4.2 1 1 1.4.8.3 1.5 1.1 1.4 1.8 0 1-.2 1-.6 0-.7-1.9-2.3-1.4-1.6.5.6 1.6.5 1.6-1 .4-1-.8-2-1.1-2.4-.7-.3.3-.1.6.6.6s.9.5.6 1c-.4.6-1.1.7-1.7.4-.7-.4-.8-.2-.4.5.4.6 1.3.8 1.9.4 1.5-.9 6.7-1.1 6.7-.2 0 .4-.9.9-2 1.2-1.1.3-1.8.1-1.4-.4.3-.5-.2-.6-1.1-.2-1.2.4-1.3.8-.5 1.3.6.4 1.1.9 1 1.1-.4 1.1 1.3 3.8 2.1 3.3.5-.3.9 0 .9.5 0 .6-.5 1.1-1 1.1-.6 0 .4 1.5 2.2 3.3 1.8 1.8 3.6 3.1 4 3 .8-.4.2 3.2-.8 5-.4.6.3.3 1.6-.8s2-1.5 1.7-.8c-.4.6 0 1.6 1 2.2 1.4.8 1.5 1 .3 1.1-1.3 0-1.3.1 0 1 .8.5 1 1 .4 1-.7 0-1.4.8-1.6 1.8-.3 1.1 0 1.9.8 1.9.7 0 1.2-.5 1.1-1-.1-.5.5-1.2 1.3-1.4 1.2-.4 1.3-.3.1.5-1.1.8-.7 1.3 1.8 2.6 1.7.9 3.1 1.9 3.1 2.2 0 .2-1.3-.2-3-1.1-1.7-.9-3-1.1-3-.5 0 .5.6 1 1.3 1 .8 0 .7.4-.3 1.1-1.2.8-1 .9.7.4 1.2-.3 2.5-.1 2.9.6.5.8.3 1-.7.4-.8-.5-1.1-.5-.7 0 .4.4.3 1.4-.4 2.2-.6.8-.7 1.3-.2 1.2 2.1-.4 3.5.2 2.9 1.1-.4.6-.1.9.7.8.7-.2 1.2.2 1.1.9-.2.7.4 1 1.2.7.8-.4 1.5-.1 1.5.5s-.5 1.1-1.2 1.1c-.6 0-.9.2-.6.5.3.3 2.1-.1 4-1 3.3-1.3 3.6-1.3 3.4.3 0 .9.5 1.6 1.1 1.5.7-.2 1.2.3 1 1-.1.6.4 1.1 1.1 1 1.7-.4 1.5.2-.5 1.8-1.4 1.2-1.6 1.2-.8 0 .5-1 .4-1.2-.4-.7-.6.4-.9 1.2-.6 1.7.4.5.1.9-.6.9s-1 .3-.7.6c.4.3 1.9-.3 3.4-1.3 1.6-1 2.5-1.2 2.1-.6-.5.7-.4 1.3.2 1.3.6 0 1.1.5 1.1 1.1 0 .8-.4.8-1.4 0-1.1-.9-1.6-.9-2.2 0-.5.8-.3.9.6.4.9-.6 1.2-.4.8.6-.4 1 .1 1.5 1.2 1.5 1 0 1.7-.3 1.5-.6-.2-.4.9-.7 2.5-.7 2.8 0 2.9.3 2.5 3.1-.4 2.3-.3 2.7.5 1.6.5-.8 1-1.1 1-.5 0 .5.8.1 1.7-1l1.6-2-.7 2c-.4 1.1-.8 2.4-.9 2.9-.3 1.2 4.1 1.8 4.8.6.3-.5 0-.7-.8-.4-.8.3-1.8.1-2.2-.5-.4-.7.2-1 1.7-.7 1.3.2 2.2.9 2 1.6-.2.7.3 1 1.1.7.8-.3 1.9-.1 2.4.4.7.7 1.7.4 2.9-.8 1.5-1.5 1.7-1.6 1.2-.1-.9 2.2.2 3 2.1 1.6.9-.7 1.3-.8.8-.3-.4.4 0 2 .9 3.3 1.6 2.4 1.6 2.5-.2 1.8-1.5-.6-1.6-.5-.7.5 1 1 1.5.9 2.8-.1 1.2-1 1.5-1 1.5.1 0 .9.3 1 .8.4.9-1.3 4.6-2 3.8-.7-.3.5.1 1.7.8 2.7 1 1.4 1.5 1.5 2.1.5.6-.9.4-1.1-.5-.5-.9.5-1 .2-.6-1.3.5-1.4.1-2.4-1.1-3.2-1.7-1.1-1.6-1.1.2-.5 1.1.4 2.7.8 3.5 1 .8.2 1.7.4 2 .5.3.1.9.2 1.3.1.5-.1.6.2.3.7-.2.4.3 1.3 1.3 1.9 1.4.9 1.8.8 1.8-.3 0-.7-.4-1.1-.9-.8-.4.3-.5-.2-.2-1 .6-1.6 2.5-2.3 2.3-.9-.4 2.2.3 3.2 1.6 2.7 1.1-.4 1.2-1 .6-1.8-.7-.8-.4-1.2.9-1.2 1.8 0 1.8.2.5 2.3-.9 1.3-1.2 2.3-.8 2.3.5 0 1.4-.9 2.1-2.1 1.3-2 1.4-2 3.3-.3 1.1 1 2.5 1.9 3.2 2 .7.1 1.9.4 2.7.6.8.3 1.2.3.8.1-.4-.2-.4-1.1-.1-1.9.4-1.1.8-1.2 1.3-.5.3.6 1.6 1.3 2.9 1.6 1.2.2 1.9 0 1.6-.6-.4-.5-1-.7-1.5-.4-.5.3-1.4-.5-2-1.7-1.1-2.2-1-2.2.4-.4.9 1.1 1.6 1.7 1.6 1.3 0-.4 1.8.2 4 1.3s4 1.8 4 1.4c0-.4.8 0 1.8.7 1.5 1.3 1.6 1.2.3-.3-1.1-1.5-1.1-1.9.3-2.4 1.1-.4 1.3-1 .7-1.8-.7-.8-.4-1.2.8-1.2 1.1 0 1.7.6 1.4 1.3-.3.8.4 1 2.4.7 1.5-.3 3-.9 3.1-1.5.2-.5.8-.9 1.3-.9s.4.9-.3 2c-.7 1-1.4 1.7-1.7 1.5-.2-.3-1 0-1.8.6-.8.8-1.3.8-1.3.1 0-.6-.7-.9-1.5-.8-1.9.3-2.8 1.2-1.3 1.4 2.3.2 4.3.7 5.6 1.6.8.4 1.1.3 1-.5-.2-.6.3-1.4 1.1-1.7.8-.2 1.1 0 .8.5-.3.5.3.9 1.4.9 1.9 0 1.9-.1.3-1.3-1.7-1.3-1.7-1.4.1-3.1 1.8-1.6 1.8-1.6.6 0-.9 1.1-.9 1.8-.3 1.8.6 0 1.6-.8 2.2-1.7 1-1.6 1.1-1.6.6-.1-.3.9-.2 1.9.2 2.1.4.2.2.2-.5.1-.7-.2-1 .3-.6 1.2.3.8.8 1.2 1.1.9.3-.3 1.3.2 2.3 1.1 1.3 1.2 1.9 1.2 2.5.3.4-.7.3-1-.4-.5-.6.3-1.4.1-1.9-.6-1.2-2.1-1.4-4.8-.2-4.8.5 0 .7.4.4 1-.3.6.1 1 1 1s1.4-.3 1.1-.8c-.3-.6 6.5-.8 11.2-.3 1.7.2 1.5 1.8-.3 1.8-.8 0-1.2-.4-.9-.8.2-.4-.5-.7-1.6-.6-1.1.1-2 .5-2 .9 0 .7 1.5 1 3.6.7.4 0 1.1.5 1.5 1.3.7 1 .9 1 .9-.2 0-1.3.1-1.3 1 0 .7 1 1 1.1 1 .2 0-.8.9-1.1 2.5-.8 1.4.3 2.3.1 2-.5-.9-1.3.2-1.1 3.5.6 1.7.9 3 1.3 3 .9s.8 0 1.8.7c1.5 1.3 1.6 1.2.3-.3-1.1-1.5-1.1-1.9.3-2.4 1.1-.4 1.3-1 .7-1.8-.7-.8-.4-1.2.8-1.2 1 0 1.7.5 1.4 1.2-.2.7.8 1 3.2.9 3.5-.3 4.5 1.3 1.5 2.3-.9.3-1 0-.4-.9.7-1.2.5-1.2-.9 0-1 .7-1.7.9-1.7.3 0-.6-.7-.9-1.5-.8-1.9.3-2.8 1.2-1.3 1.4.7 0 2.4.3 3.7.6 1.4.3 3 .1 3.8-.5.8-.7 1.3-.8 1.3-.1 0 .5 1.1.9 2.4.8 1.3 0 2.2-.4 1.9-.9-.2-.4.1-.7.6-.7.6 0 1.1.5 1.1 1.2 0 .6.3.9.6.5.3-.3.2-1.3-.4-2.3-.6-1.1-1.1-1.3-1.6-.5-.9 1.4-2.6 1.4-2.6 0 0-.5.5-.7 1.2-.3.8.5.9.2.5-1-.5-1.2-.3-1.5.6-.9.6.4 2.8.8 4.7.9 5 .3 5 .3 5 1.3s-3.2.7-5-.4c-.6-.3-1-.1-1 .4 0 1 1.4 1.3 3.6 1 .4 0 1.1.5 1.5 1.3.7 1 .9 1 .9-.2 0-1.3.1-1.3 1 0 .7 1 1 1.1 1 .2 0-.8.9-1.1 2.5-.8 1.4.3 3.1-.2 4-1 .8-.9 1.5-1.1 1.5-.5 0 .6.5 1.1 1 1.1.7 0 .7-.7 0-2.2-1-2.1-1-2.2.4-.5 1.5 2 2.1 2 4.8.6 1.1-.6 1.9-.5 2.4.3.5.7.3.8-.6.3-.8-.5-1.1-.4-.6.3.3.6.2 1.3-.4 1.7-.5.3-1 .2-1-.3s-.7-.9-1.5-.9c-2.5 0-.1 1.7 3.1 2.2 1.6.2 2.3.2 1.6-.1-1.7-.8-.5-2.4 1.3-1.8.8.4 1.3.9 1.1 1.3-.2.3 1.2.6 3.2.7 2.1.1 3.1-.1 2.4-.3-.6-.3-1-.9-.7-1.3.3-.5 1.2-.7 2-.4.8.4 1.2 1.1.9 1.6-.4.6.2.5 1.4-.1 2.4-1.3 3.5-1.4 2.8-.3-.2.4.4.8 1.5.8 1.9 0 1.9-.1.3-1.3-1.7-1.3-1.7-1.4.1-3.1 1.8-1.6 1.8-1.6.6 0-.9 1.1-.9 1.8-.3 1.8.6 0 1.6-.8 2.2-1.8 1-1.5 1.1-1.5.6 0-.3.9-.2 1.9.2 2.1.4.2.2.2-.5.1-.7-.2-1 .3-.6 1.2.3.8.8 1.2 1.1.9.3-.3 1.3.2 2.3 1.1 1.3 1.2 1.9 1.2 2.5.3.4-.7.3-1-.4-.5-.6.3-1.4.1-1.9-.6-1.2-2.1-1.4-4.8-.2-4.8.5 0 .7.4.4 1-.3.5.1 1 1 1s1.4-.3 1.1-.8c-.3-.6 6.5-.8 11.2-.3 1.7.2 1.5 1.8-.3 1.8-.8 0-1.2-.4-.9-.8.2-.4-.5-.7-1.6-.6-1.1.1-2 .5-2 .9 0 .7 1.5 1 3.6.7.4 0 1.1.5 1.5 1.3.7 1 .9 1 .9-.2 0-1.3.1-1.3 1 0 .7 1 1 1.1 1 .2 0-.8.9-1.1 2.5-.8 1.4.3 2.3.1 2-.5-.9-1.3.2-1.1 3.5.6 1.7.9 3 1.3 3 .9s.8 0 1.8.7c1.5 1.3 1.6 1.2.3-.3-1.1-1.5-1.1-1.9.3-2.4 1.1-.4 1.3-1 .7-1.8-.7-.8-.4-1.2.8-1.2 1 0 1.7.5 1.4 1.2-.2.7.8 1 3.2.9 3.5-.3 4.5 1.3 1.5 2.3-.9.3-1 0-.4-.9.7-1.2.5-1.2-.9 0-1 .7-1.7.9-1.7.3 0-.6-.7-.9-1.5-.8-1.9.3-2.8 1.2-1.3 1.4.7 0 2.4.3 3.7.6 1.4.3 3 .1 3.8-.5.8-.7 1.3-.8 1.3-.1 0 .5 1.1.9 2.4.8 1.3 0 2.2-.4 1.9-.9-.2-.4.1-.7.6-.7.6 0 1.1.5 1.1 1.2 0 .6.3.9.6.5.3-.3.2-1.3-.4-2.3-.6-1.1-1.1-1.3-1.6-.5-.9 1.4-2.6 1.4-2.6 0 0-.5.5-.7 1.2-.3.8.5.9.2.5-1-.5-1.2-.3-1.5.6-.9.6.4 2.8.8 4.7.9 5 .3 5 .3 5 1.3s-3.2.7-5-.4c-.6-.3-1-.1-1 .4 0 1 1.4 1.3 3.6 1 .4 0 1.1.5 1.5 1.3.7 1 .9 1 .9-.2 0-1.3.1-1.3 1 0 .7 1 1 1.1 1 .2 0-.8.9-1.1 2.5-.8 1.4.3 3.1-.2 4-1 .8-.9 1.5-1.1 1.5-.5 0 .6.5 1.1 1 1.1.7 0 .7-.7 0-2.2-1-2.1-1-2.2.4-.5 1.8 2.3 1.7 2.3 4.3.9 1.6-.9 2.4-.9 2.9 0 .5.7.3.8-.6.3-.8-.5-1.1-.4-.6.3.3.6.2 1.3-.4 1.7-.5.3-1 .2-1-.3s-.7-.9-1.5-.9c-2.5 0-.1 1.7 3.1 2.2 1.6.2 2.3.2 1.6-.1-1.7-.8-.5-2.4 1.3-1.8.8.4 1.3.9 1.1 1.3-.2.3 1.2.6 3.2.7 2.1.1 3.1-.1 2.4-.3-.6-.3-1-.9-.7-1.3.3-.5 1.2-.7 2-.4.8.4 1.2 1.1.9 1.6-.4.6.2.5 1.4-.1 2.5-1.3 3.5-1.4 2.8-.2-.7 1.1 1.3.9 3.2-.2.7-.5 1.2-.3 1.2.5 0 .9.3.9 1-.2 1.3-2 1.2-3-.1-3-.5 0-.7.6-.3 1.2.4.7.4 1-.1.6-.4-.4-1.4-.3-2.1.3-.8.7-1.4.7-1.9-.1-.3-.5.1-1 1-1 .8 0 1.8-.7 2.1-1.5.5-1.1 1-1.3 1.9-.5.6.5 1.5.7 1.9.3.4-.4.4 0 .1.9-.4.9-.2 1.9.4 2.2.6.4.8 1.4.5 2.4-.5 1.4-.4 1.4.4.2.7-.9.8-1.8.1-2.6-.6-.8-.7-1.4 0-1.8.5-.4 1.3.3 1.6 1.5.4 1.2 1 1.7 1.4 1.2 1.2-1.8 5.4-2.2 8.3-.7 3 1.5 3.9 2.7 1.3 1.8-1.1-.5-1.3-.2-.8 1.2.4 1.2.3 1.5-.6 1-.7-.5-1-1.4-.7-2.2.3-.8 0-1.1-.9-.8-1.1.5-1.2 1-.2 2.5 1.3 2.1 2.3 2.4 3.2.9.9-1.5 2.4-.3 2 1.8-.2.9-.4 2.1-.4 2.5-.1.5-.5.5-1.1.2-.6-.3-.7.1-.4.9.3.9 1.1 1.3 1.8.9s.7-.1-.1.9c-.7.8-1 1.8-.6 2.1.3.4 1.1 0 1.7-.9 1-1.3 1.2-1.3 1.2.5 0 1.1-.4 1.7-.8 1.5-.4-.3-.8.1-.8.8 0 1-.2 1-.9-.1-.5-.8-1.7-1.6-2.5-1.7-.9-.1-1.4.2-1 .7.3.5 1 .7 1.5.4 1.3-.9 1.1 1.9-.3 3.3-.9.9-.8 1.2.6 1.2.9 0 1.5-.4 1.2-.8-.2-.4.5-.9 1.7-.9 1.9-.2 2 0 .7 1-1.5 1.2-2.1 2.8-2.4 6 0 1-.8 2.2-1.6 2.7-.9.6-1.1 1.3-.5 1.7 1.6 1.3 1.6 3.3-.1 3.3-.9 0-1.2-.5-.8-1.2.4-.7.3-.8-.5-.4-1.4.9-.5 2.6 1.5 2.6.8 0 1.4.5 1.4 1.1 0 .5-.4.8-.9.4-.6-.3-.8.4-.6 1.5.2 1.1-.2 2-.8 2-.7 0-.7.4.3.9 1.9 1.3 3.4.3 2-1.4-.7-.9-.8-1.5-.1-1.9.6-.4.8-2.5.6-4.7-.2-2.2 0-3.7.4-3.4 1 .6.9 6.5-.2 8.2-.4.6-.3 1.4.3 1.8.5.3 1 .1 1-.4 0-.6.5-1.1 1-1.1.6 0 .3 1.1-.6 2.5-1.5 2.3-1.3 2.9 1.1 2.6.6-.1.3.4-.5 1.1-1.5 1.3-2.1 2.8-2.4 6.3-.1 1.1-.8 1.9-1.5 1.7-.7-.1-1 .2-.7.7.4.5 0 1.2-.6 1.4-.7.3-.4.6.7.6 1.7.1 1.7.3.5 1.1-.8.5-1 1-.5 1 .6 0 1.1.9 1.2 2 .1 1.3-.2 1.8-.9 1.4-.7-.4-.8-.2-.4.4.4.7.1 1.2-.6 1.2-1 0-1 .2 0 .9.8.4 1.3 1.1 1.3 1.5-.1.3.1.6.4.6h1.1c.4 0 .1-.6-.5-1.4-.8-.9-.8-1.6-.2-2 .6-.4.8-2.5.6-4.7-.2-2.2 0-3.7.4-3.4 1 .6.9 6.5-.2 8.2-.4.6-.3 1.4.3 1.8.5.3 1 .1 1-.4 0-.6.5-1.1 1.1-1.1.6 0 .4.9-.5 2.2-1.1 1.6-1.3 2.5-.4 3.5.6.7.6 1.3.1 1.3s-1 .6-1.1 1.2c-.1.7-.3 2.3-.4 3.6-.2 1.2-1 2.7-1.8 3.2-.9.6-1.1 1.3-.5 1.7 1.6 1.3 1.6 3.3-.1 3.3-.9 0-1.2-.5-.8-1.2.4-.7.3-.8-.5-.4-1.5 1-.4 2.6 1.7 2.6 1.5 0 1.5.2.2 1-1 .6-1.1 1-.2 1 .6 0 1.2.9 1.2 2s-.6 1.8-1.2 1.6c-.7-.1-1-.1-.5.1.4.3.5.9.1 1.4-.3.5 0 .9.6.9 1.1 0 .9 4.4-.3 5.6-1.2 1.2-.8 2.6.6 2.2.6-.3 1.2-1.4 1.2-2.6 0-1.2.3-2.2.8-2.2.6 0 .9.4.6 1.2 0 .2-.2 1.6-.4 3.1-.3 2.3-.1 2.6 1 1.7 1-.8 1.5-.8 2.1.1.4.7.3.9-.4.5-.6-.3-1.4-.2-1.7.4-.5.8-1.2.7-2.2-.2-1.4-1.1-1.4-.8.1 2 1.7 3.4 3.3 4.4 2.1 1.4-.5-1.3-.3-1.4.6-.5 1.2 1.2.3 3.7-1.1 2.8-.5-.3-1.2 0-1.6.6-.4.7-.3.9.4.5s1 .1.9 1.4c-.1 1.1-.5 2-.9 2s-.8.5-.8 1.1c0 .5.4.8.9.5.5-.3 1.4.1 2 .8.8.9.8 1.7.2 2-.5.3-1.2 0-1.4-.6-.3-.8-.6-.6-.6.4-.1 1.7.8 2.2 2.7 1.5.4-.1.6-1 .6-2-.1-.9.3-1.7.8-1.7.6 0 .8.6.5 1.4-.7 1.7 1.6 3.9 2.8 2.8.5-.4.5-.1.1.6-.6 1-1.1 1-2.2.1-.9-.7-1.4-.8-1.4-.1 0 .6.5 1.4 1 1.7.6.4.8 1.1.5 1.6-.4.5-.2.9.2.9.5 0 1.8.7 2.9 1.6 1 .8 1.3 1.3.7.9-.7-.3-2.1-.1-3 .5-1.6 1.1-1.6 1.1-.1.6 1-.3 2-.1 2.4.5.4.6 1.2.5 2.2-.3 1.5-1.1 1.5-1.1.5.3-.9 1.1-1 1.8-.1 2.7.8.8.6 1-.8.7-1.1-.1-1.8-.7-1.7-1.3.2-.6-.6-1-1.6-.9-1 0-1.8.7-1.8 1.4 0 .6.4 1 .8.7.5-.3 1.9.2 3.2 1.1 1.3.8 2.7 1.2 3.2.8.4-.5.5-.2.1.5s-1.2.9-1.8.6c-.6-.4-.6.1.1 1.4.6 1.1.8 2.2.3 2.5-.4.2-.2.3.4.1.7-.1 2.1.4 3.2 1.1 1 .8 2.3 1.1 2.7.7.3-.4.6-.3.4.3-.4 1.8 1.3 4.5 2.4 3.8.6-.4.7-.1.2.6-.5.9-1.6.3-3.7-2.1-1.7-1.8-2.5-2.6-1.9-1.7.6.9.7 2 .3 2.4-.4.5-.1.4.7 0 1-.6 1.3-.4.9.7-.4.8-.2 2.1.3 2.9.7 1.1.9 1.1.9.1 0-.7.5-1 1-.7.6.4 1.9.1 2.8-.6 1.5-1.2 1.5-1.2-.1.7-1.7 2-1.4 3.4.7 3.4.6 0 .5-.4-.2-.9-1.1-.7-1-.9.3-1.4.9-.4 1.4-.3 1.1.2-.7 1.1 2.2 2.3 3.6 1.4.7-.4.8-.1.4.6-.5.7-1.3 1-2 .8-.6-.2-2-.1-3.1.4-1.8.7-1.8.8-.2.8 1 .1 1.6.5 1.3.9-.2.4 0 1.4.5 2.2.8 1.2.9 1.1.7-.4-.2-1 .2-2.1.9-2.3.8-.3 1 .5.7 2.4-.3 1.5-.4 2.5-.2 2.3.2-.3 1-1.4 1.8-2.4.9-1.2 1-1.7.3-1.2-.9.5-1.1.2-.6-1 .5-1.4.7-1.5 1.5-.1.5 1 1.6 1.4 2.6 1.1 1.4-.5 1.5-.4.2.5-1.4 1-.7 1.5 1.3 1.2.4-.1.3.8-.3 1.9-1.3 2.5.5 2.8 1.9.2.8-1.3.9-.7.6 2.3-.3 2.7-.2 3.5.4 2.5.5-.8.7-1.8.4-2.4-.4-.5-.1-.6.7-.1.9.6 1.2.4.8-.7-.4-.8-.1-1.5.7-1.5.8 0 1.1.7.7 1.5-.4 1.1-.2 1.3.9.7 1.2-.8 1.2-.6 0 .8-.7.9-1.7 1.4-2.2 1.1-.5-.3-.9 0-.9.5 0 1.4.6 1.4 3 .1 1.3-.7 2.1-.7 2.5 0 .5.8 1.1.7 2.1-.1 1.2-1 1.3-.9.8.6-.5 1.3-.4 1.6.4 1.1.7-.4 1.2-.2 1.2.6 0 .9.3.9 1-.2.5-.8 1-1 1-.4 0 2-1.3 2.3-4 .9-1.5-.8-3.1-1.1-3.5-.7-.5.4-.5.1-.1-.6 1-1.8.1-1.5-1.5.5-1.2 1.4-1.2 1.6 0 .8 1.1-.6 1.3-.4.8 1.1-.6 1.7-.6 1.7.5.3.7-.9 1.9-1.4 2.6-1.1 1 .3 1 .7 0 2-1.1 1.4-1.1 1.4.7.5 2.3-1.3 6 .2 4.9 1.9-.4.7-.2.8.5.4.9-.6.9-1.1.1-2.1-.7-.9-.6-1.6.7-2.6 1.7-1.3 1.7-1.3.3.5-1.3 1.7-1.3 1.8.5 1.4 1.1-.2 1.9-1 1.8-1.6-.4-1.8 1.4-1.4 2.1.4.4.9.2 2.2-.4 2.9-.8 1-.8 1.5.1 2.1.8.5.9.3.4-.6-.5-.9-.2-1 1.3-.6 1.1.4 2.3.2 2.7-.3.3-.7 0-.8-.9-.5-1 .4-1.6.1-1.6-.7 0-.7.3-.9.7-.6.3.4 1.3.1 2.1-.6 1.3-1 1.4-.9.8.1-.8 1.4 3.1 3.3 5.2 2.5.6-.3 1.2-.1 1.2.4 0 1.2-4 1.1-6-.2-1.2-.7-1.3-.6-.3.7.7.8 1.1 1.7.8 1.9-.2.3 1.1.5 3 .5 1.8 0 3.1-.4 2.9-.8-.6-.9 2.1-.5 4.9.7 1.1.5 1.6 1.4 1.2 2.4-.5 1.3-.4 1.4.7.3 1.1-1.1.9-1.7-1.1-3.3-1.2-1-2.8-1.6-3.4-1.2-.6.3-.7.1-.3-.6.4-.6 1.1-.9 1.6-.6.4.3 1.1-.1 1.3-.7.3-.8.6-.6.6.4.1 1 .6 1.8 1.2 1.8.5 0 .8-.4.5-.9-.7-1.1 1.3-.9 3.2.2.7.5 1.2.4 1.2-.3 0-.6 1.1-.8 2.5-.6 1.4.3 2.5 0 2.5-.5s1-.1 2.2 1c1.6 1.6 2.5 1.8 3.5 1 .9-.8 1.4-.7 1.9.4.5 1.3.8 1.3 2.6-.5 1.1-1.1 1.8-2.2 1.5-2.4-.3-.3-1.2.2-2 1.1-1 1-1.8 1.2-2.2.5-.5-.8-1.1-.7-2.1.1-1 .8-1.4.8-1.4 0 0-.6.3-1.1.8-1.2.4 0 1.7-.2 2.9-.3 1.3-.2 2.6-.6 2.9-.9.4-.4 2.1.3 3.8 1.5 2.3 1.7 2.7 1.8 1.7.5-1.3-1.6-1.2-1.9.7-2.4 1.2-.3 2-.8 1.8-1.2-.3-.4 0-1.3.5-2.1.6-1.1.8-.4.5 2-.4 3.4-.4 3.4.7.7 1.2-2.9 2.2-3.4 3.3-1.5.5.7.3.8-.6.3-.8-.5-1.1-.4-.6.3.3.5 0 1.2-.6 1.5-.9.3-.7 1 .6 2.3 1.2 1.1 1.5 1.2.8.3-1-1.3-.9-1.9.4-3 .9-.7 2.3-1.4 3.2-1.5.8-.2 1.8-.8 2.2-1.4.4-.7 1-1.1 1.4-1.1 1.8.3 2.6 0 2.6-.7 0-.5-.7-.9-1.5-.9s-1.1.5-.8 1.1c.3.6.3.8-.2.4-.4-.4-1.4-.3-2.2.3-.7.6-1.3.8-1.3.4s-.6-.3-1.3.3c-1 .8-1.3.6-1.4-1.1-.1-1.2.1-1.7.5-1.2 1.2 1.7 3.5 1.7 2.9.1-.4-.9-.1-1.8.5-2.2.7-.4.8-.3.4.5-.6.8.2 1 2.6.6 1.8-.4 3.6-1.2 4-1.8 2.6-4.2 2.7-4.2 4-2.8 1.1 1.1 1.1 1.3-.1.6-1-.6-1.2-.4-.7.4.4.7.2 1-.4.9-.7-.2-1.4.5-1.5 1.5-.3 1.7-.2 1.7 1.4.3 1-.9 2-1.4 2.2-1.1.3.2.5-1.1.6-3 0-2.3-.3-3.3-1.1-2.8-.6.3-.8.2-.3-.2 1.1-1.3 4.7-1.7 4.7-.5 0 .5-.8 1.4-1.7 1.9-1.7 1-1.7 1 0 1.1.9 0 1.7-.4 1.7-1 0-.5.5-.9 1.1-.7.6.1 1.3-.9 1.5-2.3.3-1.9.2-2.2-.6-1-.5.8-1 1-1 .4 0-1.4 3.1-4 4.8-4 .7.1 1.7.8 2.3 1.6.9 1.2 1 1.2.5-.3-.3-1-.6-2.3-.6-2.8 0-.4-.8-.6-1.7-.3-1.7.5-1.7.5 0-.6.9-.6 1.5-1.5 1.2-2.1-.4-.5-.2-.9.3-.9.6 0 1.3.7 1.6 1.6.4 1 .2 1.3-.7.8-.9-.5-.8-.3.1.7 1.1 1.2 1.4 1.2 2.2-.1 1.3-2.1 1.2-3.9-.1-2-.8 1.2-.9 1-.4-.8.4-1.3.2-2.2-.4-2.2-.6 0-1.1-.4-1.1-.8s1.1-.8 2.4-.8c1.4 0 2.2.4 2 .8-.3.5-1.1.5-1.7.2-.7-.4-.9-.3-.4.1.4.5 1.6.9 2.6 1 1.6.1 1.7-.2.9-2.1-.6-1.3-1.5-2.1-1.9-1.8-.5.3-.6-.2-.3-1.1.6-1.4.8-1.4 2 .2 1.1 1.5 1.3 1.5 1.4.3 0-.9-.6-2.2-1.2-2.9-.9-1-.9-1.2-.1-.7.6.3 1.4.2 1.8-.4.3-.5 0-1-.7-1-.8 0-.6-.5.5-1.1.9-.6 1.5-1.4 1.3-1.8-.3-.4.1-.8.9-.8 1.9 0 1.9.2-.2 2.3-1.6 1.6-1.6 1.7-.1 1.2.9-.4 1.9-.2 2.2.5.3.7.5.6.5-.3-.2-3 .1-4.1 1-3.5.6.3 1.5-.5 2.1-1.7.9-1.9.9-2.1-.2-.8-2 2.3-3.8 2.3-3.5 0 .2-1.1.7-2.3 1.2-2.7.4-.5.5-.2.1.4-.4.7-.2 1.3.3 1.3.6 0 1.1-.8 1.1-1.8s.5-2.3 1.2-3c.9-.9.8-1.5-.8-2.8-1-.8-1.3-1.2-.5-.8 1.1.5 1.3.3.8-.9-.3-.9-.1-1.9.5-2.3.7-.5.5-1.2-.8-2.1-1.7-1.3-1.6-1.4 1.4-.8 1.9.3 3.2.1 3.2-.5s-.5-.8-1.2-.4c-.8.5-.9.2-.5-.9.3-1 .2-1.7-.2-1.7-.5 0-1.1.6-1.4 1.2-.2.7-.3-.3-.3-2.4.1-2 .4-3.4.9-3.1.4.2.6-.7.3-2.1-.3-1.4 0-2.8.5-3.1.5-.4.9-1.1.9-1.7 0-.6-.7-.5-1.7.3-1 .7-1.5.9-1.1.5.4-.5.4-1.4-.1-2-.5-.6-.5-2 0-3.1l.9-2-.3 2c-.1 1.1.2 2.1.8 2.3 1.1.3 1.6-2.9.6-4.3-1.1-1.3-1-4.6 0-3.9.5.2.6 1.2.3 2.2-.5 1.4-.4 1.4.4.3.9-1.3 1.3-1.3 2.9-.1 1.7 1.4 1.7 1.3.2-.5-1.8-2.4-1.8-5.1 0-4.7.9.2.8-.4-.3-2-1.5-2.1-1.5-2.4.6-4.1 2.2-1.7 2.2-1.8.2-.8-1.7.8-2.5.7-3.4-.4-1-1.2-.8-1.3.9-1 1.2.2 1.9 0 1.6-.6-.4-.5-1.3-.9-2.1-.9s-1.3-.4-.9-.9c.3-.5.1-1.3-.5-1.6-.8-.5-.7-1.1.1-2.1.9-1.1.8-1.4-.4-1.4-.9 0-1.9-.4-2.2-1-.4-.6.1-.7 1.1-.3 1.3.5 1.5.3.9-.7-.5-.9-.4-1.1.3-.6.7.4 1.2.2 1.2-.3 0-.6-.5-1.1-1.2-1.1-.6 0 .2-1.1 1.8-2.5 2.1-1.9 2.3-2.4.9-1.9-1.8.7-1.8.6-.6-.9.7-.9 1-1.7.5-1.7-.4 0 .1-.7 1.2-1.5 1.4-1.1 1.5-1.4.2-.9-1.2.4-1.6.1-1.3-1.3.1-1 .8-1.7 1.5-1.5.6.1.9-.2.5-.8-.4-.7-1.2-.7-2.5 0-2.6 1.4-2.7 1.3-2.7-1.6 0-1.7.2-2.2.8-1.3.4.7.5 1.8.2 2.4-.3.5 0 .5.6-.1 1.6-1.5-.4-5.8-2.1-4.8-.7.5-.8.2-.4-.5.6-.9 1.3-.8 2.8.6 2.1 1.8 2.1 1.8.6-1.2-.8-1.7-1.3-3.8-1.1-4.7.4-1.5.8-1.6 2.6-.7 2 .9 2.1.9.4-.4-1-.8-2.6-1.4-3.5-1.2-.9.1-1.1 0-.4-.2.7-.3.9-.9.6-1.5-.4-.6-.2-.8.4-.4.6.3 1.3.2 1.7-.4.3-.5-.1-1-1-1-1.2 0-1.4-.7-1-3.1.3-1.7.2-2.8-.3-2.5-.4.2-.8-.8-.7-2.4 0-1.5.4-2.6.9-2.3.5.3.7 0 .4-.8-.3-.8-1-1.4-1.5-1.4-.6 0-1.4-.3-1.8-.7-1.3-1.3 2.3-.2 4.1 1.2 1.6 1.3 1.5.9-.3-2.2-1.4-2.3-1.8-4-1.2-4.4.6-.4.4-1.5-.6-3-.8-1.3-1.2-2.4-.8-2.3 1.9.3 3.4-.2 2.9-.9-.2-.4-.1-1.4.3-2.1.6-1 1-.9 1.4.4.4.9.3 1.4-.1 1.1-.9-.5-1-.2-1.6 5.6-.3 3.9 1.5 7 2.9 4.8.4-.6.3-1-.2-.9-2 .3-2.5-.2-1.4-1.5.8-1 .9-1.6.1-2.1-1.4-.9-1.3-2.5.3-2.1.6.1.9.1.5-.1-1.6-.9-.7-2.2 1-1.7 1 .4 1.3.2.7-.3-.6-.4-1-1.5-1-2.3.1-.8-.4-2.2-.9-3-.9-1.3-.9-1.3.6-.2 1 .8 1.9.9 2.2.3.3-.5 0-1.2-.6-1.4-.7-.3-.8-.6-.3-.6 1.8-.1 3.8 1.7 3.1 2.8-.4.6-1.2.9-1.7.6-.5-.4-.9-.2-.9.4 0 1 5.5.9 6.6-.2 1.1-1 2.6-.9 2 .2-.7 1.1 1.3.9 3.2-.2.7-.5 1.2-.3 1.2.5 0 1 .2 1 .9 0 .4-.8 1.1-1.3 1.5-1.3 2.2.3 2.7-.1 2.1-1.9-.4-1.2-.2-2 .5-2 .6 0 .9.3.6.8-.2.4.2 1.8 1 3.2.7 1.4 1.3 1.9 1.4 1.2 0-.7.9-1.1 2.3-.8 1.3.2 3 0 3.8-.4.8-.6 2-.3 3.1.7 1.3 1.2 2.1 1.3 3.1.5 1-.9 1.7-.8 2.8.1.7.6.3 0-1-1.5-1.4-1.6-2.1-3.1-1.8-3.5.4-.3.7-.1.7.5 0 1.4 4.9 1.3 6.8-.1.6-.5 1.2-.6 1.2-.1 0 .4.6 0 1.3-1 1.2-1.6 1.3-1.6 1.3.2 0 1.4-.6 1.9-1.8 1.7-1.2-.3-1.5.1-1.1 1.2.4 1.1.8 1.1 1.3.3.6-.9.9-.9 1.3.1s.6 1 .6.1c.2-2.3.4-2.7 2.3-4.1 1.5-1 2.3-1 3.1-.2 1 1-.1 1.6-2.5 1.2-1.2-.2-1 1.7.2 2.4.6.3 1 .1 1-.4 0-1.9 2-1.2 2.1.6 0 1.5.2 1.5.9-.2.5-1.1.9-1.6.9-1.1.1.5.8.3 1.6-.4.8-.6 1.8-.9 2.3-.6.6.3 1.5-.1 2.2-.9 1-1.2 1.6-1.3 2.9-.3 1.4 1.1 1.4 1.1.5-.2-1.3-1.9-1.2-4 .1-3.9.6 0 .9.6.7 1.4-.1.7.2 1.6.8 2 .6.4.7-.1.3-1.1-.5-1.4-.3-1.5 1.6-.4 1.3.6 2.5.9 2.8.7.2-.3-.4-.8-1.5-1.1-1.8-.6-4.8-5.4-3.8-6.3.2-.2.7.5 1.1 1.6.3 1.2 1.2 2.1 2 2.1.7 0 1.6.6 1.9 1.2.4.7.4-.2.1-2-.4-2.7-.2-3 .9-2 .8.7 1.1 1.7.8 2.3-.2.5.1.5.8-.2.7-.6 1.9-.9 2.6-.6.8.3 1.4-.1 1.4-1.1 0-.9-.5-1.6-1.1-1.6-.5 0-.8.4-.5.9.7 1.1-2.1.8-3.1-.4-.4-.4-.2-.5.5-.1s1.5.1 1.8-.8c.9-2.2 2.1-2 2.9.5l.7 2.1 1.5-2.2c.8-1.2 2.1-1.9 2.9-1.6.7.3 1.6 0 2-.6.4-.6.3-.8-.3-.5-1.7 1.1-2.2-1.7-.7-3.8 1-1.4 1.4-1.5 1.4-.4.1.8.6.5 1.3-.9.7-1.2 1.7-1.9 2.2-1.5.4.4.5-.1.1-1.1-.5-1.5-.4-1.7.7-.8.8.7 1.7.9 2.1.5.4-.4.4 0 0 1-.3.9-.9 1.5-1.3 1.3-1.1-.7-3.6 1.2-2.7 2.1.5.4 1.1.2 1.3-.5.3-.6.9-1 1.4-.6.5.3 1.2-.2 1.5-1 .3-.9 1-1.3 1.5-1 .5.3.6-.3.2-1.3-.6-1.6-.4-1.6 1.8.2l2.4 2-1.8-2.2c-1.1-1.2-2.6-1.9-3.5-1.7-1.4.5-1.3.3.1-.6 1.3-.9 2.2-.9 3.2 0 1 .8 1.5.8 2.1-.1.4-.7.3-.9-.3-.6-.6.4-1.4 0-1.7-.9-.3-.8-.2-1.2.4-.9.6.3 1 .2 1-.4 0-.5-.6-1.1-1.2-1.4-.7-.2.1-.4 1.7-.3 1.7 0 3.4.5 3.8 1.1.5.6.7.3.4-.7-.3-.9-.1-1.9.6-2.2.9-.3.9-.5 0-.5-1.6-.1-3.8-4.1-2.3-4.1.5 0 1 .6 1 1.3 0 .7 1.2 1.3 2.8 1.4 1.5 0 1.9-.1.9-.4-.9-.2-1.5-.8-1.2-1.3.3-.5 1.3-.7 2.3-.4 1.5.5 1.5.5-.1-.6-.9-.6-2.3-.8-3-.5-.6.4-.4 0 .5-.8 1-.8 1.5-1.7 1.1-2-.3-.4-.1-.7.6-.7s.9-.5.5-1.2-.3-.8.4-.4c.8.5.9 1.3.3 2.5-.7 1.3-.6 1.8.4 1.8.7 0 1.1-.6.8-1.3-.2-.7.5-1.5 1.8-1.9 1.2-.4 1.8-1 1.2-1.4-1.8-1.2 0-8.3 2-8 2.5.3 3.8-.1 3.2-1-.3-.6.3-2.4 1.4-4.2 1.1-1.8 1.7-3.7 1.4-4.2-.4-.6.1-.8 1.2-.3 1.5.5 1.6.4.5-.9-1.8-2.1-3-1.9-2.5.5.3 1.3 0 1.8-.7 1.4-.7-.4-.8-.3-.4.4.4.6.2 2.1-.4 3.2-.8 1.6-1.5 1.8-2.9 1-1-.5-2.2-.6-2.6-.2-.5.4-.5.1-.1-.6.5-.9 1.2-.9 2.7-.2 1.9 1.1 2.5 0 2-3.8-.1-.6.3-1.2.9-1.2.5 0 .9-.3.9-.8-.1-.4 0-1 .1-1.5.1-.4.4-1.2.5-1.7.1-.6.4-1.2.5-1.5.1-.3.3-1 .4-1.7 0-.6.8-1.3 1.6-1.5 1-.3 1.1-.2.4.4-.6.4-1 1.6-.8 2.6.1.9-.2 1.5-.7 1.1-.5-.3-.9-.3-.9 0s.9 1 2.1 1.6c1.8 1 1.9 1 1-.7-.5-1.1-.6-2.5-.1-3.3.5-.8.5-2.1 0-3.1-.5-.9-.6-1.9-.3-2.3.3-.3.1-.6-.5-.6-.7 0-1.1-1.1-1-2.4.1-1.4.6-2.2 1-2 .4.3.8-.4.8-1.5 0-2.3 1.5-2.8 2.6-.9.4.7.3.8-.4.4s-1.2-.2-1.2.3c0 .6.7 1.1 1.5 1.1 1.8 0 1.3-4.6-.6-6.4-.9-.8-1.1-.7-.7.4.4 1-.1 1.6-1.2 1.7-1.7.2-1.8 0-.2-1.8.9-1 2.2-1.9 2.9-1.9 1.9 0 1.6-1-.9-3.8-1.3-1.4-1.8-2.2-1.1-1.8.8.4 1.1-.1 1-1.4-.1-1.1-.6-2-1.2-2-.5 0-.4-.4.3-.9.8-.4 1.3-1.1 1.3-1.5-.3-2 0-2.6 1.1-2 .7.5.8.3.3-.7-1.1-1.7-1.6-6.1-.6-5.5.3.3.7-.4.7-1.4 0-1-.3-1.7-.7-1.5-.3.3-1.1-.7-1.8-2.1-1.5-3.4-1.4-3.9.7-2.3 1.5 1.3 1.6 1.2.4-.2-.7-1-2.1-1.5-3.1-1.2-1 .3-2.2-.1-2.6-.7-.5-.8-.2-1 1.1-.6 1.1.3 2.6.1 3.4-.5 1.3-1 1.3-1 0-.6-1.8.6-5.7-1.9-4.7-3 .4-.3 1.3.1 2 1 .9 1.3 1.6 1.4 2.7.6 1.3-.9 1.2-1-.2-.5-1 .3-1.8.1-1.8-.4 0-.6.5-1 1-1 .6 0 1-.5 1-1.1 0-.5-.4-.8-.9-.4-.5.3-1.3 0-1.7-.6-.3-.6-.1-1.5.6-1.9.8-.5.7-.9-.5-1.4-1.1-.4-1.5-1.2-1.1-2.2.5-1.3.3-1.4-.7-.6-1 .9-1.3.4-1.2-2.1 0-1.8.4-3.7.8-4.4.5-.8-.2-.7-2 .2-3.3 1.8-4.3 1.9-4.3.4 0-.5.5-.7 1.1-.3.7.4 1 .1.7-.7-.3-.8-.1-2.2.3-3.1.6-1 .5-1.9-.1-2.3-.6-.4-1-.3-.9.2.4 1.4-1.3 4.3-2.4 4.3-.7 0-.7-.4.1-1.2 1.6-1.6 1.5-4.4-.2-7.1-.7-1.2-1.3-3.3-1.1-4.6.2-2.2.1-2.3-1.1-.6-1 1.4-1.1 2.2-.3 3.2.6.7.8 1.3.3 1.3-.4 0 0 .6 1 1.3 1.1.8 1.6 2 1.3 2.8-.4 1.1-.6 1-.6-.2-.1-.9-.8-2-1.7-2.3-.8-.3-1.2-1-.9-1.6.3-.5.1-1-.4-1-1.2 0-1-2.7.2-4.8.5-.7.4-1.2-.2-1.2-1 0-1.5 1.4-1.2 3.3.1.4-.8.2-1.9-.5-1.1-.7-2-1.8-2-2.4 0-.7-.7-1.4-1.5-1.8-.8-.3-1.4-1.1-1.3-1.8.2-.8-.5-1.2-1.7-1-2 .4-2 .3 0-1.1 1.5-1.2 1.7-1.8.7-2.9-.9-1.1-.9-1.7.1-2.8.6-.7 0-.5-1.4.6-1.6 1.1-2.4 2.5-2.1 3.4.5 1.3.4 1.3-1 0-.9-.8-1.2-1.6-.8-1.8.5-.2.6-1.1.3-2-.4-1.5-.3-1.5.6-.2.7.9 1.1 1 1.1.3 0-.6-.5-1.5-1.2-1.9-.7-.5-.5-1.1.7-2.1 1.1-.7 1.4-1.3.8-1.3-.7 0-1.5.4-1.8 1-.3.5-1.5 1.5-2.7 2.1-1.5.8-1.9.8-1.4 0 .4-.6.2-1.1-.3-1.1-.6 0-1.1.4-1.1 1 0 .5-.5 1-1.1 1-.8 0-.9-.4 0-1.3.6-.8.8-1.7.4-2-.3-.4-1.2.1-2 1.1-1.3 1.5-1.3 1.5-.3-.5 1-2.2 1.2-2.2 3.4-.7 1.8 1.1 2.6 1.2 3.2.3.5-.8.3-.9-.6-.4-1 .6-1.2.4-.6-1 .5-1.5.4-1.6-.9-.5-1.4 1.1-1.9.7-1.6-1.2 0-.4-.6-.5-1.4-.2-2 .8-1.9-.6.3-2.3 1.5-1.3 1.5-1.3-.6-.3-1.4.7-2.1 1.7-1.8 2.5.3.8 0 1.7-.6 2.1-.7.4-.8.3-.4-.4s.3-1.2-.2-1.2-.9-1.1-.9-2.5c0-1.5.4-2.2 1.1-1.8.6.3.8.2.3-.2-.4-.5-1.7-1-2.8-1.2-1.9-.3-2-.2-.3 1.4 1.3 1.4 1.4 1.8.3 2.1-.8.3-2.3 1.2-3.4 2.1-1.5 1.2-1.4 1 .3-1 2-2.3 2.1-2.7.7-3.3-.9-.3-1.3-.2-1 .4.3.6.1 1-.4 1-1.4 0-1.4-2.7-.1-3.2.6-.2-.4-1.1-2.2-2.1-1.8-1-2.6-1.2-1.8-.5s1.6 2.2 1.8 3.3c.2 1.6.1 1.7-.7.5-.6-.8-1.1-1.1-1.1-.6 0 .5-.6.3-1.3-.3-.8-.6-1.8-.7-2.2-.3-.5.4-.5.1-.1-.6s1.3-.9 1.9-.5c.8.5.8.2 0-.9-.7-.8-.9-1.9-.5-2.3.4-.5.1-.5-.6-.1s-.9 1.2-.6 1.8c.4.6.1.9-.6.6-.7-.2-1.4-1.2-1.6-2.3-.1-1-1-2.5-2-3.4-1.5-1.4-1.5-1.3.1 1.1 1.2 2 1.4 2.8.5 2.8-.7 0-1.9.8-2.7 1.7-1.1 1.4-1.1 1.1.1-.9 1.3-2.3 1.4-2.8 0-3.9-.8-.6-1.7-.9-2.1-.5-.3.3-1.7-.1-3-.9-2.3-1.5-2.3-1.5-1.1.4.7 1.1 1.4 1.8 1.7 1.6.2-.3 1.1.1 1.9.8 1.3.9 1.4.9.8-.1-.4-.6-.3-1.2.3-1.2 1.4 0 2.5 2 1.2 2.1-.6.1-1.7.2-2.3.3-.7.1-1.2.8-1 1.5.1.7-.2 1-.8.6-.6-.3-.8-1-.5-1.5.9-1.5-1.7-2.3-2.7-.9-.7 1-.7.7-.3-.8.5-1.8.1-2.5-2-3.3-1.4-.5-2.4-1.4-2.1-1.8.3-.5 0-.9-.7-.9s-1.3.8-1.3 1.8c0 .9.6 1.5 1.2 1.2.7-.2 1.5.1 1.9.6.3.6 1.2.8 1.8.4.7-.4.6 0-.2 1-1.4 1.8-2.6 2.3-1.6.8.3-.5 0-1.3-.6-1.7-.6-.3-1.4-.2-1.8.4-.4.7-1.1.4-2-.9-.9-1.6-.9-1.9 0-1.4.8.5 1 .4.5-.4-.4-.6-1.1-.9-1.6-.6-.4.3-1.1-.2-1.4-1.1-.5-1.2-1-1.3-1.9-.5-.9.7-1.7.7-2.4 0s-1.2-.6-1.6.5c-.4 1-.1 1.3.9.9.7-.3 1.4 0 1.4.7 0 .6-.4.8-1 .5-.5-.3-1 0-1 .7 0 .8-.5.6-1.1-.5-.6-1-.8-2.4-.6-3.1.3-.7-.1-1.3-.9-1.3s-1.2.6-.9 1.4c1.7 4.1 1.6 4.5-.4 2.1-2.3-2.9-5-3-7.7-.3-1.6 1.6-3.4 1.2-3.4-.8 0-.8.3-.8.9.2.6.9 1.1 1 1.5.2.4-.6.2-1.1-.4-1.1-.6 0-.9-.4-.6-.8.2-.4-.3-.8-1.3-.8-1.3 0-1.6.6-1.3 2.3.2 1.3-.1 2.3-.7 2.3s-.8-.8-.4-1.8c.3-.9.3-1.4-.2-1-.4.4-1.5.3-2.4-.2-1-.5-2.3-.5-3.1 0-1 .6-2.4.4-4-.7-1.4-.9-2.2-1.3-1.9-.9.4.4-.4 1.8-1.8 3.2-2.5 2.5-4.3 3.3-2.4 1.1.6-.8.7-1.8.3-2.2-.4-.5-.1-.5.7 0 .9.5 1.2.4.8-.3-.4-.5-1.5-.9-2.5-.8-.9.2-2.1-.2-2.5-.8-.6-.7-.7-.6-.4.4.2.8 1 1.4 1.6 1.3.6-.2 1.1.2 1.1.7 0 1.3-1.7 1.3-2.5-.1-.4-.6-1.4-.8-2.2-.5-.8.3-1.1.2-.8-.3.3-.5.1-1.3-.5-1.6-.6-.4-.8-1.6-.4-2.8.6-1.8.4-2-.7-1-1.2 1-1.4.7-1.3-1.5 0-1.5-.4-3.1-1-3.5-.7-.6-.4-.7.6-.3 2.1.6 3.4-1.2 1.9-2.7-.8-.8-1.1-.8-1.1.2 0 1.9-3.3.9-3.6-1.2-.1-.9.2-1.7.8-1.7.6 0 .8.7.4 1.5-.3.8-.1 1.5.4 1.5 1.5 0 2.2-2 1.1-3.4-.7-.9-.7-1.6.1-2.4.9-.9.8-1.2-.4-1.2-.9 0-2-.4-2.3-1-.4-.6.1-.7 1.1-.3 1.3.5 1.5.3.9-.7-.5-.9-.4-1.1.3-.6.7.4 1.2.2 1.2-.3 0-.6-.5-1.1-1.2-1.1-.6 0 .2-1.1 1.8-2.5 2.1-1.9 2.3-2.4.9-1.9-1.8.7-1.9.6-.6-1 .8-.9 2.1-1.4 3-1.1 1.3.5 1.3.4.4-.6-.9-.9-1.5-.9-2.7 0-1.1.9-1.5.9-2-.1-.3-.7-.3-.1-.1 1.4.2 1.5 0 3-.4 3.2-.9.6-.7-8.4.4-10.7.4-1 .2-2.3-.4-3.1-.9-1.1-.9-1.6 0-2.2.9-.5.8-.9-.6-1.4-1.9-.7-3-4-1.3-4 .6 0 .8.7.4 1.5-.3.8-.1 1.5.4 1.5 1.5 0 2.2-2 1.1-3.4-.7-.9-.7-1.6.1-2.4.9-.9.8-1.2-.4-1.2-.9 0-2-.4-2.3-1-.4-.6.1-.7 1.1-.3 1.3.5 1.5.3.9-.7-.5-.9-.4-1.1.3-.6.7.4 1.2.2 1.2-.3 0-.6-.5-1.1-1.2-1.1-.6 0 .2-1.1 1.8-2.5 2.1-1.9 2.3-2.4.9-1.9-1.8.7-1.9.6-.6-1 .8-.9 2.1-1.4 3-1.1 1.3.5 1.3.4.4-.6-.9-.9-1.5-.9-2.7 0-1.1.9-1.5.9-2-.1-.3-.7-.3-.1-.1 1.4.2 1.5 0 3-.4 3.2-.9.6-.7-8.4.4-10.7.4-1 .2-2.3-.4-3.1-.9-1.1-.9-1.6 0-2.2.9-.5.5-1-1.1-1.6-1.8-.7-2.1-1.1-1.2-2 1.5-1.5 1.6-3.1 0-2.2-.7.5-.8.3-.3-.5.5-.9 1-1 1.8-.2.7.7.6 1.5-.3 2.6-.8.9-.8 1.5-.2 1.5 2.4 0 3.6-5.2 2-8.4-.7-1.3-.7-1.6.1-1.2.6.4 1.1 0 1.1-.9 0-1-.5-1.3-1.2-.9-.6.4-.8.3-.4-.4.3-.5 0-1.3-.6-1.5-1-.4-1-.6 0-.6 1.5-.1 1.6-2.8 0-3.3-.7-.3-.8-.9-.2-1.9 1-1.7 1.4-7 .6-8.4-.4-.6-.7-1.6-.8-2.3-.2-1 .1-1.1 1.2-.1 1.1.9 1.4.9 1.4 0 0-.7.5-.9 1.2-.5.8.5.6 1.1-.5 1.9-.9.7-1.4 1.5-1.1 1.8.4.4 1.6-.5 2.6-1.9 1.1-1.4 1.8-2.8 1.4-3.1-.3-.4-.6-.1-.6.6s-.5.9-1.2.4c-.7-.4-1.6-.8-2-.8-.3 0-.9-.3-1.2-.8-.3-.4-.3-.5.1-.2s1.2-.7 1.8-2.2c1-2.3 1.2-2.5 1.8-1 .4 1.1.3 1.6-.3 1.2-.6-.3-1-.2-1 .4 0 .5.8.9 1.8.8 1.7-.1 2.8-2.7 1.1-2.7-.4 0-1-.8-1.3-1.7-.6-1.6-.6-1.6 1.1-.1 1.4 1.3 2.2 1.4 3.8.6 1.9-1.1 1.9-1 .3.9-2.5 2.8-2.2 3.8.3 1.4 1.7-1.5 2.6-1.8 4-1 1 .5 2.2.9 2.6.8 2.1-.3 2.4.2 1.2 1.8-1.3 1.6-1.2 1.7.3.4 1.2-.9 1.5-1.8.9-3-.7-1.3-.4-1.6 1.4-1.6 1.8 0 2.1.3 1.2 1.3-.8 1.1-.7 1.3.5 1 1-.1 2.4.6 3.3 1.7 1.5 1.9 1.5 1.8.1-1.1-1.7-3.5-1.1-5 1.2-3.1 1.3 1 1.5.9.8-.8-.5-1.5-.4-1.7.5-.8 1.3 1.3.3 3.6-1.3 2.7-.7-.5-.8-.2-.4.5.5.7 1.4 1 2.1.7.7-.2 1.8.1 2.5.7 1 1 1 .7 0-1.3-.7-1.4-.9-2.2-.5-1.8.5.4 1.4.3 2.2-.3.7-.6 1.3-.8 1.3-.4s.7.2 1.6-.5c.8-.8 1.4-.9 1.3-.4-.4 2.1.2 2.8 1.1 1.4.8-1.2 1-1.2 1-.1 0 1.1.5.9 2.2-.5 1.7-1.4 1.9-1.5 1-.2-1.2 1.5-1 1.7 1.7 1.6 1.7-.1 3.1-.5 3.1-1 0-.4.5-.8 1.2-.8.6 0 .3 1-.8 2.2-1.7 1.9-1.7 2.1-.2 1.5 1.1-.4 2.2 0 2.8 1.1 1.1 1.6 1.1 1.6.6-.1-.5-1.5-.2-1.7 1.4-1.2 1.2.4 2 .2 2-.5 0-.6-.6-.8-1.2-.4-.7.4-1 .4-.6-.1.4-.4.3-1.4-.3-2.1-.7-.8-.7-1.4.1-1.9.6-.4 1-.3.9.2-.3 2 .2 2.7 1.2 1.3.8-1.3.9-1.2.7.4-.2 1 .3 2.1 1 2.3.7.3 1.1-.1 1-.7-.2-.7.9-1.4 2.5-1.7 2.7-.4 3.7 1 1.5 2.3-.6.4-.8.3-.4-.4s-.2-1-1.4-.9c-2 .1-2 .2-.4 1.4 2.6 1.9 5.8 1 6.4-1.8l.6-2.4.8 2.5c.5 1.4.8 2.9.7 3.3-.1.5.3.6.9.2.6-.3.7-1.2.3-1.8-1.2-1.9-1.2-3.6-.1-4.4.7-.3.8-.1.4.5-.4.7.1 1 1.4.9 2.1-.1 2.5-.7 1.3-2.3-.5-.5-.1-.3.7.6 1.7 1.6 4 2.4 4 1.4 0-.4-.8-1.3-1.7-2.1-1.6-1.3-1.6-1.3.5-.3 1.7.8 2.2.8 2.2-.2s.2-1 .9.1c.8 1.2 1 1.2 1.4 0 .2-.8.3-.6.2.3-.2 1 .1 2.1.6 2.4.5.3.9-.2.9-1 0-.9.5-1.6 1-1.6.6 0 1-.7 1-1.5s.5-1.5 1.1-1.5c.6 0 .8.9.4 2-.4 1.2-.2 2 .5 2 .6 0 .8.5.4 1.2s-.3.8.5.4c.9-.6.9-1.1 0-2.2s-.8-1.4.6-1.4 1.5-.3.5-1.5-.7-1.3 1.9-.5c2 .6 3.3.5 3.7-.2.4-.6.3-.8-.2-.5-.6.3-1.5-.3-2.2-1.4-.7-1.1-.8-1.9-.2-1.9.5 0 1 .4 1 1 0 .5.6 1 1.4 1 .8 0 1.6.3 1.9.7.2.5.2.2.1-.5-.2-.6.4-1.2 1.2-1.2.8 0 1.2-.5.9-1-.4-.7-1.4-.6-2.8.2-2 1-2.1 1-.8-.5 1.6-2 4.3-1.8 5.3.3.5 1.2.7 1.2.7-.3.1-.9.6-1.7 1.2-1.7.5 0 .7.6.3 1.2-.5.9-.2.9.9-.1 1.9-1.5 2.3-2.6.5-1.5-.8.5-.9.2-.4-1.1.7-1.8.6-1.8-1.4 0-1.1 1-2 1.3-2 .7 0-.7.5-1.2 1.1-1.2.5 0 .8-.4.5-.8-.8-1.3 2.8-1.1 3.6.2.5.7.8.4.8-.7 0-.9-.6-1.7-1.2-1.7-1 0-1-.2 0-.9.8-.4 1.3-1.2 1.3-1.7s.5-1 1.2-1c.6-.1 1.6-.2 2.1-.3.5 0 .2-.9-.5-1.9-1.3-1.5-1.2-1.6.4-.3.9.8 2.1 1.1 2.4.7.4-.4.1-1.1-.7-1.6-1.1-.7-1-.9.7-.7 1.8.1 2 .4 1.1 2-.5 1-.7 2.1-.5 2.4.3.2.8-.5 1.2-1.6.3-1.2 1-1.9 1.5-1.6.5.3 1.2 0 1.6-.6.4-.8.3-.9-.4-.5-1.3.8-1.6-.3-.4-2 .4-.5 1.7-1.7 3-2.6 1.9-1.3 2-1.6.7-2.2-1-.4-1.4-.2-.9.6.5.7.3.8-.6.3-.8-.5-1.1-.4-.7.2.3.5 0 1-.7 1s-1.3-.6-1.3-1.3c0-.7.4-1.1.9-.8.4.3.8 0 .8-.6s1.1-.8 2.5-.6c1.3.3 2.4.2 2.4-.2-.3-1.7.2-3.2.9-3.1 2.1.4 2.3-.3.7-2.1-1.9-2-.8-2.9 1.2-.9.8.8 1.3.7 1.8-.2.5-.8.4-1-.4-.5s-1-.1-.6-2.4c.4-2.1.2-2.9-.5-2.5-.6.4-.9 1.2-.7 1.9.3.7-.4 1.3-1.4 1.3-1.7.2-1.8 0-.4-1.3.8-.9 1.5-1.9 1.5-2.4 0-.4.7-1.1 1.6-1.4.8-.3 1.2-.2.9.4-.3.5.1.7.9.4 2.1-.8-.3-3.4-2.4-2.6-.9.3-.7-.2.5-1.2 1.1-1 1.5-1.5.8-1.2-.6.4-1.4.2-1.7-.3-.4-.5.5-.8 1.9-.6 2.8.3 4.2-1 2.4-2.1-.8-.5-.9-.3-.4.7.5.8.4 1 0 .6-1.2-1-1.5-3.8-.4-3.1.5.3.7-1 .4-3-.3-2.9-.2-3.4.9-2.4 1.3 1.2 1.8 4.1.6 3.3-.3-.2-.6.5-.6 1.6 0 1 .4 1.9.8 1.9.7 0 1-1.5.7-3.6 0-.4.5-1.1 1.3-1.5 1-.7 1-.9-.2-.9-1.3 0-1.3-.2 0-1.1 1.3-1 1.3-1-.1-.6-.8.3-2-.3-2.6-1.2-.9-1.4-.8-1.8.3-1.8.7 0 1.1.3.9.7-.2.3.5.6 1.5.7 2.3.2 3.5-1.3 1.9-2.3-.8-.4-.9-.3-.5.4s.3 1.2-.2 1.2c-1.7 0-2.2-1.3-1-2.7 1.1-1.4.4-2.8-1.5-2.8-1.7 0-1.6-2.7.1-4.7 1.3-1.6 1.3-1.8-.2-2.4-1.4-.5-1.5-.9-.4-1.5 1.1-.8 1.1-1.1-.1-1.8-.7-.5-1-1.4-.6-2.1.4-.6-.1-2.1-1.2-3.3-1.2-1.4-1.3-1.8-.2-.9.9.6 1.8.9 2.1.7.3-.3.5.6.4 2-.1 2.7 1.6 3.6 2 1 .1-.8-.2-1.5-.7-1.5-.6 0-.8-.4-.4-.9.3-.6-.2-1.4-1.2-1.9-.9-.5-1.8-1.7-1.9-2.6-.1-.9.1-1.4.5-1.1.5.2.6-.7.3-2.2-.3-1.5-.1-2.3.5-2 .5.3 1.5.1 2.3-.5 1.2-.8 1.2-.9-.2-.4-1 .3-1.8 0-1.8-.6 0-.7-.6-.4-1.2.5-1.2 1.6-4 1.8-5.4.4-.4-.3.6-.4 2.1-.1 2.3.4 2.6.2 1.7-.8-.6-.8-.7-1.9-.2-2.8.5-.8.5-2.1 0-3.1-.5-.9-.6-2-.2-2.4.4-.5.1-.5-.7 0-.9.5-1.2.3-.9-.6.3-.8 1-1.4 1.5-1.4 2.1 0 2.2-1.1.3-1.2-1.1-.1-2 .3-2 .9 0 1.6-1.3.1-1.6-1.7-.1-.8.2-1.5.7-1.5.5 0 .9-.5.9-1.1 0-.8-.4-.8-1.4 0-1.6 1.4-1.5 2.6.4 6.1.8 1.4 1.3 3.1 1.1 3.9-.1.8.2 1 1 .5.8-.4 1-.3.5.4-1 1.7-3.5.3-3.1-1.8.2-1-.5-2.8-1.5-4-1.8-2.1-1.7-6 .2-6 .5 0 .3-.7-.6-1.5-.8-.9-1.3-2.3-1-3.3.5-1.4.4-1.4-.4-.3-.7 1-.7 2.1-.1 3.3.6 1.2.6 1.8-.1 1.8-.5 0-1-.8-1-1.8-.1-1.5-.2-1.5-1.5.2-.8 1.1-1.5 1.5-1.5 1 0-.6.5-1.5 1.1-2.1 1.1-1.1-.4-2.7-2.6-2.8-.5 0-1-.7-1.1-1.5 0-.8-.7-2.9-1.6-4.5-.8-1.7-1.3-3.7-1.1-4.5.4-1.3.3-1.3-.6 0-.5.8-.8 1.7-.6 2 .2.4-.2.7-1 .7-1 0-1.1-.5-.4-1.8 1.2-2.2 1.2-3.2 0-2.4-.6.3-1.4-.3-2-1.2-.8-1.5-1.3-1.6-3-.6-1.5 1-2 .9-2.5-.2-.3-.9-1.2-1.2-2.3-.9-1.3.5-1.1.2.5-1 1.2-1 2.2-2.2 2.2-2.7 0-.6-.7-.3-1.6.5-2 2-3 2.1-1.4.1s.6-1.9-1.4.1c-.9.8-1.6 1.1-1.6.5 0-.5.4-1.3 1-1.6.6-.3-.1-1.8-1.5-3.3-1.4-1.5-2.5-3-2.5-3.4 0-.3-.8-.5-1.7-.3-1 .1-2.4-.3-3.2-.9-1.1-.8-1.3-.8-.7.1.4.8.1 1.3-.9 1.3-.9 0-1.4-.4-1.1-.8.3-.5-.2-.9-1-.9-.9 0-2 1.1-2.5 2.4-1.1 2.9-1.6 2.9-1.5.2.1-1.2-.6-2.4-1.4-2.7-1.3-.5-1.3-.3 0 1.4 1.4 1.8 1.4 1.8-.6.2-1.6-1.4-2.3-1.5-3.2-.6-.9.9-1.2.9-1.2-.1 0-.7-.5-.9-1.2-.5-.6.4-.8.3-.5-.2 1-1.8-1-3.6-4.2-3.9-1.7-.1-3.3.1-3.6.5-.2.4.8.6 2.3.5 3.2-.2 4.4.3 3.6 1.6-.3.5-1.1.6-1.7.2-1.9-1.2-3.6-1.2-4.3-.1-.4.5-1.3.3-2.4-.7-1.7-1.5-1.9-1.5-3 .2-.9 1.4-1 1.4-.6.1.3-1-.2-1.8-1.6-2.1-1.1-.3-1.7-1-1.3-1.6.3-.6.2-1.1-.3-1.1-.6 0-1.3.7-1.6 1.6-.3.8-.2 1.2.4.9.6-.4.7.1.3 1.1-.4 1.1-.8 1.3-1.1.6-.5-1.6-3.9-1.5-4.5 0-.4 1-.6 1-.6.1-.1-.6.4-1.5.9-1.8 1.3-.8-.6-3.5-2.3-3.5-.6 0-.3.6.7 1.3 1.7 1.2 1.7 1.4.3 2-1.1.4-1.5 1.3-1.1 2.4.5 1.4.4 1.5-.4.4-.6-.8-.7-2.1-.4-3 .5-1.3.3-1.4-1-.4-.8.7-1.8 1-2.1.6-.4-.3.1-1.2 1.1-2 1.2-1 .8-1-1.5.2-2.2 1-3 2-2.7 3 .4.8.2 1.5-.3 1.5-1.3 0-1.3-3.2.1-5 .6-.8.1-.7-1.1.4-1.3 1-2 2.3-1.6 2.9.4.6.1.7-.6.3-.7-.5-1.7-1.8-2.2-3-.7-1.6-.8-1.3-.3 1.4.3 1.9.2 3-.3 2.5-.4-.6-1.6-1.1-2.6-1.1-1.3-.2-1.6.3-1.2 2 .5 2 .5 2-.6-.2-.7-1.2-1.6-2.2-2.1-2.2s-.7.4-.4.8c.3.5-.1.9-.9.9-1.1 0-1.2-.3-.3-1.4.6-.8 1.7-1.2 2.5-.9.8.3 1.1.1.8-.5-.4-.5-1.5-.7-2.6-.4-1.5.5-1.8.3-1.3-1.2.4-1.4.4-1.5-.4-.4-.5.7-1.5 1.1-2.1.7-.7-.5-.9-.1-.5.8.3.9 1.1 1.3 1.7.9.6-.3.7-.1.3.5-.4.6-1.4.8-2.4.5-1.4-.6-1.5-.4-.4.9.9 1.1 1 1.8.2 2.3-.6.4-1 .3-.9-.2.3-2-.2-2.7-1.1-1.3-.7 1.2-.9 1-.7-.7 0-1.2.5-1.9.9-1.7.4.3.8 0 .8-.6 0-.7-.8-.9-2-.5-1.4.4-1.9.2-1.7-.7.2-.7.2-.9-.1-.5-.2.4-1.1.2-2-.5-1.5-1.1-1.5-1.1-.5.3.7.9.9 1.9.5 2.3-.4.4-.1.6.7.4.7-.2 1.5.3 1.6 1 .2.7.1.8-.2.2-.2-.5-.9-.8-1.4-.4-.5.3-1.2-.2-1.5-1-.9-2.4-2.3-1.9-1.7.6l.4 2.3-1.3-2.3c-.8-1.2-1.7-2-2.1-1.6-.4.4-.2 1.3.4 2 .7.9.6 1.2-.5 1-.9-.1-1.9-.5-2.2-.9-1.4-1.4-4.4-.7-4.5 1 0 1.3-.3 1.1-1.1-.7-.6-1.4-1-2.8-1-3.3.1-.4-.2-.7-.8-.7-1 0-1.4 1.4-1.1 3.7.1.7-.3 1.3-.9 1.3-.6 0-.8-.5-.5-1 .3-.6.2-1-.4-1-.5 0-1.2.6-1.4 1.2-.4 1-.6 1-.6 0-.1-.7-.6-1-1.3-.6-.7.4-.8.3-.4-.5.4-.6 1.1-.9 1.6-.6.5.3 1.3-.3 1.9-1.3.7-1.4.6-1.9-.4-1.9-.7 0-1.1.6-.8 1.4.3.9 0 1.1-1 .7-.9-.3-2.5.4-3.8 1.7-1.4 1.4-2 1.7-1.6.7.3-1-.1-1.9-1-2.2-1.1-.5-1.4-.2-.9.9.4 1 .2 1.4-.5.9-.6-.4-1.5-.1-1.9.6-.5.8-.9.8-1.3-.4-.4-.9-.1-1.5.5-1.3.6.1 1.3-.5 1.5-1.3.4-1.3.3-1.3-.6 0-1 1.4-1.6.7-1.2-1.3.1-.5-.3-.6-.8-.3-.5.4-.8 1.9-.5 3.4.4 2.7.4 2.7-.9.4-.7-1.2-1.6-2-2-1.6-.4.4-.1 1.4.6 2.3 1.1 1.4 1 1.5-.7.1-1.8-1.4-1.8-1.3-1.2 1l.7 2.5-1.3-2.3c-1.1-1.7-1.6-2-2.6-1-1.3 1.3-2.7.5-1.8-1.1.4-.5 1.4-.8 2.4-.7.9.2 2.5-.5 3.4-1.5 1.6-1.7 1.6-1.8-.2-1.6-1 .1-1.6.5-1.4.9.3.4-.1.9-.8.9-.7.1-2 .2-2.8.3-.8 0-1.8-.3-2.1-.7-.3-.5-.9-.1-1.2.8-.4.9-.3 1.4.1 1.1.5-.3.9.1.9.9 0 1.1-.4 1.2-1.3.4-.7-.6-1.8-.8-2.4-.4-.5.3-1.3-.1-1.6-.9-.9-2.4-2.3-1.9-1.7.6l.4 2.3-1.3-2.3c-.8-1.2-1.7-2-2.1-1.6-.4.4-.2 1.3.4 2 .7.9.6 1.2-.5 1-.9-.1-1.9-.5-2.2-.9-1.4-1.4-4.4-.7-4.5 1 0 1.4-.3 1.2-1-.5-.5-1.3-1.4-2-2-1.6-.8.5-.8.9.1 1.4.9.5.9.9.1 1.4-1.1.7-1.5-.6-1.1-3.3.1-1.2-.1-1.2-1.3-.3-.7.6-1.7.9-2 .5-.4-.3.1-1.2 1.1-2 1.2-1 .8-1-1.5.2-2.2 1-3 2-2.7 3 .4.8.2 1.5-.3 1.5-1.3 0-1.3-3.2.1-5 .6-.8.1-.7-1.1.4-1.3 1-2 2.3-1.6 2.9.4.6.1.7-.6.3-.7-.5-1.7-1.8-2.2-3-.7-1.6-.8-1.3-.3 1.4.3 1.9.2 3-.3 2.5-.4-.6-1.6-1.1-2.6-1.1-1.3-.2-1.6.3-1.2 2 .5 2 .5 2-.6-.2-.7-1.2-1.6-2.2-2.1-2.2s-.7.4-.4.8c.3.5-.1.9-.9.9-1.1 0-1.2-.3-.3-1.4.6-.8 1.7-1.2 2.5-.9.8.3 1.1.1.8-.5-.4-.5-1.5-.7-2.6-.4-1.5.5-1.8.3-1.3-1.2.4-1.4.4-1.5-.4-.4-.5.7-1.5 1.1-2.1.7-.7-.5-.9-.1-.5.8.3.9 1.1 1.3 1.7.9.6-.3.7-.1.3.5-.4.6-1.4.8-2.4.5-1.4-.6-1.5-.4-.4.9.9 1.1 1 1.8.2 2.3-.6.4-1 .3-.9-.2.3-2-.2-2.7-1.1-1.3-.7 1.2-.9 1-.7-.7 0-1.2.5-1.9.9-1.7.4.3.8 0 .8-.6 0-.7-.7-.9-1.6-.6-.9.3-1.7.6-2 .6-.2 0-.1.8.2 1.7.5 1.6.4 1.6-.6.3-.9-1.1-1.3-1.2-1.7-.3-.2.7-.9 1.3-1.4 1.3-.6 0-.7-.5-.4-1 .3-.6.2-1-.4-1-.5 0-1.2.6-1.4 1.2-.4 1-.6 1-.6 0-.1-.7-.6-1-1.3-.6-.7.4-.8.3-.4-.5.4-.6 1.1-.9 1.6-.6.5.3 1.3-.3 1.9-1.3.7-1.4.6-1.9-.4-1.9-.7 0-1.1.6-.8 1.4.3.9 0 1.1-1 .7-.9-.3-2.5.4-3.8 1.7-1.4 1.4-2 1.7-1.6.7.3-1-.1-1.9-1-2.2-1-.4-1.4-.2-1 .8.4 1 .1 1.3-.9.9-1.3-.5-1.9.8-1.4 3.2.1.5-.2.6-.7.2-.4-.5-.8-1.4-.8-2 0-.7-1-1.3-2.2-1.5-1.8-.3-2.2 0-1.7 1.5.4 1.1 0 .9-1.2-.7-1-1.4-1.8-2.8-1.7-3.2.1-.3-.3-.8-1-1.1-.7-.3-1.3.3-1.3 1.3s.5 1.6 1 1.3c.5-.3.6-.1.2.5-.3.5 0 1.3.6 1.5.9.4 1 .6.1.6-.6.1-1.5-.4-1.8-.9-.3-.6-1.5-1-2.6-1s-1.8.4-1.5.8c.3.5-.1.9-.9.9-1.3 0-1.3-.3 0-1.7 1.4-1.5 1.4-1.9.1-2.9-1.2-1-1.6-.9-2.4.6-.5 1-.7 2.4-.5 3 .3.7 0 1.3-.7 1.3-.6 0-.8-.5-.5-1 .3-.6.2-1-.4-1-.5 0-1.2.6-1.4 1.2-.4 1-.6 1-.6 0-.1-.7-.6-1-1.3-.6-.7.4-.8.3-.4-.5.4-.6 1.1-.9 1.6-.6.5.3 1.3-.3 1.9-1.3.7-1.4.6-1.9-.4-1.9-.7 0-1.1.6-.8 1.4.3.9 0 1.1-1 .7-.9-.3-2.5.4-3.8 1.7-1.4 1.4-2 1.7-1.6.7.3-1-.1-1.9-1-2.2-1-.4-1.4-.2-1 .8.4 1 .1 1.3-.9.9-1.3-.5-1.9.8-1.4 3.2.1.5-.2.6-.7.2-.4-.5-.8-1.4-.8-2 0-.7-1-1.3-2.2-1.5-1.8-.3-2.2 0-1.7 1.5.4 1.1 0 .9-1.2-.7-1-1.4-1.8-2.8-1.7-3.2.1-.3-.3-.8-1-1.1-.7-.3-1.3.3-1.3 1.3s.5 1.6 1 1.3c.5-.3.6-.1.2.5-.3.5 0 1.3.6 1.5.9.4 1 .6.1.6-.6.1-1.5-.4-1.8-.9-.9-1.5-4.8-1.3-3.9.2.4.7.4 1-.1.6-.4-.4-1.4-.3-2.2.3-1.3 1.2-1.8.2-1.3-3 .1-1.2-.1-1.2-1.3-.3-.7.6-1.7.9-2 .5-.4-.3.1-1.2 1.1-2 1.2-1 .8-1-1.5.2-2.2 1-3 2-2.7 3 .4.8.2 1.5-.3 1.5-1.3 0-1.3-3.2.1-5 .6-.8.1-.7-1.1.4-1.3 1-2 2.3-1.6 2.9.4.6.1.7-.6.3-.7-.5-1.7-1.8-2.2-3-.7-1.6-.8-1.3-.3 1.4.3 1.9.2 3-.3 2.5-.4-.6-1.6-1.1-2.6-1.1-1.3-.2-1.6.3-1.2 2 .5 2 .5 2-.6-.2-.7-1.2-1.6-2.2-2.1-2.2s-.7.4-.4.8c.3.5-.1.9-.9.9-1.1 0-1.2-.3-.3-1.4.6-.8 1.7-1.2 2.5-.9.8.3 1.1.1.8-.5-.4-.5-1.5-.7-2.6-.4-1.5.5-1.8.3-1.3-1.2.4-1.4.4-1.5-.4-.4-.5.7-1.5 1.1-2.1.7-.7-.5-.9-.1-.5.8.3.9 1.1 1.3 1.7.9.6-.3.7-.1.3.5-.4.6-1.4.8-2.4.5-1.4-.6-1.5-.4-.4.9.9 1.1 1 1.8.2 2.3-.6.4-1 .3-.9-.2.3-2-.2-2.7-1.1-1.3-.7 1.2-.9 1-.7-.7 0-1.2.5-1.9.9-1.7.4.3.8 0 .8-.6 0-.7-.8-.9-2-.5-1.6.5-1.9.3-1.3-1.2.7-1.9.5-1.8-1.7 1-1 1.4-1.1 1.7 0 1.5.7-.2 1.5.4 1.7 1.2.4 1.2.3 1.2-.5.2-.5-.8-1.3-1.4-1.8-1.5-.5-.1-.8-1-.7-2 .2-1.4 0-1.5-1.1-.5-.7.7-1.1 2.2-.9 3.3.4 1.5.2 1.7-.5.6-.8-1.1-1.1-1.1-1.6 0-.3.8-.3.3.1-1.1.5-2.2.4-2.3-1-1.1-.9.7-1.5 1.6-1.3 2 .3.4-.6.7-1.9.7-1.3 0-2.2-.3-1.9-.7.2-.4-.2-.9-.8-1.2-.7-.2-1-.8-.5-1.2.4-.5 1.3 0 2.1 1 .8 1.1 1.5 1.4 1.9.8.4-.6 0-1.4-.9-1.7-1.4-.5-1.4-.9-.3-2.3 1.2-1.4 1-1.4-1.3.1-2.1 1.4-2.7 2.4-2.4 4.3.4 2 .2 2.2-.9 1.3-.7-.6-1.2-2-1-3.1.2-1 0-1.9-.6-1.9-.9 0-1.3 1.4-1 3.7.1.7-.3 1.3-.9 1.3-.6 0-.8-.5-.5-1 .3-.6.2-1-.4-1-.5 0-1.2.6-1.4 1.2-.4 1-.6 1-.6 0-.1-.8-.6-1-1.3-.6-.8.4-1 .3-.5-.2s1.2-.9 1.5-.9c1.4 0 3.2-1.7 3.2-2.8 0-.8-.3-.7-.9.2-1.3 2.1-5.9 2.3-7.2.3-1-1.6-1-1.6-.5 0 .8 2.5-.8 2.2-2.8-.5-1.6-2.1-1.6-2-.1 1zm94.9.2c.3.5-.1 1.1-.9 1.4-.9.4-1.2.1-.8-.9.6-1.6 1-1.7 1.7-.5zm-91.1 2.6c-.3.9-.8 1.4-1 1.1-.3-.3-.2-.9.2-1.5.9-1.6 1.5-1.3.8.4zM379 39c0 .5-.2 1-.4 1-.3 0-.8-.5-1.1-1-.3-.6-.1-1 .4-1 .6 0 1.1.4 1.1 1zm96 0c0 .5-.2 1-.4 1-.3 0-.8-.5-1.1-1-.3-.6-.1-1 .4-1 .6 0 1.1.4 1.1 1zm96 0c0 .5-.2 1-.4 1-.3 0-.8-.5-1.1-1-.3-.6-.1-1 .4-1 .6 0 1.1.4 1.1 1zm-241.8 2.4c.7-.4.8-.2.4.5-.9 1.3-2.6.5-2.5-1.2 0-.9.2-.8.6.1.2.6 1 .9 1.5.6zm80 0c.7-.4.8-.2.4.5-.9 1.3-2.6.5-2.5-1.2 0-.9.2-.8.6.1.2.6 1 .9 1.5.6zm32 0c.7-.4.8-.2.4.5-.9 1.3-2.6.5-2.5-1.2 0-.9.2-.8.6.1.2.6 1 .9 1.5.6zm80 0c.7-.4.8-.2.4.5-.9 1.3-2.6.5-2.5-1.2 0-.9.2-.8.6.1.2.6 1 .9 1.5.6zm-208.5.2c-.3.3-1.2.4-1.9.1-.8-.3-.5-.6.6-.6 1.1-.1 1.7.2 1.3.5zm76.8.4c-.3.5-1.2 1-1.8 1-.7 0-.6-.4.3-1 1.9-1.2 2.3-1.2 1.5 0zm32 0c-.3.5-1.2 1-1.8 1-.7 0-.6-.4.3-1 1.9-1.2 2.3-1.2 1.5 0zm76.5-.5c0 .2-.6.8-1.3 1.4-1 .8-1.4.7-1.4-.2 0-.8.6-1.4 1.4-1.4.7 0 1.3.1 1.3.2zm99 2.5c0 .5-.5 1-1.1 1-.5 0-.7-.5-.4-1 .3-.6.8-1 1.1-1 .2 0 .4.4.4 1zm16.3 1.5c-.7 2.1-1.2 1.9-1-.4 0-1.1.5-1.8.9-1.5.4.3.5 1.1.1 1.9zm9.9 1.6c1.8 2.2 1.6 3.9-.5 3.9-.8 0-.8-.3.1-.9 1.1-.7 1.1-.9-.2-1.4-.9-.4-1.6-.2-1.6.2 0 .5-.7 1.2-1.6 1.5-1.3.5-1.4.4-.6-.7 1.8-2.2.1-2.9-2.2-1-2.1 1.8-2.1 1.8-.3-.3 2.1-2.5 2.3-4.1.2-2.4-.9.8-1.5.8-1.5.2 0-2.8 5.8-2.2 8.2.9zM288.5 47c.3.5.1 1-.4 1-.6 0-1.1-.5-1.1-1 0-.6.2-1 .4-1 .3 0 .8.4 1.1 1zm-147.7 5.2c.2.9-.1 1.9-.7 2.2-.5.4-.7-.4-.4-1.6.3-1.4.1-1.8-.4-1.2-1.1 1.5-4.3 1.4-4.3-.1 0-1.8 5.4-1.2 5.8.7zm8.9 3.5c-.4.3-.7.1-.7-.6s-.4-.9-1-.6c-.5.3-1 .1-1-.5s-.4-.8-1-.5c-.5.3-.7 0-.4-.9.5-1.3.9-1.2 2.7.4 1.1 1.1 1.7 2.3 1.4 2.7zM122 53.6c0 .2-.7.4-1.5.4s-1.5-.4-1.5-1c0-.5.7-.7 1.5-.4.8.4 1.5.8 1.5 1zm31.3.9c.4.8.2 1.7-.4 2-.5.4-.6 1.1-.3 1.7.4.7.2.8-.5.4-.9-.6-.9-1.1 0-2.2.8-1 .8-1.4 0-1.4-.6 0-1.1-.5-1.1-1 0-1.5 1.7-1.2 2.3.5zM114 55.6c0 .8-1.9 1.3-2.4.6-.3-.5.1-.9.9-.9s1.5.2 1.5.3zm32.4 1c.3.8.2 1.2-.4.9-.6-.3-1-1-1-1.6 0-1.4.7-1.1 1.4.7zm10.9.4c.3 1.1.3 2 .1 2-.2 0-.8-.9-1.4-2-.6-1.1-.7-2-.2-2 .6 0 1.2.9 1.5 2zm479.1 1.9c-.4.3-.9 0-1.1-.7-.3-.6-1-.9-1.5-.6-.7.4-.8.2-.4-.5.6-.9 1.1-.9 2.2 0 .8.6 1.2 1.5.8 1.8zm-462.7 4.6c0 .8-.6 1.6-1.4 1.9-1.1.4-1.1.1-.3-1.4 1.3-2.4 1.7-2.5 1.7-.5zM81 64c.4-.7.8-.1.8 1.5s-.4 2.2-.8 1.5c-.4-.6-1-1.1-1.4-1.1-.6.1-.7 0-.5-2.2 0-.8.2-.8.6.2.4 1 .7 1 1.3.1zm3.4.6c.3.8.2 1.2-.4.9-.6-.3-1-1-1-1.6 0-1.4.7-1.1 1.4.7zm556.8 1c.9 1.8.8 1.8-.5.2-.8-1-1.6-1.5-1.9-1.2-.4.3-.9.1-1.2-.4-.3-.6.1-.9 1-.8.9.1 2.1 1.1 2.6 2.2zm-466.5 1.9c0 .8-.4 1.2-.9.9-.5-.3-.6-1-.3-1.5.9-1.3 1.2-1.1 1.2.6zm9.7 6.1c.3.8.2 1.2-.4.9-.6-.3-1-1-1-1.6 0-1.4.7-1.1 1.4.7zm3.1-.7c.3.5 0 1.3-.6 1.7-.7.4-.9.3-.5-.4.3-.5 0-1.3-.6-1.5-.9-.4-1-.6-.1-.6.6-.1 1.4.3 1.8.8zm2.8 3.7c-.4 1.2-.8 1.3-1.4.3-.9-1.5-.2-3.2 1.1-2.4.5.3.6 1.3.3 2.1zm-119.9-.1c-.4.8-.8 1.5-1 1.5-.2 0-.4-.7-.4-1.5s.4-1.5 1-1.5c.5 0 .7.7.4 1.5zM649 77c0 .5-.2 1-.4 1-.3 0-.8-.5-1.1-1-.3-.6-.1-1 .4-1 .6 0 1.1.4 1.1 1zm-394.4 2.5c-.1.8-.5 1.7-.8 2.1-.5.4-.4-1.6.1-3.4.3-.9.9.1.7 1.3zm-3.6 4.2c0 2-2.3 1.1-2.6-.9-.1-1.1.3-1.5 1.2-1.1.8.3 1.4 1.2 1.4 2zM62.5 84.8c-.3.3-1.1 0-1.8-.7-.9-1-.8-1.1.6-.5 1 .3 1.5.9 1.2 1.2zm186.2 2.1c-2.1.8-2.4 2.1-.7 3.1.8.5.5.9-.7 1.2-1.4.4-1.9 0-1.8-1.1.2-2.5 1.5-4.1 3.3-4 1.5 0 1.5.1-.1.8zm-48.5 6.7c-.9 1.6-1 1.4-.9-.8.1-1.5.6-2.3 1.1-1.8.4.4.4 1.6-.2 2.6zM56.5 92.3c.3.4.2.5-.1.2-.4-.2-1.5 0-2.5.5-1.6.9-3.5-.1-2.4-1.2.7-.7 4.4-.3 5 .5zm192.1 4.2c-.1.8-.5 1.7-.8 2.1-.5.4-.4-1.6.1-3.4.3-.9.9.1.7 1.3zm-4.6 1.2c0 1.5.2 1.6 1 .3.6-.9 1-1 1-.3 0 2.2-1.9 2.4-3 .3-.7-1.3-.7-2 0-2 .5 0 1 .8 1 1.7zm413 .3c0 .5-.2 1-.4 1-.3 0-.8-.5-1.1-1-.3-.6-.1-1 .4-1 .6 0 1.1.4 1.1 1zm-608.9 4.7c-1.1.5-1.1.7 0 1.5s1 .9-.3.4c-2-.6-2.4.4-.7 2.1.8.8.7 1.3-.2 1.8-.8.6-1 .4-.4-.5.6-1 .4-1.2-.7-.7-1 .3-1.5.1-1.4-.8.3-1.9 2.6-4.5 4-4.4.6 0 .5.3-.3.6zm161.4.3c.3.6-.1.7-.9.4-1.8-.7-2.1-1.4-.7-1.4.6 0 1.3.4 1.6 1zm-156 1c-.3.5-1.2 1-1.8 1-.7 0-.6-.4.3-1 1.9-1.2 2.3-1.2 1.5 0zm157.5 2.5c0 .2-.5.7-1.2 1.1-.7.5-.8.3-.3-.6.6-.9.4-1.2-.7-.8-.8.4-1.5 0-1.5-.7 0-1 .5-1.1 1.9-.4 1 .5 1.8 1.2 1.8 1.4zm-165.3 5.6c.1 1.9.1 2-.4.4-.3-1.1-1-2.4-1.7-2.8-.7-.6-.6-.7.4-.4.8.2 1.6 1.4 1.7 2.8zm613.7.1c-.3.4-.9.8-1.5.8-.5 0-.9-.4-.9-.8 0-.5.7-.9 1.5-.9s1.2.4.9.9zM243.5 120c-.3.5 0 1 .7 1 1 0 1 .2-.1.9s-1.1 1 .3 1.4c1.4.4 1.4.5-.1.3-2.1-.2-2.7-4.6-.7-4.6.3 0 .2.4-.1 1zm418 0c-.3.5-1.1 1-1.6 1-.6 0-.7-.5-.4-1 .3-.6 1.1-1 1.6-1 .6 0 .7.4.4 1zm-617.4 5.3c-1 .9-1.1.8-.5-.6.3-1 .9-1.5 1.2-1.2.3.3 0 1.1-.7 1.8zm172.6 2.2c0 1.7-1.3 2-2.1.6-.4-.5 0-1.2.6-1.4.7-.3 1.3-.6 1.4-.6 0-.1.1.6.1 1.4zm-174.3 2.1c.3.8.2 1.2-.4.9-.6-.3-1-1-1-1.6 0-1.4.7-1.1 1.4.7zm207.1.3c-.9.8-3.6 1-3 .2.2-.4 1.1-.8 2-.8.8 0 1.3.3 1 .6zm-33 3c-.6.5-2.5-1-2.5-2 0-.5.6-.4 1.4.3.8.7 1.2 1.5 1.1 1.7zm-175.1 2.9c.3.5-.1.9-.9.9s-1.2-.4-.9-.9c.3-.4.7-.8.9-.8.2 0 .6.4.9.8zm210.1 4.2c.3.6-.1.7-.9.4-1.8-.7-2.1-1.4-.7-1.4.6 0 1.3.4 1.6 1zm402.1 10.2c.4.6.3.8-.4.4-.6-.3-1.5.2-2.1 1.1-.5 1-1.3 1.4-1.7 1-.4-.4.1-1.4 1.2-2.2 2.3-1.8 2.1-1.7 3-.3zm-397 3c.4.7.3.8-.5.4-.6-.4-1.8-.2-2.6.4-.9.8-1.5.8-1.5.2 0-.9 1.5-1.9 3.2-2.1.4-.1 1 .4 1.4 1.1zm-.1 4.8c.3.5.1 1-.4 1-.6 0-1.1-.5-1.1-1 0-.6.2-1 .4-1 .3 0 .8.4 1.1 1zm-41.9 2c0 1.2-.4 1.6-.9 1.1s-.6-1.4-.3-2c1-1.5 1.2-1.4 1.2.9zm3.9.1c-.4.5-.1.9.5.9.7 0 .8.5.3 1.2-.4.7-.8 2.2-.9 3.3-.1 1.1-.5 2.9-.9 3.9-.6 1.4-.5 1.7.4 1.2.7-.5 1-.2.9.6-.4 1.7-3.7 4.2-4.5 3.4-.4-.3-.1-.6.6-.6s.9-.5.6-1c-.4-.6-1.1-.7-1.7-.4-.7.4-.8.2-.4-.5.6-.9 1.1-.9 2.4.1 1.4 1.1 1.5 1 .8-.7-1.7-4.4-1.9-5.1-.7-3.5.9 1.3 1.1 1.3 1.1-.3 0-.9-.6-1.7-1.2-1.7-1 0-1-.2 0-.9.7-.4 1.1-1.9.8-3.4-.2-1.4-.2-2.8.1-3.1.9-.9 2.4.4 1.8 1.5zm426.5-.3c0 .4-1 .9-2.2.9-1.8.2-2 0-.8-.7 1.8-1.2 3-1.3 3-.2zM264.4 165c-.5.5-1-.3-1.1-1.8-.1-2.2 0-2.4.9-.8.6 1 .6 2.2.2 2.6zM40 166c-1.2.8-1.2 1-.1 1 .8 0 1.2.3.8.6-.9.9-2.8-.6-2.2-1.7.4-.5 1.2-.9 1.8-.9.7 0 .6.4-.3 1zm230.1 3.3c-1 .9-1.1.8-.5-.6.3-1 .9-1.5 1.2-1.2.3.3 0 1.1-.7 1.8zm2.9 1.7c0 .5-.2 1-.4 1-.3 0-.8-.5-1.1-1-.3-.6-.1-1 .4-1 .6 0 1.1.4 1.1 1zm-55 6.9c0 .5-.8 1.5-1.7 2.2-1 .7-1.5.9-1.1.5.4-.5.4-1.4-.2-2-.6-.8-.3-1.2 1.1-1.3 1-.1 1.9.2 1.9.6zm402.1.8c1.3 1.6 1.2 1.7-.3.4-1-.7-1.8-1.5-1.8-1.7 0-.8.8-.3 2.1 1.3zm-326.7 5.2c-.9.9-3.4.9-3.4.1 0-.5.9-.8 2-.7 1 .1 1.7.3 1.4.6zm5.1.1c.3.5.1 1-.4 1-.6 0-1.1-.5-1.1-1 0-.6.2-1 .4-1 .3 0 .8.4 1.1 1zm44 2c.3.5.1 1-.4 1-.6 0-1.1-.5-1.1-1 0-.6.2-1 .4-1 .3 0 .8.4 1.1 1zm208 0c.3.5.1 1-.4 1-.6 0-1.1-.5-1.1-1 0-.6.2-1 .4-1 .3 0 .8.4 1.1 1zm-335.8 3.2c-.3.7-.5.2-.5-1.2s.2-1.9.5-1.3c.2.7.2 1.9 0 2.5zm327.3-2.8c0 .2-.7.7-1.6 1-.8.3-1.2.2-.9-.4.6-1 2.5-1.4 2.5-.6zm3 .6c0 .5-.2 1-.4 1-.3 0-.8-.5-1.1-1-.3-.6-.1-1 .4-1 .6 0 1.1.4 1.1 1zm3.4 2.1c-.3.5-1 .7-1.5.3-.5-.3-.7-1-.3-1.5.3-.5 1-.7 1.5-.3.5.3.7 1 .3 1.5zm-330.7 7.6c.5-.3.9.3.9 1.3 0 1.2-.6 1.7-1.9 1.4-2.4-.4-3.5-1.4-1.7-1.4 1 0 1-.4-.1-1.8-1.3-1.5-1.2-1.6.3-.4.9.8 2.1 1.1 2.5.9zm162.7.9c.3.8.2 1.2-.4.9-.6-.3-1-1-1-1.6 0-1.4.7-1.1 1.4.7zm150.3 6.4c-.2 1.1-.6 2.2-.9 2.6-.4.3-.5-.2-.3-1.3.2-1 .4-2.1.4-2.6.1-.4.3-.7.6-.7s.4.9.2 2zm-313.1 6c0 2.7-.1 2.9-1.4 1.6-1.3-1.2-1.3-1.8-.2-3 1.6-2.1 1.6-2.1 1.6 1.4zm313.4 5.5c0 .8-.4 1.5-1 1.5-.5 0-.7-.7-.4-1.5.4-.8.8-1.5 1-1.5.2 0 .4.7.4 1.5zm-152.4 6.1c.1 1.9-.2 3.7-.7 4-.5.3-.7 1-.3 1.5.3.6 1.1.3 1.8-.6 1-1.5 1.2-1.4 1.2.4 0 1.1-.4 1.7-.8 1.5-.4-.3-.8 0-.8.7s-.6.4-1.4-.7c-.8-1-1.1-2.3-.6-2.9.5-.5.7-2.7.5-4.9-.3-2.1-.1-3.5.3-3.1.4.3.8 2.2.8 4.1zm2.4 9.8c0 .3-.4.8-1 1.1-.5.3-1 .1-1-.4 0-.6.5-1.1 1-1.1.6 0 1 .2 1 .4zm150 1.1c0 .8-.2 1.5-.4 1.5s-.6-.7-1-1.5c-.3-.8-.1-1.5.4-1.5.6 0 1 .7 1 1.5zm-312.2 2.8c.9.6.9 1.3.1 3-.9 1.6-.9 2.2 0 2.5.6.2.8.9.4 1.5-.4.7-.8 2.1-.9 3.2-.1 1.1-.5 2.9-.9 3.9-.6 1.4-.5 1.7.4 1.2.7-.5 1-.2.9.6-.4 1.7-3.7 4.2-4.5 3.4-.4-.3-.1-.6.6-.6s.9-.5.6-1c-.4-.6-1.1-.7-1.7-.4-.7.4-.8.2-.4-.5.6-.9 1.1-.9 2.4.1 1.3 1.1 1.5 1 .9-.5-.4-.9-1-2.5-1.3-3.5-.5-1.4-.4-1.5.5-.2s1.1 1.3 1.1-.3c0-.9-.6-1.7-1.2-1.7-.9 0-1-.2-.2-.8 1.5-.9 1.5-6.2 0-6.2-.6 0-.3-.5.7-1.1.9-.5 1.7-1.5 1.7-2 0-.6-.4-.8-.9-.4-.5.3-1.2.1-1.5-.4-.7-1.1 1.3-.9 3.2.2zM380 245.4c0 .5-.7.1-1.5-1-.8-1-1.4-2.4-1.4-2.9 0-.6.6-.1 1.4.9.8 1.1 1.5 2.4 1.5 3zm1 10c0 .3-.4.8-1 1.1-.5.3-1 .1-1-.4 0-.6.5-1.1 1-1.1.6 0 1 .2 1 .4zm-163.6 5.9c-.7 1.8-2.4 2.3-2.4.7 0-.6.5-1 1.1-1 .6 0 .8-.7.4-1.8-.4-1.2-.3-1.4.5-.6.6.6.8 1.8.4 2.7zm313.6 3.2c0 .8-.2 1.5-.4 1.5s-.6-.7-1-1.5c-.3-.8-.1-1.5.4-1.5.6 0 1 .7 1 1.5zm-152.4 21.1c.1 1.9-.1 3.6-.5 3.8-.3.2-.6-1.6-.7-4-.1-2.4.2-4.2.5-3.8.3.3.7 2.1.7 4zm-160.8 6.9c-.3.3-.9-.2-1.2-1.2-.6-1.4-.5-1.5.5-.6.7.7 1 1.5.7 1.8zm162.9-1c0 .8-.4 1.2-.9.9-.7-.5-1.2 1-.9 2.8 0 .4-.6.5-1.4.1-1.1-.4-1.3-.9-.5-1.8.5-.6.6-1.6.2-2-.4-.5-.1-.5.6-.1.6.4 1.2.2 1.2-.3 0-.6.4-1.1.8-1.1.5 0 .9.7.9 1.5zm-161.2 9.3c-.2.9-.4 1.9-.5 2.2-.1.3-.2.8-.2 1.1.1.3-.6.6-1.4.6-1.2 0-1.2-.3.1-1.7 1.9-2.1.8-3.4-1.4-1.8-1 .8-.9.4.3-.9 2.1-2.5 3.6-2.2 3.1.5zm313.8.6c.4 1 .1 1.3-.8.9-.8-.3-1.2-.9-.9-1.4.7-1.2 1.1-1.1 1.7.5zm-263.9 1.2c1.8.7 2.2 3.4.5 3.4-.5 0-.8-.4-.4-.9.3-.5.1-1.2-.4-1.5-.5-.3-1.1.1-1.5.9-.3.8-1.1 1.5-1.8 1.5-.9 0-.8-.3.2-1 .8-.5 1.1-1 .7-1-.5 0-.5-.5-.2-1 .7-1.2.8-1.2 2.9-.4zM223 305c-1.2 2.3-1.6 2.4-2.6.8-.4-.6-.3-.8.3-.5.6.4 1.3 0 1.7-.8.3-.8.8-1.5 1.1-1.5.3 0 .1.9-.5 2zm2.7.2c-.3.8-.6.5-.6-.6-.1-1.1.2-1.7.5-1.3.3.3.4 1.2.1 1.9zm9.3-.7c0 .8-.4 1.5-1 1.5-.5 0-.7-.7-.4-1.5.4-.8.8-1.5 1-1.5.2 0 .4.7.4 1.5zm12.3 1c-.3.8-1 1.5-1.5 1.5-.7 0-.6-.5.1-1.3.6-.8.7-1.8.3-2.2-.4-.5-.2-.5.5-.1s1 1.3.6 2.1zm12.1-1c-.4.8-1.1 1.5-1.6 1.5-.6 0-.5-.6.2-1.5.7-.8 1.4-1.5 1.6-1.5.2 0 .1.7-.2 1.5zm4.7-.2c-.6.8-.9 1.6-.6 1.8.2.3-.4.5-1.4.5-1.1 0-1.7-.6-1.4-1.3.3-.7.9-1.1 1.3-.8.5.3 1.1.1 1.5-.5.3-.5.9-1 1.2-1 .3 0 0 .6-.6 1.3zm11-.3c.9-1.3 1-1.3.6 0-.2.8.3 2.4 1.2 3.4 1.2 1.5.8 1.4-1.6-.4-1.8-1.3-3.3-2.9-3.3-3.4 0-.6.5-.4 1 .4.9 1.3 1.1 1.3 2.1 0zm20.2 1.5c-.3.8-1 1.5-1.5 1.5-.7 0-.6-.5.1-1.3.6-.8.7-1.8.3-2.2-.4-.5-.2-.5.5-.1s1 1.3.6 2.1zm22.7-1c0 .2-.9.3-1.9.2-1.1 0-1.8-.5-1.5-.9.4-.6 3.4 0 3.4.7zm25.3 1c-.3.8-1 1.5-1.5 1.5-.7 0-.6-.5.1-1.3.6-.8.7-1.8.3-2.2-.4-.5-.2-.5.5-.1s1 1.3.6 2.1zm12.1-1c-.4.8-1.1 1.5-1.6 1.5-.6 0-.5-.6.2-1.5.7-.8 1.4-1.5 1.6-1.5.2 0 .1.7-.2 1.5zm21.6-.6c0 .6-.4 1.2-.8 1.5-.5.3-.9-.1-.9-.9s.4-1.5.9-1.5c.4 0 .8.4.8.9zm170.4.6c-.4.8-1.1 1.5-1.6 1.5-.6 0-.5-.6.2-1.5.7-.8 1.4-1.5 1.6-1.5.2 0 .1.7-.2 1.5zm6-.3c-.5.8-.1.9 1.2.4 1.4-.5 1.6-.4.7.5-1.3 1.3-3.7.3-2.8-1.2.4-.5.8-.9 1.1-.9.3 0 .2.5-.2 1.2zm14.6-.2c.4-.7 1-.8 1.3-.3.3.5-.3 1.5-1.5 2.2-1.1.7-1.7.8-1.3.2.3-.6.1-1.1-.5-1.1s-.8-.5-.4-1.2c.6-.9.9-.9 1.2.1.3 1 .6 1 1.2.1zm12.5 1.8c-.8.8-2.5-1-1.9-2 .4-.6.9-.5 1.5.3.4.7.6 1.5.4 1.7zm-220.8-.3c0 .6-.8 1.1-1.8 1.1-.9 0-1.5-.5-1.2-1.1.2-.7 1-1.2 1.7-1.2s1.3.5 1.3 1.2zm191.1-.2c.8 1 .6 1.3-.7 1.3-1.1 0-1.7-.6-1.4-1.3.3-.7.6-1.3.8-1.3.1 0 .7.6 1.3 1.3zm-12.4.6c.4.5-.3.7-1.4.4-2.3-.6-2.6-1.3-.6-1.3.8 0 1.7.4 2 .9zm32.3 1.4c0 .8-.6 1.4-1.4 1.4-.9 0-1-.4-.2-1.4.6-.7 1.2-1.3 1.4-1.3.1 0 .2.6.2 1.3zM225 308c0 .5-.5 1-1.1 1-.5 0-.7-.5-.4-1 .3-.6.8-1 1.1-1 .2 0 .4.4.4 1zm9.4-.2c.3.5-.1.9-.9.9s-1.2-.4-.9-.9c.3-.4.7-.8.9-.8.2 0 .6.4.9.8zm344.6-.4c0 .3-.4.8-1 1.1-.5.3-1 .1-1-.4 0-.6.5-1.1 1-1.1.6 0 1 .2 1 .4zm3.5.6c.3.6-.1.7-.9.4-1.8-.7-2.1-1.4-.7-1.4.6 0 1.3.4 1.6 1zm44.9 19.5c-.4.8-1.1 1.5-1.6 1.5-.6 0-.5-.6.2-1.5.7-.8 1.4-1.5 1.6-1.5.2 0 .1.7-.2 1.5zm5.6 4.6c0 .5-.4.9-.8.9-.5 0-.9-.7-.9-1.5s.4-1.2.9-.9c.4.3.8.9.8 1.5zm6.5 11.9c.3.6-.1.7-.9.4-1.8-.7-2.1-1.4-.7-1.4.6 0 1.3.4 1.6 1zM40 358c-1.2.8-1.2 1-.1 1 .8 0 1.2.3.8.6-.9.9-2.8-.6-2.2-1.7.4-.5 1.2-.9 1.8-.9.7 0 .6.4-.3 1zm611.6 1.9c0 1.1-.5 1.7-1.3 1.4-1.7-.6-1.7-2 0-2.6l1.2-.6c.1-.1.1.7.1 1.8zm-.6 4.1c0 .5-.2 1-.4 1-.3 0-.8-.5-1.1-1-.3-.6-.1-1 .4-1 .6 0 1.1.4 1.1 1zm2.8 3.8c-.7 1-1.3 1.8-1.4 2-.1.1-.4-.6-.7-1.7-.3-1.5-.1-1.8 1.1-1.4 1.1.5 1.3.3.7-.7-.5-.9-.4-1.1.4-.6.9.6.9 1.2-.1 2.4zm5.2 16.4c0 1.1-1.2 1-3-.2-1.2-.7-1.2-1-.1-1 .8 0 1.1-.6.7-1.8-.5-1.4-.4-1.4.9.2.8 1.1 1.5 2.3 1.5 2.8zm-1.3 2.6c.7.4 1.1 1.4.9 2.2-.6 3.1-1.8 5-2.8 4.4-.6-.4-.5-1 .3-1.4 1.9-1.2 1.9-3.9.1-5-1-.5-1.2-.9-.7-1 .6 0 1.5.4 2.2.8zM657 402c0 .5-.2 1-.4 1-.3 0-.8-.5-1.1-1-.3-.6-.1-1 .4-1 .6 0 1.1.4 1.1 1zm-616.6 9.2c-.5.8-.2.9.9.5 2.3-.9 2.1 0-.2 1.3-1.6.8-1.9.7-1.6-.8.5-2.3.4-2.2 1.1-2.2.3 0 .2.5-.2 1.2zM42 418c0 .5-.5 1-1.1 1-.5 0-.7-.5-.4-1 .3-.6.8-1 1.1-1 .2 0 .4.4.4 1zm3.7 13.6c0 1-1 1.1-3.5.5-.2-.1-.1-.5.2-.9.8-1.3 3.3-1 3.3.4zm2.3 5.8c-.7.7-1.3.7-2 0-.6-.6-.3-1 1-1s1.6.4 1 1zm602 2.6c0 .5-.2 1-.4 1-.3 0-.8-.5-1.1-1-.3-.6-.1-1 .4-1 .6 0 1.1.4 1.1 1zm-5.4 8.6c.1.9 0 1.3-.4 1-.3-.4-.7-1.4-.8-2.2-.1-.9 0-1.3.4-1 .3.4.7 1.4.8 2.2zM63.4 463.2c-.2.3.5.9 1.6 1.3 1.1.3 2 1.1 2 1.6 0 .6-1.7-.2-3.9-1.7-2.8-2.1-3.5-3.1-2.7-4 .8-.8 1.4-.7 2.2.5.7.9 1 1.9.8 2.3zm573.6-3.8c0 .2-.7.6-1.5 1-.8.3-1.5.1-1.5-.4 0-.6.7-1 1.5-1s1.5.2 1.5.4zM78.5 471.9c.3.5.2 1.2-.3 1.5-.5.3-.9-.1-.9-.9 0-1.7.3-1.9 1.2-.6zm2.2 3.7c-.3.3-1.2.4-1.9.1-.8-.3-.5-.6.6-.6 1.1-.1 1.7.2 1.3.5zm534.3.6c0 .9.4.8 1-.2.5-.8 1-1 1-.4s-.8 1.8-1.7 2.5c-1 .7-1.5.9-1.1.5.4-.5.3-1.5-.3-2.3-.9-.9-.8-1.3 0-1.3.6 0 1.1.6 1.1 1.2zM85 480c0 .5-.2 1-.4 1-.3 0-.8-.5-1.1-1-.3-.6-.1-1 .4-1 .6 0 1.1.4 1.1 1zm7.4.1c.3.3-.4.5-1.4.6-1.1.1-2.2-.2-2.4-.6-.5-.8 3-.8 3.8 0zm4.1 1.8c.3.5.2 1.2-.3 1.5-.5.3-.9-.1-.9-.9 0-1.7.3-1.9 1.2-.6zm7.8 5.8c-.6 1.4-.4 1.4 1.8-.1 2.3-1.4 2.5-1.4 2.5.3 0 2.8-5.1 2.2-5.2-.7-.1-1.2.2-1.9.7-1.6.4.2.5 1.2.2 2.1zM596 486c2.6-1.6 3.4-1.1 1.5 1-1.3 1.4-2.2 1.7-3.1 1-.8-.8-1.3-.7-1.6.1-.2.7-1.1 1.3-2.1 1.5-1.3.2-1.4-.1-.4-1.6.6-1 1.5-1.6 1.9-1.4.4.3.8-.1.8-.8 0-1 .2-1 .8-.1.5.8 1.3.9 2.2.3zm-475.5 1.9c-.9.8-3.6 1-3 .2.2-.4 1.1-.8 2-.8.8 0 1.3.3 1 .6zm432.6.5c-.8 1-.9 1.6-.1 2.1.5.3 1 1.2.9 1.8 0 .9-.2.9-.6-.1-.2-.6-.9-1.2-1.4-1.2-.6 0-.7.5-.3 1.2.4.6.3.8-.4.4-.6-.3-1.4-.1-1.7.4-.5.8-1.3.6-2.5-.5-1.3-1.2-1.9-1.3-2.2-.4-.2.7-1.1 1.3-2 1.5-1.1.1-1.5-.3-1.1-1.2.3-.8 1.1-1.4 1.9-1.4.8 0 1.4-.5 1.4-1 0-.6.5-1 1.1-1 .5 0 .7.5.4 1-.3.6.1 1.3 1.1 1.7 1.2.4 2.3-.2 3.6-2 1.1-1.5 2.2-2.7 2.5-2.7.3 0 0 .6-.6 1.4zm24.6.2c-.3.3-1.2.4-1.9.1-.8-.3-.5-.6.6-.6 1.1-.1 1.7.2 1.3.5zM137 491.5c0 1.7-3.8 1.5-4.5-.2-.4-1.1 0-1.1 1.7-.2 1.8 1 2 .9 1.5-.5-.4-1-.3-1.5.3-1.1.6.3 1 1.2 1 2zm8-1.5c0 .5-.2 1-.4 1-.3 0-.8-.5-1.1-1-.3-.6-.1-1 .4-1 .6 0 1.1.4 1.1 1zm5.8 1.3c1.5-.6 1.5-.5.3 1.1-1 1.2-1.6 1.3-2.1.6-.4-.7-1-1.1-1.4-1.1-.3.1-.6-.1-.6-.4 0-2.6.2-2.8 1.1-1.3.6 1.1 1.6 1.5 2.7 1.1zM193 490c0 .5-.2 1-.4 1-.3 0-.8-.5-1.1-1-.3-.6-.1-1 .4-1 .6 0 1.1.4 1.1 1zm5.8 1.3c1.5-.6 1.5-.5.3 1.1-1 1.2-1.6 1.3-2.1.6-.4-.7-1-1.1-1.4-1.1-.3.1-.6-.1-.6-.4 0-2.6.2-2.8 1.1-1.3.6 1.1 1.6 1.5 2.7 1.1zm13.7.3c0 2.5-1 2.3-1.7-.4-.3-1 0-1.9.6-1.9s1.1 1 1.1 2.3zm20.2-.3c-.4 1.4-3.7 1.8-3.7.5 0-.6-.6-.5-1.5.2-.9.8-1.5.8-1.5.2 0-1.6 2.3-2.1 4.4-.9 1.6.8 1.8.6 1.3-.7-.4-1.1-.3-1.5.4-1.1.5.4.8 1.2.6 1.8zm25.1-.3c-.7 1.1-1.6 2-2 2-.5 0-.3-.9.4-2s1.6-2 2-2c.5 0 .3.9-.4 2zm31.2-1c0 .5-.2 1-.4 1-.3 0-.8-.5-1.1-1-.3-.6-.1-1 .4-1 .6 0 1.1.4 1.1 1zm5.8 1.3c1.5-.6 1.5-.5.3 1.1-1 1.2-1.6 1.3-2.1.6-.4-.7-1-1.1-1.4-1.1-.3.1-.6-.1-.6-.4 0-2.6.2-2.8 1.1-1.3.6 1.1 1.6 1.5 2.7 1.1zm13.7.3c0 2.5-1 2.3-1.7-.4-.3-1 0-1.9.6-1.9s1.1 1 1.1 2.3zm20.2-.3c-.4 1.4-3.7 1.8-3.7.5 0-.6-.6-.5-1.5.2-.9.8-1.5.8-1.5.2 0-1.6 2.3-2.1 4.4-.9 1.6.8 1.8.6 1.3-.7-.4-1.1-.3-1.5.4-1.1.5.4.8 1.2.6 1.8zm26-.8c0 .8-.4 1.2-.9.9-.4-.3-.8 0-.8.5 0 .6-.5 1.1-1 1.1-.6 0-.5-.8.2-2 1.5-2.4 2.5-2.6 2.5-.5zm216.2 2.9c-.5.6-1.6.3-2.7-.7-1-.9-2.1-1.5-2.4-1.2-1.1 1.1-4.8 1.3-4.8.3 0-.7-.4-.7-1.3.1-1 .8-1.4.7-1.4-.2 0-.9 1.5-1.3 4.9-1.1 2.6.1 4.8-.3 4.8-.7 0-.5.8-.1 1.9.8 1 1 1.4 2.2 1 2.7zm-380.6-1.1c-.5.8-.8.7-1.1-.1-.3-1-.7-1-1.8-.1-.9.7-1.4.8-1.4.1 0-.6.6-1.2 1.3-1.5 1.8-.6 3.8.4 3 1.6zm56.7-1.9c0 .3-.4.8-1 1.1-.5.3-1 .1-1-.4 0-.6.5-1.1 1-1.1.6 0 1 .2 1 .4zm3.8 2.3c-.8 1-1.4 1.1-1.6.4-.2-.6-.9-.9-1.5-.5-.7.3-.3-.1.7-1 2.3-1.9 4.2-1 2.4 1.1zm4.2-2.3c0 .3-.4.8-1 1.1-.5.3-1 .1-1-.4 0-.6.5-1.1 1-1.1.6 0 1 .2 1 .4zm31.3 1.9c-.5.8-.8.7-1.1-.1-.3-1-.7-1-1.8-.1-.9.7-1.4.8-1.4.1 0-.6.6-1.2 1.3-1.5 1.8-.6 3.8.4 3 1.6zm56.7-1.9c0 .3-.4.8-1 1.1-.5.3-1 .1-1-.4 0-.6.5-1.1 1-1.1.6 0 1 .2 1 .4zm3.8 2.3c-.8 1-1.4 1.1-1.6.4-.2-.6-.9-.9-1.5-.5-.7.3-.3-.1.7-1 2.3-1.9 4.2-1 2.4 1.1zm4.2-2.3c0 .3-.4.8-1 1.1-.5.3-1 .1-1-.4 0-.6.5-1.1 1-1.1.6 0 1 .2 1 .4zm18 1.1c0 .2-.6.5-1.3.8-.8.3-1.4-.1-1.4-.8 0-.7.6-1.1 1.4-.8.7.3 1.3.6 1.3.8zm8 .5c0 .5-.4 1-1 1-.5 0-1-.5-1-1 0-.6.5-1 1-1 .6 0 1 .4 1 1zm155.7 1.2c-.3.8-.6.5-.6-.6-.1-1.1.2-1.7.5-1.3.3.3.4 1.2.1 1.9zM380.5 496c.3.5.1 1-.4 1-.6 0-1.1-.5-1.1-1 0-.6.2-1 .4-1 .3 0 .8.4 1.1 1zm150.3 5.5c-.3.3-.9-.2-1.2-1.2-.6-1.4-.5-1.5.5-.6.7.7 1 1.5.7 1.8zm.2 20.5c0 .5-.2 1-.4 1-.3 0-.8-.5-1.1-1-.3-.6-.1-1 .4-1 .6 0 1.1.4 1.1 1zm-.5 6.9c.3.5.2 1.2-.3 1.5-.5.3-.9-.1-.9-.9 0-1.7.3-1.9 1.2-.6zm2.9 14c-.1 1.4-.3 2.7-.4 2.8-.1.2-.3.7-.4 1.2 0 .5-.4 1.2-.8 1.6-.3.4-.5-.1-.4-1.2.2-1-.2-2.4-.8-3.2-.8-1.1-.8-1.3.1-.8.6.4 1.4.3 1.8-.3.3-.5.1-1-.4-1-.6 0-1.1-.4-1.1-.8 0-.5.6-.9 1.3-.9.9 0 1.3 1 1.1 2.6zM531 562c0 .5-.2 1-.4 1-.3 0-.8-.5-1.1-1-.3-.6-.1-1 .4-1 .6 0 1.1.4 1.1 1zm2.2 3.5c0 .5.4 1.8.9 2.7.6 1 .5 1.9-.1 2.3-.6.4-.7 1.2-.3 1.8.4.7 0 .6-1-.2-.9-.7-1.5-1.7-1.2-2.1.3-.5.2-1-.2-1.3-.5-.2-.2-.2.5-.1.6.2 1.2-.1 1.2-.6 0-.6-.6-1-1.2-1-.9 0-.9-.3.1-.9 1.1-.7 1-1-.5-1.4-1.6-.5-1.6-.6-.1-.4 1 .1 1.8.6 1.9 1.2zm-154.6 7.8c-.2 1.7.2 3.6.8 4 .7.6.6.7-.3.5-1-.3-1.6-1.9-1.7-4.6-.1-2.3.2-3.9.6-3.7.5.3.7 2 .6 3.8zm.4 9.8c0 .6-.4.7-1 .4-.5-.3-1-1.1-1-1.6 0-.6.5-.7 1-.4.6.3 1 1.1 1 1.6zm2.3 17.1c-.4.7-.6 2.1-.4 3.2.1 1-.2 1.5-.7 1.2-1.5-.9-.2-5.6 1.4-5.6.3 0 .2.6-.3 1.2zm147.7.2c0 .2-.8 1-1.7 1.7-1.6 1.3-1.7 1.2-.4-.4 1.3-1.6 2.1-2.1 2.1-1.3zm1 7c0 .2-1.1 1.1-2.4 2-1.8 1.1-2.7 1.3-3.2.4-.4-.6-.3-.8.3-.5.6.4 1.6 0 2.3-.8 1.1-1.4 3-2.1 3-1.1zM387.5 612c-.3.5-1.2 1-1.8 1-.7 0-.6-.4.3-1 1.9-1.2 2.3-1.2 1.5 0zm4.2 14.5c0 .8-.4 1.2-.9.9-.5-.3-.6-1-.3-1.5.9-1.3 1.2-1.1 1.2.6zm4.9 1.7c.3.4-.1.5-1 .4-.8-.1-1.8-.5-2.2-.8-.3-.4.1-.5 1-.4.8.1 1.8.5 2.2.8zm2.4 3.8c0 .5-.2 1-.4 1-.3 0-.8-.5-1.1-1-.3-.6-.1-1 .4-1 .6 0 1.1.4 1.1 1zm107.3 5.5c-.3.9-.8 1.4-1 1.1-.3-.3-.2-.9.2-1.5.9-1.6 1.5-1.3.8.4zm-10.9 10.3c.3.5-.1.9-.9.9s-1.2-.4-.9-.9c.3-.4.7-.8.9-.8.2 0 .6.4.9.8zm-17.8 8c-1.2 1.2-1.9 1.3-2.7.5-.8-.8-.6-1.1.7-1 1.1.1 1.8-.4 1.6-1.1-.1-.8.2-1.1.9-.7.8.5.6 1.2-.5 2.3zm-29.6 1.8c0 .8-1.9 1.3-2.4.6-.3-.5.1-.9.9-.9s1.5.2 1.5.3z"/><path d="M619.5 47c.3.5.8 1 1.1 1 .2 0 .4-.5.4-1 0-.6-.5-1-1.1-1-.5 0-.7.4-.4 1zM497.5 35.1c-.4.6-1.4.8-2.2.4-1.2-.4-1.3-.3-.5.8.7.8.9 1.7.5 2-.3.4-.4.7-.1.7.3 0 1.3-1.1 2.2-2.5.9-1.4 1.4-2.5 1.2-2.5-.3 0-.8.5-1.1 1.1zM532.3 35.9c-1.3 1.1-2.3 2.2-2.3 2.6 0 .4.6.3 1.3-.3 1-.9 2-.7 3.8.5 1.3.9 1.9 1 1.2.3-1-1.1-.9-1.6.5-2.7 1.5-1.3 1.5-1.3-.5-.4-3 1.5-3.8 1.4-2.3-.4 1.7-2 1-1.8-1.7.4zM312 36c-.9.6-1 1-.3 1 .6 0 1.5-.5 1.8-1 .8-1.2.4-1.2-1.5 0zM318.2 36.6c-.6.7-1.9 1.1-2.7.8-.8-.4-1.5-.2-1.5.2 0 .5 1.6.9 3.5 1 3.6.1 4-.3 2.7-2.2-.5-.9-1-.8-2 .2zM343.5 36c-.3.5-.1 1 .4 1 .6 0 1.1-.5 1.1-1 0-.6-.2-1-.4-1-.3 0-.8.4-1.1 1zM384.3 36.1c1.8 1 1.8 1.1 0 2.5-1 .7-1.3 1.4-.7 1.4.5 0 1.5-.5 2.2-1.2 1.3-1.3-.1-3.8-2.2-3.8-.6 0-.3.5.7 1.1zM387.6 36.3c.3 1 .9 1.5 1.2 1.2.3-.3 0-1.1-.7-1.8-1-.9-1.1-.8-.5.6zM398.4 35.9c.5.8.3 1.2-.5 1-2.6-.3-3.9.1-3.9 1.3 0 .9.3.9 1.2 0 .8-.8 1.7-.8 3-.1 2 1.1 3.8.4 3.7-1.4 0-.9-.2-.9-.6 0-.2.7-.9 1.3-1.4 1.3-.6 0-.8-.4-.4-.9.3-.5 0-1.3-.6-1.7-.8-.5-.9-.3-.5.5zM405 35.9c0 .6.4 1.3 1 1.6.6.3.7-.1.4-.9-.7-1.8-1.4-2.1-1.4-.7zM419.6 36.3c.3 1 .9 1.5 1.2 1.2.3-.3 0-1.1-.7-1.8-1-.9-1.1-.8-.5.6zM430.4 35.9c.5.8.3 1.2-.5 1-2.6-.3-3.9.1-3.9 1.3 0 .9.3.9 1.2 0 .8-.8 1.7-.8 3-.1 2 1.1 3.8.4 3.7-1.4 0-.9-.2-.9-.6 0-.2.7-.9 1.3-1.4 1.3-.6 0-.8-.4-.4-.9.3-.5 0-1.3-.6-1.7-.8-.5-.9-.3-.5.5zM437 35.9c0 .6.4 1.3 1 1.6.6.3.7-.1.4-.9-.7-1.8-1.4-2.1-1.4-.7zM449 36.1c0 .5-.4.8-.9.5-.5-.3-1.2.1-1.5.9-.4 1.3-.2 1.4 1.4.5 1.8-1 2.8-3 1.5-3-.3 0-.5.5-.5 1.1zM483.8 36.4c-1 .7-1.8 1.7-1.8 2.1 0 .4.6.3 1.3-.3 1-.9 2-.7 3.8.5 1.3.9 1.9 1 1.2.3-1-1.1-.9-1.6.5-2.7 1.5-1.3 1.5-1.3-.5-.4-2.7 1.4-3.6 1.4-2.8.1.8-1.3.4-1.2-1.7.4zM517 35.9c0 .6.4 1.3 1 1.6.6.3.7-.1.4-.9-.7-1.8-1.4-2.1-1.4-.7zM579.7 36.7c.3.7.6 1.3.8 1.3.2 0 .5-.6.8-1.3.3-.8-.1-1.4-.8-1.4-.7 0-1.1.6-.8 1.4zM366.7 37.6c.3.7.9 1.4 1.4 1.4 1.4 0 1-1.7-.5-2.3-1-.4-1.3-.1-.9.9zM462.7 37.6c.6 1.5 2.3 1.9 2.3.5 0-.5-.7-1.1-1.4-1.4-1-.4-1.3-.1-.9.9zM558.7 37.6c.6 1.5 2.3 1.9 2.3.5 0-.5-.7-1.1-1.4-1.4-1-.4-1.3-.1-.9.9zM590.7 38.1c.7 2.6 1.9 3.2 2 .9.1-1-.4-2.1-1.2-2.3-.9-.4-1.1.1-.8 1.4zM594.8 36.7c.7.3 1.6.2 1.9-.1.4-.3-.2-.6-1.3-.5-1.1 0-1.4.3-.6.6zM586 37.4c0 .2.7.6 1.5 1 .8.3 1.5.1 1.5-.4 0-.6-.7-1-1.5-1s-1.5.2-1.5.4zM602.8 38.7c.6.2 1.8.2 2.5 0 .6-.3.1-.5-1.3-.5-1.4 0-1.9.2-1.2.5zM294.6 39.8c-.2.4-.1 1.4.4 2.2.7 1.2 1.2 1.2 2.2.2.9-.9.8-1.2-.7-1.2-1.7 0-1.8-.2-.5-1 .9-.6 1-1 .3-1-.6 0-1.4.4-1.7.8zM607 40.1c0 .4-1.1.6-2.5.5-1.3-.2-2.2.1-1.9.5.3.5 1.7.7 3.2.4 1.4-.2 3.3.1 4.1.8 1.4 1 1.4 1 .4-.4-.7-.9-1.1-1.8-.8-2.1.3-.2-.2-.5-1-.5s-1.5.4-1.5.8zM611 40c0 .5.5 1 1 1 .6 0 1-.5 1-1 0-.6-.4-1-1-1-.5 0-1 .4-1 1zM291 42c0 .5.5 1 1 1 .6 0 1-.5 1-1 0-.6-.4-1-1-1-.5 0-1 .4-1 1zM275.7 48.7c.3.7.6 1.3.8 1.3.2 0 .5-.6.8-1.3.3-.8-.1-1.4-.8-1.4-.7 0-1.1.6-.8 1.4zM110.6 50.5c.7 1.7.6 1.8-.8.7s-1.6-1.1-1.4.2c.3 2.4 1.2 2.8 2.6 1.1 1-1.2 1.1-1.8.1-2.8-1-.9-1.1-.8-.5.8zM123.5 50c-.3.5-.1 1 .4 1 .6 0 1.1-.5 1.1-1 0-.6-.2-1-.4-1-.3 0-.8.4-1.1 1zM142.6 50.2c.3.5 1 .6 1.5.3 1.3-.9 1.1-1.2-.6-1.2-.8 0-1.2.4-.9.9zM149 50c0 .5.5 1 1.1 1 .5 0 .7-.5.4-1-.3-.6-.8-1-1.1-1-.2 0-.4.4-.4 1zM96.7 54.3c-.3.8-2.1 1.3-4.7 1.2-2.2-.1-4.3.2-4.5.5-.2.3 2.4.6 5.7.6 3.3 0 5.6-.2 5-.4-.6-.2-.8-1-.5-1.8.3-.8.3-1.4 0-1.4s-.7.6-1 1.3zM267.9 53.3c-.1.4-.2 1.3-.3 1.9-.1.7-.9 1.2-1.8 1.2-1.1-.1-1.4.4-1 1.5.5 1.4.4 1.4-1.4.1-1.7-1.4-1.8-1.3-.7.1.7.9 1 1.9.6 2.2-.3.4-.1.7.5.7.7 0 1.2-.5 1.2-1 0-.6.3-.9.8-.9 2.7.5 3.9-.3 3.8-2.6-.2-2.2-1.4-4.7-1.7-3.2zm1.1 3.1c0 .2-.8 1-1.7 1.7-1.6 1.3-1.7 1.2-.4-.4 1.3-1.6 2.1-2.1 2.1-1.3zM630.5 54c.3.5 1 1 1.6 1 .5 0 .9-.5.9-1 0-.6-.7-1-1.6-1-.8 0-1.2.4-.9 1zM167 59.2c0 .6.3.8.7.5.3-.4 1.2-.2 2 .4.8.7 1.3.8 1.3.1 0-.5-.7-1.3-1.6-1.6-2.2-.8-2.4-.8-2.4.6zM642.5 60.1c-.4.6-.5 1.2-.2 1.5.2.3.7-.2 1-1.1.7-1.7.1-2-.8-.4zM177.5 62c.3.5.8 1 1.1 1 .2 0 .4-.5.4-1 0-.6-.5-1-1.1-1-.5 0-.7.4-.4 1zM176 63.6c0 1.1 5.8 5.7 7.7 6 .6.1 1.4-.4 1.6-1 .3-.7-.1-1.3-.9-1.3s-1.4.5-1.4 1c0 1.1-1.5 0-1.5-1.1-.1-1.6-1.7-3.2-2.7-2.6-.6.4-1.4 0-1.9-.7-.5-.8-.9-.9-.9-.3zM643 63.9c0 .6.4 1.2 1 1.6.5.3.8 1.1.6 1.8-.1.7-.1.9.1.4.3-.4 1.3.3 2.4 1.5 1 1.3 1.8 1.7 1.9 1 0-.6-.4-1.2-1-1.2-.5 0-1-.6-1-1.4 0-.8-.7-1.7-1.6-2-.8-.3-1.2-1-.9-1.6.3-.5.1-1-.4-1-.6 0-1.1.4-1.1.9zM647 63.9c0 .6.4 1.3 1 1.6.6.3.7-.1.4-.9-.7-1.8-1.4-2.1-1.4-.7zM187.9 68.7c-1.3 1.6-1.2 1.7.4.4 1.6-1.3 2.1-2.1 1.3-2.1-.2 0-1 .8-1.7 1.7zM65.5 70c.4.6 1.4 1 2.3 1 1.3 0 1.4.2.3.9-.9.6-.6.8 1.3.8 3.2 0 2.6-1.2-1.4-2.6-1.8-.6-2.8-.6-2.5-.1zM255 69.4c0 .2.6.9 1.3 1.5 1 .8 1.4.7 1.4-.4 0-.8-.6-1.5-1.4-1.5-.7 0-1.3.2-1.3.4zM55.6 81.8c-.3.5.1.9.9.9s1.2-.4.9-.9c-.3-.4-.7-.8-.9-.8-.2 0-.6.4-.9.8zM659.5 83.1c-.4.6-.5 1.2-.2 1.5.2.3.7-.2 1-1.1.7-1.7.1-2-.8-.4zM200.6 86.5c1.9 1.5 1.9 1.5-.1.9-1.2-.4-.8.2 1 1.4 3.4 2.2 4.5 2.1 2.1-.3-.9-.9-1.6-2.1-1.6-2.6s-.8-.9-1.7-.9c-1.5 0-1.4.2.3 1.5zM46 98c.8.5 2 1 2.5 1 .6 0 .3-.5-.5-1s-1.9-1-2.5-1c-.5 0-.3.5.5 1zM660 98c-1.3.8-1.2 1 .3 1 .9 0 1.7-.5 1.7-1 0-1.2-.1-1.2-2 0zM211 100.4c0 .8.4 1.7.8 2 .4.2.8-.4.8-1.5 0-1-.4-1.9-.8-1.9s-.8.6-.8 1.4zM240.5 102.1c-.4.6-.5 1.2-.2 1.5.2.3.7-.2 1-1.1.7-1.7.1-2-.8-.4zM242.1 103.9c-.6 1-.7 2.2-.3 2.6.4.5-.2.5-1.3.2-1.9-.7-1.9-.6-.2.7 1.7 1.4 1.7 1.5-.2 3.3-1.6 1.5-1.8 2-.6 2 .8 0 1.5-.4 1.5-.9s.4-.7.8-.4c.5.3.8-.5.7-1.7-.1-1.2 0-2.6.3-3.2.7-1 1.1-4.5.6-4.5-.2 0-.8.8-1.3 1.9zM213.5 105.9c-.3.5-.2 1.2.3 1.5.5.3.9-.1.9-.9 0-1.7-.3-1.9-1.2-.6zM661.9 108.7c-1.3 1.6-1.2 1.7.4.4.9-.7 1.7-1.5 1.7-1.7 0-.8-.8-.3-2.1 1.3zM663 111.4c0 .8.4 1.7.9 2 .5.4.7-.3.4-1.4-.6-2.3-1.3-2.6-1.3-.6zM660.7 113.6c-.4.4.2 1.4 1.4 2.2 1.7 1.1 2.3 1.2 3.2.2.9-1 .9-1.1-.1-.5-.8.4-1.8 0-2.5-1-.7-.9-1.6-1.3-2-.9zM39 121v1.5c0 1.2 1.4.4 1.6-1 .1-.8-.2-1.5-.7-1.5-.5 0-.9.4-.9 1zM239.7 125.1c.7.7 1.5 1 1.8.7.3-.3-.2-.9-1.2-1.2-1.4-.6-1.5-.5-.6.5zM37.9 126c-.1.5-.2 1.8-.3 2.7-.1 1-.5 2.4-.9 3-.5.8-.4 1.3.2 1.3 1.1 0 1.2-.3 1.5-3.8.1-.9.5-2.3.9-3 .5-.7.4-1.2-.2-1.2-.6 0-1.2.4-1.2 1zM242.9 126.2c-.5 1.9-.8 5-.4 4.6.7-.7 1.5-4.8.9-4.8-.2 0-.4.1-.5.2zM660.6 135.7c-.6 1.4-.5 1.5.5.6.7-.7 1-1.5.7-1.8-.3-.3-.9.2-1.2 1.2zM243.9 136.3c1.2 1.5 1.2 2-.5 3.3-1.8 1.4-1.8 1.5.2.5 1.2-.6 2.3-.8 2.6-.6.2.2.4-.5.4-1.5s-.2-1.7-.5-1.5c-.2.3-1.1-.1-2-.8-1.4-1.1-1.4-1-.2.6zM657.5 138c.3.5 1.4 1 2.3 1 1.5 0 1.5-.2.2-1-2-1.3-3.3-1.3-2.5 0zM36.9 139.2c-.1.7-.1 1.9 0 2.7.2.8-.3 1-1.1.6-.7-.4-.5 0 .4 1 2.1 2.3 3.4 1.4 1.9-1.3-.7-1.3-.7-2.2.1-3 .9-.9.9-1.2 0-1.2-.7 0-1.3.6-1.3 1.2zM244 142.5c-.7.9-1.1 1.7-.9 2 .3.2 1-.5 1.7-1.5 1.4-2.4 1-2.6-.8-.5zM246 143.7c0 1.7 1.4 2.3 2.9 1.4.9-.6 1-1.1.2-1.5-.6-.4-1.1-.1-1.1.6 0 .9-.3.9-1-.2-.6-.9-1-1-1-.3zM657.1 144.6c0 1.1.3 1.4.6.6.3-.7.2-1.6-.1-1.9-.3-.4-.6.2-.5 1.3zM248.5 146.8c-1 .7-1.8 3.2-1 3.2.2 0 .9-.9 1.5-2 1.2-2.2 1.1-2.4-.5-1.2zM33 150.1c0 .5.5.7 1 .4.6-.3 1-.8 1-1.1 0-.2-.4-.4-1-.4-.5 0-1 .5-1 1.1zM653 154.1c0 .5.5.7 1 .4.6-.3 1-.8 1-1.1 0-.2-.4-.4-1-.4-.5 0-1 .5-1 1.1zM649.9 158.2c-.6 2-.6 3.9 0 4.2.4.3.7-.6.7-2 0-2-.4-3.2-.7-2.2zM257.3 163.2c0 1.3.1 1.7.4 1 .3-.6.9-1.2 1.4-1.2.6 0 .7.5.3 1.2-.4.7-.3.8.5.4.9-.6.9-1.1 0-2.2-1.6-2-2.5-1.7-2.6.8zM644.5 166c-.3.6.1.7.9.4 1.8-.7 2.1-1.4.7-1.4-.6 0-1.3.4-1.6 1zM639.7 166.7c-1.1 1.1-.8 2 .7 2 .8 0 1.2-.6.9-1.4-.6-1.5-.7-1.5-1.6-.6zM636.4 168.5c.4 2.4 1.6 3 1.6.7 0-1.2-.4-2.2-.9-2.2s-.8.7-.7 1.5zM639 171.1c0 .5.5.7 1 .4.6-.3 1-.8 1-1.1 0-.2-.4-.4-1-.4-.5 0-1 .5-1 1.1zM637 172.9c0 .6.4 1.3 1 1.6.6.3.7-.1.4-.9-.7-1.8-1.4-2.1-1.4-.7zM273.5 177.1c-.4.6-.5 1.2-.2 1.5.2.3.7-.2 1-1.1.7-1.7.1-2-.8-.4zM278.5 179c-.3.5-.3 1 .2 1 .4 0 .1.5-.7 1-1.1.8-.6.9 1.8.5s3.2-.2 2.6.6c-.4.8-.3.9.5.5 1.4-.9.7-2.2-1.9-3.6-1.3-.7-2.1-.7-2.5 0zM33 182.1c0 .5.5.7 1 .4.6-.3 1-.8 1-1.1 0-.2-.4-.4-1-.4-.5 0-1 .5-1 1.1zM621.6 183.3c.3 1 .9 1.5 1.2 1.2.3-.3 0-1.1-.7-1.8-1-.9-1.1-.8-.5.6zM287.3 184.8c0 1.2.5 2.2.9 2.2 1.1 0 1-1.2-.2-3-.7-1.2-.9-1-.7.8zM609 185.9c0 .5.5 1.3 1 1.6.6.3 1 .2 1-.4 0-.5-.4-1.3-1-1.6-.5-.3-1-.2-1 .4zM298.5 188.1c-.4.6-.5 1.2-.2 1.5.2.3.7-.2 1-1.1.7-1.7.1-2-.8-.4zM301 188.4c0 .8.7 1.7 1.6 2 .8.3 1.2.2.9-.4-.3-.6-.2-1 .3-1s1.4 1 2 2.2c.6 1.3 1.1 1.7 1.1 1 .1-1.4-3.4-5.2-4.9-5.2-.5 0-1 .6-1 1.4zM601.5 188c-.3.5-.1 1 .5 1s.8.5.4 1.2-.3.8.4.4c.6-.4.9-1.3.5-2.1-.6-1.8-1-1.9-1.8-.5zM604.6 188.2c.3.4.9.8 1.5.8.5 0 .9-.4.9-.8 0-.5-.7-.9-1.5-.9s-1.2.4-.9.9zM349 188.3c0 .3 1.5 1.6 3.3 2.8 1.7 1.3 2.6 1.6 2 .8-.7-.9-.9-2-.5-2.4.4-.5.1-.5-.6-.1s-1.9.2-2.7-.4c-.8-.7-1.5-1-1.5-.7zM564.5 189c-.6 1 1.4 2.5 2.2 1.6.4-.3 1.5.2 2.6 1.1 2 1.8 2 1.8.4-.6-1.7-2.5-4.3-3.6-5.2-2.1zM219.4 189.8c.4.7.1 1.2-.8 1.2-.8 0-1.8.5-2.2 1.2-.5.7-.3.8.6.3.7-.4 1.5-.2 2 .5.5.8.9.5 1.3-.9.3-1.2 0-2.4-.5-2.8-.7-.3-.8-.1-.4.5zM321.4 190.2c-.6.9-.6.9 2.3 1.2 1.2.2 1.9-.2 1.7-.9-.6-1.3-3.2-1.6-4-.3zM361 189.7c0 .4.5 1.5 1 2.3.8 1.3 1 1.3 1-.2 0-.9-.4-2-1-2.3-.5-.3-1-.3-1 .2zM364.5 189.9c-.3.5-.2 1.2.3 1.5.5.3.9-.1.9-.9 0-1.7-.3-1.9-1.2-.6zM571 190.5c.6.8 1.9 1.1 2.8.8 1.5-.6 1.6-.5.2 1.3-1.4 1.7-1.4 1.8.2.6.9-.8 2.2-1.1 2.8-.7.5.3 1 .4 1 .1 0-.8-3.8-2.7-6.2-3.1-1.6-.3-1.8-.2-.8 1zM330 192.1c0 .5.5.7 1 .4.6-.3 1-.8 1-1.1 0-.2-.4-.4-1-.4-.5 0-1 .5-1 1.1zM543.6 192.6c-.5 1.3-.4 1.4.7.6.8-.7 1.8-.8 2.2-.4.5.4.5.1.1-.6-1-1.7-2.3-1.5-3 .4zM589 191.8c0 .5.7.9 1.5.9s1.2-.4.9-.9c-.3-.4-.9-.8-1.5-.8-.5 0-.9.4-.9.8zM371.3 194.5c0 .7.6 1.1 1.4.8.7-.3 1.3-.6 1.3-.8 0-.2-.6-.5-1.3-.8-.8-.3-1.4.1-1.4.8zM373.5 198c-.8 1.3.5 1.3 2.5 0 1.3-.8 1.3-1-.2-1-.9 0-2 .4-2.3 1zM375.5 200c-.3.5-.3 1 .2 1 .4 0 .1.5-.7 1-1.1.7-1.1 1-.2 1 .7 0 1.1.4.7.9-.3.5-.1 1.2.4 1.5.5.4 1.2.2 1.5-.3.4-.5.2-1.3-.4-1.6-.8-.5-.8-1.1 0-2 .7-.8.7-1.5.1-1.9-.5-.4-1.2-.2-1.6.4zM533.9 203.5c-.1.3-.2.8-.3 1.2-.1.5-.5 1.3-.9 1.9-1.1 1.8 2.1 4 3.6 2.5.9-1 .8-1.1-.4-.6-2.2.8-2.1-3.7.1-4.7 1.2-.5 1.2-.7-.2-.7-1-.1-1.9.1-1.9.4zM35 205.8c0 .4.9.8 2 .9 1.1.1 1.8-.2 1.5-.8-.7-1.1-3.5-1.2-3.5-.1zM375.5 208c-.3.5.1 1 .9 1 .9 0 1.6-.5 1.6-1 0-.6-.4-1-.9-1-.6 0-1.3.4-1.6 1zM374.4 211.2c.4 1.9 2.3 2 3 .2.5-1.4.4-1.5-.8-.5-1 .8-1.6.9-1.9.1-.3-.6-.4-.5-.3.2zM535 214c0 .5.5 1 1.1 1 .5 0 .7-.5.4-1-.3-.6-.8-1-1.1-1-.2 0-.4.4-.4 1zM36.5 217c.3.5.1 2-.5 3.2-1 2.1-1 2.1.3.6.8-1 1.6-1.6 1.9-1.3.2.3.5-.2.5-1s-.7-1.7-1.4-1.9c-.8-.3-1.1-.1-.8.4zM535.4 217.1c-.3.6-.2 1.5.3 2s.9.1.9-1.1c0-2.3-.2-2.4-1.2-.9zM535 222c0 .5.5 1 1.1 1 .5 0 .7-.5.4-1-.3-.6-.8-1-1.1-1-.2 0-.4.4-.4 1zM34.6 223.8c-.3.5.1.9.9.9s1.2-.4.9-.9c-.3-.4-.7-.8-.9-.8-.2 0-.6.4-.9.8zM533.3 226.1c.3.9.1 2.1-.4 2.6-.6.6-.5 1.4.3 2 1 .8 1.8.4 3.2-1.5 2-2.7 2-2.7 0-1-2.5 2.2-4.1 2.4-2.4.3 1.1-1.3 1.1-1.8 0-2.8-1-1-1.2-.9-.7.4zM219.5 231.1c-.4.6-.5 1.2-.2 1.5.2.3.7-.2 1-1.1.7-1.7.1-2-.8-.4zM373.3 234.5c0 .8.4 1.2.9.9.5-.3.6-1 .3-1.5-.9-1.3-1.2-1.1-1.2.6zM532.9 234.7c-.7 1-1 1.5-.5 1.1.5-.4 1.7-.3 2.7.2 1.2.7 2 .7 2.4 0 .4-.6.3-1-.2-.9-2 .3-3.4-.2-2.8-1.1 1-1.7-.2-1.1-1.6.7zM37 236.4c0 .9-.4 1.5-.8 1.2-.4-.2-.9.5-.9 1.6-.2 1.9-.1 1.9 1.1.3.9-1.2 1.8-1.5 2.7-1 1.1.7 1.1.5-.1-1.1-.8-1-1.6-2.1-1.7-2.3-.2-.2-.3.3-.3 1.3zM532.5 238c.4.6 1.1.8 1.6.5 1.4-.9 1.1-1.5-.7-1.5-.8 0-1.2.5-.9 1zM533.6 245.9c-.3.4.4 1.7 1.5 2.7 1.8 1.6 1.9 1.6 1.3.1-.3-.9-1-1.7-1.6-1.7-.5 0-.6-.5-.3-1 .3-.6.4-1 .1-1-.3 0-.7.4-1 .9z"/><path d="M533.3 250.1c.3.9.1 2.1-.4 2.6-.6.6 0 1.8 1.4 3.1 1.8 1.7 2.4 1.9 2.4.8 0-.8-.4-1.3-.9-1-1.4.9-.9-.9 1-3 1.7-2.1 1.7-2.1-.4-.4-2.5 2.2-4.1 2.3-2.4.3 1.1-1.3 1.1-1.8 0-2.8-1-1-1.2-.9-.7.4zM533.3 258.1c.3.9.1 2.1-.4 2.6-.6.6-.5 1.4.3 2 1 .8 1.8.4 3.2-1.5 2-2.7 2-2.7 0-1-2.5 2.2-4.1 2.4-2.4.3 1.1-1.3 1.1-1.8 0-2.8-1-1-1.2-.9-.7.4zM33 262.1c0 .5.5.7 1 .4.6-.3 1-.8 1-1.1 0-.2-.4-.4-1-.4-.5 0-1 .5-1 1.1zM532.9 266.7c-.7 1-1 1.5-.5 1.1.5-.4 1.7-.3 2.7.2 1.2.7 2 .7 2.4 0 .4-.6.3-1-.2-.9-2 .3-3.4-.2-2.8-1.1 1-1.7-.2-1.1-1.6.7zM532.5 270c.4.6 1.1.8 1.6.5 1.4-.9 1.1-1.5-.7-1.5-.8 0-1.2.5-.9 1zM217.6 272.8c-1.1 2.2-1.2 3.1-.1 4.5.7.9 1.8 1.7 2.6 1.7s.7-.4-.5-1.3c-1.3-.9-1.6-2-1.1-4 .4-1.5 1.2-2.4 1.8-2 .6.3.7.1.3-.5-1-1.7-1.4-1.5-3 1.6zM34.5 272.4c1.8 1.3 1.8 1.6.5 3.3-.8 1-.5.9.6-.3 1.2-1.3 2.5-2 3-1.6.4.4.4.1 0-.6s-1.1-1-1.6-.7c-.5.3-1.1.1-1.5-.5-.3-.5-1.1-1-1.8-1-.6 0-.2.6.8 1.4zM375.5 272c-.3.5.1 1 .9 1 .9 0 1.6-.5 1.6-1 0-.6-.4-1-.9-1-.6 0-1.3.4-1.6 1zM374.4 275.2c.4 1.9 2.3 2 3 .2.5-1.4.4-1.5-.8-.5-1 .8-1.6.9-1.9.1-.3-.6-.4-.5-.3.2zM533.6 277.9c-.3.4.4 1.7 1.5 2.7 1.8 1.6 1.9 1.6 1.3.1-.3-.9-1-1.7-1.6-1.7-.5 0-.6-.5-.3-1 .3-.6.4-1 .1-1-.3 0-.7.4-1 .9zM35.3 279.4c-.3.6-.3.8.2.4.4-.4 1.3-.1 1.9.8 1 1.3 1.2 1.3 1.2-.4 0-2-2.3-2.6-3.3-.8z"/><path d="M533.3 282.1c.3.9.1 2.1-.4 2.6-.6.6-.2 1.6 1 2.7 1.4 1.3 2.1 1.4 2.7.5.4-.8.3-1-.4-.5-1.8 1.1-1.4-.5.6-2.8 1.7-2.1 1.7-2.1-.4-.4-2.5 2.2-4.1 2.3-2.4.3 1.1-1.3 1.1-1.8 0-2.8-1-1-1.2-.9-.7.4zM37.6 286.6c-.9.8-1.6 2-1.6 2.6 0 .6.1.9.3.7.1-.2 1.1-1.4 2.1-2.7 2.2-2.5 1.6-3-.8-.6zM220 291.4c0 .2.7.7 1.6 1 .8.3 1.2.2.9-.4-.6-1-2.5-1.4-2.5-.6zM534.1 293.9c-.7.5-.9 1.1-.5 1.4.5.3 1.5-.1 2.2-.9 1.4-1.6.5-1.8-1.7-.5zM220 295.8c0 .5.7.9 1.5.9s1.2-.4.9-.9c-.3-.4-.9-.8-1.5-.8-.5 0-.9.4-.9.8zM374.4 298.8c-.1 1.5.1 2.1.3 1.4.3-.6.9-.9 1.5-.6.6.4.5-.2-.1-1.5-1.5-2.7-1.6-2.7-1.7.7zM309.6 300.2c.3.5 1 .6 1.5.3 1.3-.9 1.1-1.2-.6-1.2-.8 0-1.2.4-.9.9zM333.6 300.7c-.6 1.4-.5 1.5.5.6.7-.7 1-1.5.7-1.8-.3-.3-.9.2-1.2 1.2zM369.5 300c-.3.5-.1 1 .4 1 .6 0 1.1-.5 1.1-1 0-.6-.2-1-.4-1-.3 0-.8.4-1.1 1zM540 300c.8.5 2 1 2.5 1 .6 0 .3-.5-.5-1s-1.9-1-2.5-1c-.5 0-.3.5.5 1zM566.6 299.8c-.3.5.1.9.9.9s1.2-.4.9-.9c-.3-.4-.7-.8-.9-.8-.2 0-.6.4-.9.8zM535.5 301c.3.5.8 1 1.1 1 .2 0 .4-.5.4-1 0-.6-.5-1-1.1-1-.5 0-.7.4-.4 1zM35 301.8c0 .4.9.8 2 .9 1.1.1 1.8-.2 1.5-.8-.7-1.1-3.5-1.2-3.5-.1zM228.3 303.2c1.3 2 2.7 2.4 2.7.8 0-.6-.5-1-1.1-1-.5 0-.8-.4-.5-.8.3-.5-.1-.9-.8-.9-1.1 0-1.2.4-.3 1.9zM36.5 313c.3.5.1 2-.5 3.2-1 2.1-1 2.1.3.6.8-1 1.6-1.6 1.9-1.3.2.3.5-.2.5-1s-.7-1.7-1.4-1.9c-.8-.3-1.1-.1-.8.4zM35.4 330.9c.4.6.2 1.9-.5 2.7-1 1.2-.9 1.3.5.8 1.9-.7 2.1-3 .4-4-.7-.4-.8-.3-.4.5zM635.3 335c.1 1.1.9 2.3 1.9 2.6 1 .3 1.6.9 1.3 1.4-.3.5 0 1.2.7 1.6.7.4 1 .4.6-.1-.4-.4-.3-1.4.4-2.2.6-.8.7-1.3.2-1.2-2.1.4-3.4-.2-3.4-1.5 0-.8-.4-1.7-.9-2.1-.6-.3-.9.4-.8 1.5zM33 342.1c0 .5.5.7 1 .4.6-.3 1-.8 1-1.1 0-.2-.4-.4-1-.4-.5 0-1 .5-1 1.1zM647 346.1c0 .5.5.7 1 .4.6-.3 1-.8 1-1.1 0-.2-.4-.4-1-.4-.5 0-1 .5-1 1.1zM649.5 353.9c-.3.5-.2 1.2.3 1.5.5.3.9-.1.9-.9 0-1.7-.3-1.9-1.2-.6zM33 374.1c0 .5.5.7 1 .4.6-.3 1-.8 1-1.1 0-.2-.4-.4-1-.4-.5 0-1 .5-1 1.1zM33.5 384c.3.5.8 1 1.1 1 .2 0 .4-.5.4-1 0-.6-.5-1-1.1-1-.5 0-.7.4-.4 1zM661 388.4c0 .8.4 1.7.8 2 .4.2.8-.4.8-1.5 0-1-.4-1.9-.8-1.9s-.8.6-.8 1.4zM35 389.8c0 .4.9.8 2 .9 1.1.1 1.8-.2 1.5-.8-.7-1.1-3.5-1.2-3.5-.1zM36.5 393c.3.5.1 2-.5 3.2-1 2.1-1 2.1.3.6.8-1 1.8-1.4 2.2-1 .4.4.2-.3-.4-1.6-.6-1.2-1.4-2.2-1.7-2.2-.3 0-.2.4.1 1zM659 393.4c0 .2.7.7 1.6 1 .8.3 1.2.2.9-.4-.6-1-2.5-1.4-2.5-.6zM659.4 396.4c.1.8.7 2 1.4 2.8.6.8.8 1.9.4 2.3-.4.5-.1.5.6.1 1.1-.6 1-1.2-.5-2.9-1.7-1.9-1.7-2 0-1.4 2.3.9 2.2 0-.2-1.3-1.5-.7-1.9-.7-1.7.4zM661.5 405.9c-.3.5-.2 1.2.3 1.5.5.3.9-.1.9-.9 0-1.7-.3-1.9-1.2-.6zM656.5 415c-.4.6-.2 1.7.4 2.3 1.5 1.5 2.5.2 1.3-1.9-.7-1.2-1.1-1.3-1.7-.4zM657 419.5c0 .2.6.8 1.3 1.4 1 .8 1.4.7 1.4-.2 0-.8-.6-1.4-1.4-1.4-.7 0-1.3.1-1.3.2zM653 438.9c0 .6.4 1.3 1 1.6.6.3.7-.1.4-.9-.7-1.8-1.4-2.1-1.4-.7zM43 439.5c0 .5.5 1.7 1 2.5s1 1 1 .5c0-.6-.5-1.7-1-2.5s-1-1.1-1-.5zM46.4 441.7c.2.9.8 1.9 1.4 2.1.7.2.9.9.6 1.4-.5.7-.2.8.6.3 1-.6 1-1.1-.3-2-.9-.7-1.4-1.4-1.1-1.7.3-.4.1-.9-.4-1.2-.6-.3-.9.2-.8 1.1zM651.1 442.9c-.8.5-2 .7-2.6.5-.7-.3-1.5.2-1.9 1.2-.5 1.4-.4 1.5.8.5.8-.7 1.6-.8 1.8-.3.1.5 1.2.1 2.2-.9 2.1-2 2-2.4-.3-1zM50.9 447.7c0 .4-.2 1.8-.3 3-.2 1.8 0 2 1.1 1.1 1-.8 1.1-1.3.2-1.8-.8-.6-.8-.9.2-1.2 1-.3 1-.6.1-1.2-.7-.4-1.2-.4-1.3.1zM634.5 464c.3.5.8 1 1.1 1 .2 0 .4-.5.4-1 0-.6-.5-1-1.1-1-.5 0-.7.4-.4 1zM66.6 469.6c-2.2 2.2-2 3.1.2 1.1 1-1 2.2-1.4 2.5-1.1.4.4-.1 1.3-1.1 2.1-.9.8-1.2 1.2-.5.9.6-.4 1.4 0 1.6.6.3.8.6.6.6-.5.1-1.2.5-1.6 1.4-1.1.6.4.3-.2-.7-1.4-2.3-2.6-2.1-2.6-4-.6zM619.5 474c-.3.5-.1 1 .4 1 .6 0 1.1-.5 1.1-1 0-.6-.2-1-.4-1-.3 0-.8.4-1.1 1zM622.1 475.6c0 1.1.3 1.4.6.6.3-.7.2-1.6-.1-1.9-.3-.4-.6.2-.5 1.3zM80.1 478.9c-.8.5-.9 1.1-.3 1.5.5.3 1.2-.1 1.6-.9.6-1.7.6-1.8-1.3-.6zM78 481.4c0 .2.8 1 1.8 1.7 1.5 1.3 1.6 1.2.3-.4s-2.1-2.1-2.1-1.3zM609.6 483.8c-.2.4.4.8 1.4.8 1 0 1.6-.4 1.4-.8-.3-.4-.9-.8-1.4-.8-.5 0-1.1.4-1.4.8zM88.9 487.7c-1.3 1.6-1.2 1.7.4.4.9-.7 1.7-1.5 1.7-1.7 0-.8-.8-.3-2.1 1.3zM95.3 486.7c-.7.3-1.3.9-1.3 1.5 0 .7.4.7 1.3 0 .8-.7 1.8-.7 2.7-.2 2 1.3 3 1.2 3-.2 0-.6-.3-.8-.6-.5-.4.3-1.4.3-2.3-.2-.9-.5-2.2-.6-2.8-.4z"/><path d="M97 490c0 .5.5 1 1.1 1 .5 0 .7-.5.4-1-.3-.6-.8-1-1.1-1-.2 0-.4.4-.4 1zM114.6 490.9c-.4.5.3 1.5 1.5 2.1 2.7 1.5 3.1 1 .9-1.3-1.1-1.1-2-1.4-2.4-.8zM128.6 492.6c-.3.9-.4 1.9-.1 2.2.3.3.5-.1.5-.9 0-1.1.2-1.1 1 .1.5.8 1 1 1 .5 0-.6-.4-1.6-.9-2.3-.6-1.1-1-1-1.5.4zM173 492.5l-2.5 1.4 3.3-.4c1.9-.2 3.2.1 3.2.7s.2.9.5.6c.7-.6-.5-3.8-1.4-3.8-.3.1-1.7.7-3.1 1.5zM269 492.5l-2.5 1.4 3.3-.4c1.9-.2 3.2.1 3.2.7s.2.9.5.6c.7-.6-.5-3.8-1.4-3.8-.3.1-1.7.7-3.1 1.5zM577.5 492c-.3.5-.1 1 .4 1 .6 0 1.1-.5 1.1-1 0-.6-.2-1-.4-1-.3 0-.8.4-1.1 1zM591.5 492.9c-.3.5-.2 1.2.3 1.5.5.3.9-.1.9-.9 0-1.7-.3-1.9-1.2-.6zM369.9 494.7c-1.3 1.7-1.3 1.7.6.3 1.1-.8 2.2-1.6 2.4-1.7.2-.2 0-.3-.6-.3s-1.7.8-2.4 1.7zM236.1 496.3c-1.3 2.1-1.2 2.1.5.5 1-1 1.6-2 1.3-2.2-.3-.3-1.1.5-1.8 1.7zM332.1 496.3c-1.3 2.1-1.2 2.1.5.5 1-1 1.6-2 1.3-2.2-.3-.3-1.1.5-1.8 1.7zM555.5 495.1c-.4.6-.5 1.2-.2 1.5.2.3.7-.2 1-1.1.7-1.7.1-2-.8-.4zM187.9 496.7c-1.3 1.6-1.2 1.7.4.4.9-.7 1.7-1.5 1.7-1.7 0-.8-.8-.3-2.1 1.3zM283.9 496.7c-1.3 1.6-1.2 1.7.4.4 1.6-1.3 2.1-2.1 1.3-2.1-.2 0-1 .8-1.7 1.7zM371.6 499.8c-.3.5.1.9.9.9s1.2-.4.9-.9c-.3-.4-.7-.8-.9-.8-.2 0-.6.4-.9.8zM540 500c-.9.6-1 1-.3 1 .6 0 1.5-.5 1.8-1 .8-1.2.4-1.2-1.5 0zM375.8 500.7c.7.3 1.6.2 1.9-.1.4-.3-.2-.6-1.3-.5-1.1 0-1.4.3-.6.6zM375 505c0 .5.5 1 1.1 1 .5 0 .7-.5.4-1-.3-.6-.8-1-1.1-1-.2 0-.4.4-.4 1zM532.7 512.4c-.3.8-.2 1.8.4 2.2.6.3.8 1.3.5 2.1-.3.8-.1 1.1.5.8.5-.4.8-1.2.6-1.8-.2-.7.2-2 1.1-3 1-1.1 1.1-1.7.4-1.7-.7 0-1.2.6-1.2 1.2 0 1-.2 1-.9 0-.7-1.1-.9-1.1-1.4.2zM374.4 515.2c.4 1.9 2.3 2 3 .2.5-1.4.4-1.5-.8-.5-1 .8-1.6.9-1.9.1-.3-.6-.4-.5-.3.2zM534 519c-.8.5-1 1-.5 1 .6 0 1.7-.5 2.5-1s1.1-1 .5-1c-.5 0-1.7.5-2.5 1zM533.6 527.9c-.3.4.4 1.7 1.7 2.7 2.2 1.9 2.2 1.9.4-.2-.9-1.1-1.4-2.4-1-2.7.3-.4.4-.7 0-.7-.3 0-.8.4-1.1.9zM537.6 533.8c-.3.5.1.9.9.9s1.2-.4.9-.9c-.3-.4-.7-.8-.9-.8-.2 0-.6.4-.9.8zM375.5 536c-.3.5.1 1 .9 1 .9 0 1.6-.5 1.6-1 0-.6-.4-1-.9-1-.6 0-1.3.4-1.6 1zM374.4 539.2c.4 1.9 2.3 2 3 .2.5-1.4.4-1.5-.8-.5-1 .8-1.6.9-1.9.1-.3-.6-.4-.5-.3.2zM533.6 549.9c-.3.4.4 1.7 1.5 2.7 1.8 1.6 1.9 1.6 1.3.1-.3-.9-1-1.7-1.6-1.7-.5 0-.6-.5-.3-1 .3-.6.4-1 .1-1-.3 0-.7.4-1 .9z"/><path d="M533.3 554.1c.3.9.1 2.1-.4 2.6-.6.6-.5 1.4.3 2 1 .8 1.8.4 3.2-1.5 2-2.7 2-2.7 0-1-2.5 2.2-4.1 2.4-2.4.3 1.1-1.3 1.1-1.8 0-2.8-1-1-1.2-.9-.7.4zM375.5 560c-.3.5.1 1 .9 1 .9 0 1.6-.5 1.6-1 0-.6-.4-1-.9-1-.6 0-1.3.4-1.6 1zM374.4 563.2c.4 1.9 2.3 2 3 .2.5-1.4.4-1.5-.8-.5-1 .8-1.6.9-1.9.1-.3-.6-.4-.5-.3.2zM534 578.5c.7.8 1.7 1.5 2.2 1.5.5 0 .3-.7-.6-1.5-.8-.8-1.8-1.5-2.2-1.5-.3 0-.1.7.6 1.5zM533.5 582c.3 1.3.1 2.8-.3 3.4-.7 1-.8 1.9-.3 4.2 0 .4.8.1 1.6-.6s1.2-1.7.8-2.4c-.4-.6-.7-2.1-.8-3.3 0-1.2-.3-2.5-.7-2.9-.4-.3-.5.4-.3 1.6zm1 4.9c.3.5.2 1.2-.3 1.5-.5.3-.9-.1-.9-.9 0-1.7.3-1.9 1.2-.6zM531.6 591.9c-.6 1 2.4 2.5 3.2 1.6.3-.3 0-.5-.7-.5s-.9-.5-.6-1c.3-.6.2-1-.4-1-.5 0-1.2.4-1.5.9zM374.4 596.1c-.4.7-.3.9.4.5.5-.3 1.3 0 1.5.6.4.9.6 1 .6.1.1-1.7-1.6-2.5-2.5-1.2zM531.3 599.7c.4.3.3 1.1-.3 1.7-.5.7-.5 1.7.1 2.6.8 1.2.9 1.1.7-.5-.2-1.3.2-1.9 1.1-1.7 1.2.3 1.2 0 .1-1.2-.7-.9-1.5-1.6-1.8-1.6-.3 0-.2.3.1.7z"/><path d="M533.3 604.5c0 .8.4 1.2.9.9.5-.3.6-1 .3-1.5-.9-1.3-1.2-1.1-1.2.6zM530.5 610c-.3.6.1.7.9.4 1.8-.7 2.1-1.4.7-1.4-.6 0-1.3.4-1.6 1zM381 612c0 .5.5 1 1.1 1 .5 0 .7-.5.4-1-.3-.6-.8-1-1.1-1-.2 0-.4.4-.4 1zM382 615c.8.5 2 1 2.5 1 .6 0 .3-.5-.5-1s-1.9-1-2.5-1c-.5 0-.3.5.5 1zM522.6 621.9c-.3.4 0 1.6.7 2.5 1.1 1.4 1.2 1.3 1.3-.9.2-2.4-1-3.4-2-1.6zM385 624c0 .5.5 1 1.1 1 .5 0 .7-.5.4-1-.3-.6-.8-1-1.1-1-.2 0-.4.4-.4 1zM522 627.4c0 .2.7.7 1.6 1 .8.3 1.2.2.9-.4-.6-1-2.5-1.4-2.5-.6zM390 631.5c0 .8.4 1.5 1 1.5.5 0 .7-.7.4-1.5-.4-.8-.8-1.5-1-1.5-.2 0-.4.7-.4 1.5zM509.5 638c-.8 1.3.9 2 2.4 1.1 1-.6.9-1-.3-1.4-.8-.3-1.8-.2-2.1.3zM510.8 641.7c.7.3 1.6.2 1.9-.1.4-.3-.2-.6-1.3-.5-1.1 0-1.4.3-.6.6zM406.7 645.4c-.4 1.1-.1 1.3 1 .9 1.3-.5 1.4-.3.4 1.5-.8 1.6-.8 2.3.1 2.8.7.4 1 .4.6-.1-.4-.4-.3-1.6.2-2.5.7-1.3.5-2.1-.4-2.9-1-.9-1.5-.8-1.9.3zM431.3 657.2c-2.2 2.9-2.4 4.1-.3 2 1.2-1.3 2-2.5 1.7-2.8-.2-.2-.9.1-1.4.8zM453.6 660.8c-.4.6.3 1.6 1.4 2.2 1.3.7 2 .7 2 0 0-.5.3-.9.8-.9.4.1 1 0 1.5-.1 1.9-.6 3.3-.5 3.9.4.4.6 1 .7 1.4.3 1.9-1.9-5.1-3.2-7.4-1.4-1 .8-1.6.7-2.2-.2-.5-.9-1-1-1.4-.3zM475 661c0 .5.5 1 1.1 1 .5 0 .7-.5.4-1-.3-.6-.8-1-1.1-1-.2 0-.4.4-.4 1zM435 662c0 .5.7.7 1.5.4.8-.4 1.5-.8 1.5-1 0-.2-.7-.4-1.5-.4s-1.5.4-1.5 1zM467.1 662.9c-.8.5-.9 1.1-.3 1.5.5.3 1.2-.1 1.6-.9.6-1.7.6-1.8-1.3-.6zM447 663.8c0 .5.7.9 1.5.9s1.2-.4.9-.9c-.3-.4-.9-.8-1.5-.8-.5 0-.9.4-.9.8z"/></svg>